<svg width="24" height="24" viewBox="0 0 24 24" fill="none" xmlns="http://www.w3.org/2000/svg">
<path d="M10.7053 6.50105C10.7508 6.2941 10.7749 6.07855 10.7749 5.85715C10.7749 4.27919 9.55385 3 8.0476 3C6.54135 3 5.32035 4.27919 5.32035 5.85715C5.32035 6.07855 5.34435 6.2941 5.38985 6.50105C4.55023 6.8509 3.95669 7.70995 3.95669 8.71425C3.95669 8.95775 3.99158 9.1927 4.05641 9.41395C3.45611 9.7345 3.04761 10.3672 3.04761 11.0953C3.04761 12.1472 3.9004 13 4.95237 13H7.5V19.5H3.75C3.33579 19.5 3 19.8358 3 20.25C3 20.6642 3.33579 21 3.75 21H20.25C20.6642 21 21 20.6642 21 20.25C21 19.8358 20.6642 19.5 20.25 19.5H19.5116C19.5713 19.4986 19.6316 19.4865 19.6901 19.4625C19.9455 19.3574 20.0674 19.0653 19.9625 18.8099L19.1548 16.8456C19.1277 16.7798 19.0869 16.7205 19.0351 16.6717L17.6374 15.3553L18.1066 13.5512C18.2513 13.8156 18.4023 14.0561 18.5812 14.259C18.8011 14.5083 19.0584 14.6958 19.3869 14.8188C19.7047 14.9378 20.0669 14.9882 20.4862 14.9998C20.7622 15.0075 20.9921 14.7899 20.9998 14.5139C21.0075 14.2378 20.7898 14.0079 20.5138 14.0002C20.1508 13.9902 19.9112 13.9473 19.7377 13.8823C19.5748 13.8214 19.4513 13.7338 19.3311 13.5975C19.202 13.451 19.0746 13.2465 18.9146 12.9417C18.8212 12.7638 18.7267 12.5719 18.6185 12.352C18.5373 12.1872 18.4484 12.0066 18.3464 11.8046C18.1692 11.4533 17.7955 11.2364 17.4953 11.1253C17.1924 11.0133 16.7804 10.9409 16.4321 11.0649C14.9292 11.6006 14.0791 12.7413 13.5274 14.3366C13.4372 14.5976 13.5757 14.8823 13.8366 14.9726C14.0976 15.0628 14.3823 14.9243 14.4726 14.6634C14.7771 13.7828 15.1551 13.127 15.6651 12.6605L15.5021 14.4548C15.4882 14.6077 15.5454 14.7587 15.6572 14.864L18.2709 17.3257L19.0375 19.1901C19.1154 19.3796 19.2964 19.4956 19.4888 19.5H14.0052C14.11 19.499 14.2154 19.4651 14.3048 19.3963L15.8048 18.2425C15.8877 18.1788 15.9485 18.0907 15.9787 17.9906L16.4095 16.563L15.5829 15.7803L15.4824 16.1735L15.0677 17.5478L13.6951 18.6037C13.4762 18.7721 13.4353 19.086 13.6037 19.3048C13.701 19.4315 13.8472 19.4986 13.9955 19.5H8.5V13H11.1428C12.1948 13 13.0476 12.1472 13.0476 11.0953C13.0476 10.3672 12.6391 9.7345 12.0388 9.41395C12.1036 9.1927 12.1385 8.95775 12.1385 8.71425C12.1385 7.70995 11.545 6.8509 10.7053 6.50105Z" fill="black"/>
<path d="M19 9.25C19 9.94035 18.4404 10.5 17.75 10.5C17.0597 10.5 16.5 9.94035 16.5 9.25C16.5 8.55965 17.0597 8 17.75 8C18.4404 8 19 8.55965 19 9.25Z" fill="black"/>
</svg>
