<svg width="24" height="24" viewBox="0 0 24 24" fill="none" xmlns="http://www.w3.org/2000/svg">
<path d="M11.9836 11.0735C13.1036 11.0726 13.983 10.2338 13.9821 9.16713C13.9813 8.17668 11.9793 5.74023 11.9793 5.74023C11.9793 5.74023 9.98121 8.10378 9.98206 9.17043C9.98296 10.2371 10.8636 11.0745 11.9836 11.0735Z" fill="black"/>
<path d="M11.991 20.0413C12.5433 20.0408 12.9907 19.5927 12.9902 19.0404C12.9898 18.4882 12.5417 18.0408 11.9894 18.0413C11.4371 18.0417 10.9898 18.4898 10.9902 19.0421C10.9907 19.5944 11.4388 20.0417 11.991 20.0413Z" fill="black"/>
<path fill-rule="evenodd" clip-rule="evenodd" d="M6.4762 2.04575C5.64775 2.04643 4.97674 2.71855 4.97742 3.54698L4.98765 16.047C4.98833 16.8754 5.66045 17.5464 6.4889 17.5457L8.8639 17.5438C8.90165 17.5437 8.9386 17.5404 8.9745 17.5339C8.97935 17.5331 8.98415 17.5321 8.98895 17.5312L8.99265 22.0437L14.9926 22.0388L14.9889 17.5263C15.0293 17.5344 15.0711 17.5387 15.1139 17.5387L17.4889 17.5367C18.3173 17.536 18.9883 16.8639 18.9876 16.0355L18.9774 3.53551C18.9767 2.70709 18.3046 2.03606 17.4762 2.03674L6.4762 2.04575ZM16.4778 4.03755L7.4778 4.04492L7.4852 13.0449L16.4852 13.0375L16.4778 4.03755ZM7.9867 14.7945C7.98645 14.5183 8.21015 14.2943 8.4863 14.2941L10.4862 14.2924C10.7623 14.2922 10.9864 14.5159 10.9866 14.792C10.9868 15.0682 10.7632 15.2922 10.487 15.2924L8.4871 15.2941C8.21095 15.2943 7.9869 15.0706 7.9867 14.7945ZM13.4863 14.29C13.2101 14.2902 12.9864 14.5142 12.9867 14.7904C12.9869 15.0665 13.2109 15.2902 13.4871 15.29L15.487 15.2883C15.7632 15.2881 15.9868 15.0641 15.9866 14.7879C15.9864 14.5118 15.7623 14.2881 15.4862 14.2883L13.4863 14.29ZM13.9881 16.5396L9.9881 16.5429L9.9918 21.0429L13.9918 21.0396L13.9881 16.5396Z" fill="black"/>
</svg>
