<svg width="24" height="24" viewBox="0 0 24 24" fill="none" xmlns="http://www.w3.org/2000/svg">
<path fill-rule="evenodd" clip-rule="evenodd" d="M3.53231 8.69375C2.97146 8.18045 2.58849 7.34755 2.51343 6.002C2.49805 5.7263 2.72584 5.4992 3.00194 5.50405C3.8395 5.5187 4.48092 5.576 4.97073 5.72045C5.18065 5.1762 5.59935 4.66225 6.22675 4.19275C6.3884 4.07182 6.61145 4.07182 6.77305 4.19275C7.40565 4.6661 7.82605 5.1846 8.03425 5.7338C8.5386 5.56425 9.18515 5.5148 9.99925 5.5031C10.2754 5.49915 10.5018 5.7263 10.4865 6.002C10.4114 7.34755 10.0284 8.18045 9.4676 8.69375C9.74145 8.8977 9.9002 9.24005 9.8419 9.6102C9.70335 10.49 9.4642 11.8447 9.08795 13.4999H5.9999V14.4999H8.8522C8.4768 16.0377 7.99195 17.7776 7.37355 19.6045C7.08205 20.4657 5.91785 20.4657 5.62635 19.6045C5.38355 18.8872 5.16135 18.1834 4.95829 17.4999H5.9999V16.4999H4.67036C4.19751 14.8043 3.84553 13.2651 3.58985 11.9999H5.4999V10.9999H3.3964C3.29625 10.4576 3.21776 9.98975 3.158 9.6102C3.09971 9.24005 3.25847 8.8977 3.53231 8.69375ZM7.09915 6.0883L7.4404 6.9884L8.35285 6.6817C8.6045 6.5971 8.94485 6.54665 9.4298 6.5212C9.2814 7.48725 8.9237 7.8953 8.59765 8.10615C8.1319 8.40735 7.45325 8.499 6.5149 8.49995H6.48495C5.5466 8.499 4.86799 8.40735 4.40223 8.10615C4.07649 7.8955 3.71917 7.48805 3.57052 6.52395C4.07089 6.55135 4.42704 6.60265 4.68786 6.6796L5.572 6.94035L5.90375 6.0803C5.99905 5.83315 6.1832 5.5557 6.49995 5.26325C6.82005 5.55885 7.0047 5.83905 7.09915 6.0883Z" fill="#0C112F"/>
<path fill-rule="evenodd" clip-rule="evenodd" d="M16.8533 6.85352C15.8668 7.84002 15.7707 9.21727 16.3252 10.5137C18.7525 8.92452 21.4998 10.8899 21.4998 14C21.4998 16.7614 19.0373 19 15.9998 19C12.9622 19 10.4998 16.7614 10.4998 14C10.4998 11.1038 12.882 9.20032 15.1699 10.2354C14.7793 8.83512 14.9815 7.31112 16.1462 6.14642L16.8533 6.85352ZM19.9848 15.1212C20.0518 14.8533 19.8889 14.5819 19.621 14.5149C19.3531 14.4479 19.0817 14.6108 19.0147 14.8787C18.8095 15.6996 18.1993 16.3097 17.3785 16.5149C17.1106 16.5819 16.9477 16.8533 17.0147 17.1212C17.0817 17.3891 17.3531 17.552 17.621 17.4851C18.8002 17.1903 19.69 16.3004 19.9848 15.1212Z" fill="#0C112F"/>
<path d="M17 8.99994C18.5 8.99994 19.5 7.99994 19.5 6.49994C18 6.49994 17 7.49994 17 8.99994Z" fill="#0C112F"/>
</svg>
