<svg width="24" height="24" viewBox="0 0 24 24" fill="none" xmlns="http://www.w3.org/2000/svg">
<path d="M19.2572 14.9128C18.3581 15.4594 17.3254 15.7468 16.2732 15.7434C15.3916 15.7364 14.5201 15.5561 13.7082 15.2128C13.0824 16.0962 12.7475 17.1527 12.75 18.2353V21C12.7503 21.1028 12.7293 21.2046 12.6886 21.299C12.6478 21.3934 12.5881 21.4784 12.5131 21.5487C12.4381 21.619 12.3495 21.6732 12.2526 21.7078C12.1558 21.7425 12.0529 21.7568 11.9503 21.75C11.7576 21.7332 11.5783 21.6442 11.4484 21.5007C11.3185 21.3573 11.2477 21.1701 11.25 20.9766V19.8103L7.62941 16.1897C7.09119 16.3905 6.52197 16.4955 5.94753 16.5C5.15673 16.502 4.38073 16.2856 3.70503 15.8747C1.66222 14.6334 0.562535 11.7769 0.775347 8.23031C0.786062 8.04683 0.863779 7.87367 0.993742 7.7437C1.1237 7.61374 1.29686 7.53602 1.48035 7.52531C5.02691 7.31625 7.88347 8.41218 9.12097 10.455C9.60717 11.2557 9.81944 12.1929 9.72566 13.125C9.71983 13.1972 9.69321 13.2662 9.64901 13.3236C9.60481 13.381 9.54493 13.4244 9.4766 13.4485C9.40828 13.4726 9.33444 13.4764 9.264 13.4594C9.19357 13.4424 9.12957 13.4054 9.07972 13.3528L7.27972 11.4684C7.13793 11.3337 6.94911 11.2597 6.75354 11.2622C6.55797 11.2647 6.37111 11.3435 6.23281 11.4818C6.09451 11.6201 6.01571 11.807 6.0132 12.0026C6.0107 12.1981 6.08469 12.387 6.21941 12.5287L11.2707 17.7084C11.2763 17.6353 11.2828 17.5622 11.2903 17.49C11.4544 16.0994 12.068 14.8005 13.0378 13.7906L17.7807 8.77875C17.9214 8.63814 18.0005 8.44739 18.0006 8.24845C18.0007 8.04952 17.9217 7.8587 17.7811 7.71797C17.6405 7.57723 17.4498 7.49812 17.2508 7.49804C17.0519 7.49795 16.8611 7.57689 16.7203 7.7175L12.1266 12.5756C12.0806 12.6243 12.0224 12.6598 11.9581 12.6784C11.8937 12.697 11.8256 12.6981 11.7607 12.6814C11.6958 12.6648 11.6366 12.631 11.5892 12.5838C11.5417 12.5365 11.5078 12.4773 11.491 12.4125C11.0466 10.7737 11.2425 9.1425 12.091 7.74187C13.7653 4.97812 17.6616 3.49875 22.5141 3.78375C22.6976 3.79446 22.8707 3.87218 23.0007 4.00214C23.1307 4.1321 23.2084 4.30526 23.2191 4.48875C23.5003 9.34218 22.021 13.2384 19.2572 14.9128Z" fill="#0C112F"/>
</svg>
