<svg width="20" height="20" viewBox="0 0 20 20" fill="none" xmlns="http://www.w3.org/2000/svg">
<path d="M12.3333 12.7857C13.1617 12.7857 13.8333 13.458 13.8333 14.2857C13.8333 15.1133 13.1617 15.7857 12.3333 15.7857C11.5048 15.7857 10.8333 15.1133 10.8333 14.2857C10.8333 13.458 11.5048 12.7857 12.3333 12.7857ZM12.3333 8.49995C13.1617 8.49995 13.8333 9.17227 13.8333 9.99995C13.8333 10.8276 13.1617 11.4999 12.3333 11.4999C11.5048 11.4999 10.8333 10.8276 10.8333 9.99995C10.8333 9.17227 11.5048 8.49995 12.3333 8.49995ZM12.3333 7.21423C11.5048 7.21423 10.8333 6.54191 10.8333 5.71424C10.8333 4.88575 11.5048 4.21423 12.3333 4.21423C13.1617 4.21423 13.8333 4.88575 13.8333 5.71424C13.8333 6.54191 13.1617 7.21423 12.3333 7.21423Z" fill="#0C112F"/>
<path d="M7.33325 12.7857C8.16173 12.7857 8.83325 13.458 8.83325 14.2857C8.83325 15.1133 8.16173 15.7857 7.33325 15.7857C6.50477 15.7857 5.83325 15.1133 5.83325 14.2857C5.83325 13.458 6.50477 12.7857 7.33325 12.7857ZM7.33325 8.49994C8.16173 8.49994 8.83325 9.17227 8.83325 9.99994C8.83325 10.8276 8.16173 11.4999 7.33325 11.4999C6.50477 11.4999 5.83325 10.8276 5.83325 9.99994C5.83325 9.17227 6.50477 8.49994 7.33325 8.49994ZM7.33325 7.21423C6.50477 7.21423 5.83325 6.54191 5.83325 5.71423C5.83325 4.88575 6.50477 4.21423 7.33325 4.21423C8.16173 4.21423 8.83325 4.88575 8.83325 5.71423C8.83325 6.54191 8.16173 7.21423 7.33325 7.21423Z" fill="#0C112F"/>
</svg>
