<svg width="20" height="20" viewBox="0 0 20 20" fill="none" xmlns="http://www.w3.org/2000/svg">
<path d="M1.13715 10.0918C0.509122 10.0918 -0.00679687 9.58098 0.0657816 8.95716C0.236667 7.48832 0.737851 6.07092 1.53825 4.81168C2.54323 3.23056 3.97896 1.96324 5.67974 1.15598C7.38052 0.348721 9.27702 0.0344286 11.1504 0.249377C13.0237 0.464324 14.7975 1.19975 16.2671 2.37078C17.7366 3.54181 18.842 5.1007 19.4557 6.86755C20.0694 8.63439 20.1663 10.5372 19.7353 12.3562C19.3043 14.1753 18.363 15.8366 17.0199 17.1483C15.9445 18.1986 14.6466 18.9905 13.2264 19.4701C12.6382 19.6688 12.0362 19.2793 11.9018 18.6732C11.7668 18.0637 12.1571 17.4682 12.7414 17.2485C13.7414 16.8724 14.6557 16.2931 15.4234 15.5434C16.461 14.5301 17.1882 13.2466 17.5212 11.8412C17.8542 10.4359 17.7793 8.96585 17.3052 7.60084C16.8311 6.23583 15.9771 5.03148 14.8417 4.12678C13.7064 3.22208 12.336 2.65391 10.8887 2.48785C9.44145 2.32179 7.97627 2.5646 6.6623 3.18826C5.34833 3.81193 4.23913 4.79102 3.46271 6.01254C2.89104 6.91194 2.51694 7.91576 2.35939 8.95888C2.26559 9.57986 1.76519 10.0918 1.13715 10.0918Z" fill="#C5CBE4"/>
<path d="M11.8812 1.33123C12.0149 0.721512 11.6275 0.112551 11.0064 0.0502974C9.32626 -0.118107 7.62374 0.137347 6.0603 0.801341C4.14875 1.61318 2.54023 2.99535 1.45865 4.75543C0.377069 6.51552 -0.123743 8.56594 0.0259293 10.6213C0.175602 12.6766 0.96831 14.6345 2.2937 16.2225C3.6191 17.8105 5.41122 18.9496 7.4206 19.4811C9.42998 20.0126 11.5566 19.9102 13.5045 19.188C15.4523 18.4659 17.1245 17.16 18.2882 15.452C19.237 14.0594 19.8093 12.456 19.9599 10.7946C20.0166 10.1694 19.4882 9.67188 18.8606 9.68752C18.2325 9.70316 17.745 10.2277 17.6669 10.8511C17.5176 12.0423 17.087 13.1876 16.4032 14.1912C15.5042 15.5107 14.2123 16.5196 12.7075 17.0775C11.2026 17.6354 9.55962 17.7146 8.00724 17.3039C6.45485 16.8933 5.07031 16.0133 4.04635 14.7865C3.0224 13.5596 2.40997 12.047 2.29434 10.4591C2.17871 8.87121 2.56562 7.28712 3.40121 5.92733C4.23681 4.56754 5.47951 3.49972 6.95631 2.87252C8.08736 2.39216 9.31262 2.18856 10.5297 2.27144C11.1491 2.31361 11.7482 1.93765 11.8812 1.33123Z" fill="#2D54DF"/>
</svg>
