<svg width="24" height="25" viewBox="0 0 24 25" fill="none" xmlns="http://www.w3.org/2000/svg">
<path fill-rule="evenodd" clip-rule="evenodd" d="M16.9393 0.93934C17.5251 0.353553 18.4749 0.353553 19.0607 0.93934L23.5607 5.43934C24.1464 6.02513 24.1464 6.97487 23.5607 7.56066L19.0607 12.0607C18.4749 12.6464 17.5251 12.6464 16.9393 12.0607C16.3536 11.4749 16.3536 10.5251 16.9393 9.93934L18.8787 8H7.5C6.67157 8 6 7.32843 6 6.5C6 5.67157 6.67157 5 7.5 5H18.8787L16.9393 3.06066C16.3536 2.47487 16.3536 1.52513 16.9393 0.93934ZM7.06066 12.9393C7.64645 13.5251 7.64645 14.4749 7.06066 15.0607L5.12132 17L16.5 17C17.3284 17 18 17.6716 18 18.5C18 19.3284 17.3284 20 16.5 20L5.12132 20L7.06066 21.9393C7.64645 22.5251 7.64645 23.4749 7.06066 24.0607C6.47487 24.6464 5.52513 24.6464 4.93934 24.0607L0.43934 19.5607C-0.146447 18.9749 -0.146446 18.0251 0.43934 17.4393L4.93934 12.9393C5.52513 12.3536 6.47487 12.3536 7.06066 12.9393Z" fill="#9FAFE7"/>
</svg>
