<svg width="24" height="24" viewBox="0 0 24 24" fill="none" xmlns="http://www.w3.org/2000/svg">
<path d="M4 9.51725C4 8.1922 4.44231 6.923 5.1723 5.99405C5.89985 5.06815 6.8934 4.5 8.0156 4.5C9.56695 4.5 10.7702 5.5103 11.5512 7.1009L12 8.01505L12.4488 7.1009C13.2297 5.5104 14.433 4.5 15.9844 4.5C17.1067 4.5 18.1003 5.06825 18.8278 5.9942C19.5578 6.9232 20 8.1924 20 9.51725C20 9.7147 19.9904 9.9105 19.9718 10.1046C20.2983 10.3586 20.5939 10.6504 20.8521 10.9733C20.948 10.5012 21 10.0154 21 9.51725C21 7.97985 20.4894 6.49045 19.6141 5.37635C18.7363 4.25925 17.4721 3.5 15.9844 3.5C14.2325 3.5 12.9004 4.48175 12 5.8669C11.0996 4.48168 9.7674 3.5 8.0156 3.5C6.52805 3.5 5.2638 4.25912 4.38601 5.3762C3.51062 6.4902 3 7.9796 3 9.51725C3 12.9376 5.26765 15.6855 7.42455 17.5347C8.51325 18.4681 9.5995 19.1949 10.4125 19.6882C10.8196 19.9352 11.1595 20.1245 11.3989 20.2526C11.5186 20.3166 11.6132 20.3654 11.6786 20.3986C11.7113 20.4151 11.7367 20.4277 11.7543 20.4364L11.7748 20.4464L11.7805 20.4492L11.7828 20.4503L12.007 20.5583L12.2289 20.4445L12.2305 20.4436L12.2362 20.4408L12.2564 20.4302C12.2739 20.4211 12.2993 20.4077 12.3318 20.3902C12.397 20.3552 12.4914 20.3038 12.6109 20.2364C12.8497 20.1018 13.189 19.9033 13.5954 19.6462C13.8819 19.4651 14.2022 19.2544 14.5447 19.0158C14.209 18.8602 13.8926 18.6702 13.5998 18.4503C13.4099 18.5775 13.2294 18.6945 13.0609 18.8011C12.6704 19.0481 12.3456 19.2379 12.1196 19.3654C12.0733 19.3915 12.0311 19.415 11.9934 19.4358C11.9566 19.4166 11.9156 19.3949 11.8707 19.3708C11.6452 19.2501 11.321 19.0698 10.9312 18.8333C10.1505 18.3596 9.11175 17.6641 8.07545 16.7756C5.98235 14.9811 4 12.4876 4 9.51725Z" fill="#0C112F"/>
<path d="M17 15.5C17.5523 15.5 18 15.0523 18 14.5C18 13.9477 17.5523 13.5 17 13.5C16.8814 13.5 16.7676 13.5207 16.662 13.5586L15.5126 12.4091L14.8054 13.1162L16.0151 14.3259C16.0052 14.3825 16 14.4406 16 14.5C16 15.0523 16.4477 15.5 17 15.5Z" fill="#0C112F"/>
<path fill-rule="evenodd" clip-rule="evenodd" d="M16.75 18.5C19.0972 18.5 21 16.5972 21 14.25C21 11.9028 19.0972 10 16.75 10C14.4028 10 12.5 11.9028 12.5 14.25C12.5 16.5972 14.4028 18.5 16.75 18.5ZM16.75 17.5C18.545 17.5 20 16.045 20 14.25C20 12.455 18.545 11 16.75 11C14.955 11 13.5 12.455 13.5 14.25C13.5 16.045 14.955 17.5 16.75 17.5Z" fill="#0C112F"/>
</svg>
