<svg width="24" height="24" viewBox="0 0 24 24" fill="none" xmlns="http://www.w3.org/2000/svg">
<path fill-rule="evenodd" clip-rule="evenodd" d="M2.51343 6.002C2.58849 7.34755 2.97146 8.18045 3.53231 8.69375C3.25847 8.8977 3.09971 9.24005 3.158 9.6102C3.44418 11.4275 4.15966 15.2715 5.62635 19.6045C5.91785 20.4657 7.08205 20.4657 7.37355 19.6045C8.84025 15.2715 9.55575 11.4275 9.8419 9.6102C9.9002 9.24005 9.74145 8.8977 9.4676 8.69375C10.0284 8.18045 10.4114 7.34755 10.4865 6.002C10.5018 5.7263 10.2754 5.49915 9.99925 5.5031C9.18515 5.5148 8.5386 5.56425 8.03425 5.7338C7.82605 5.1846 7.40565 4.6661 6.77305 4.19275C6.61145 4.07182 6.3884 4.07182 6.22675 4.19275C5.59935 4.66225 5.18065 5.1762 4.97073 5.72045C4.48092 5.576 3.8395 5.5187 3.00194 5.50405C2.72584 5.4992 2.49805 5.7263 2.51343 6.002ZM7.4404 6.9884L7.09915 6.0883C7.0047 5.83905 6.82005 5.55885 6.49995 5.26325C6.1832 5.5557 5.99905 5.83315 5.90375 6.0803L5.572 6.94035L4.68786 6.6796C4.42704 6.60265 4.07089 6.55135 3.57052 6.52395C3.71917 7.48805 4.07649 7.8955 4.40223 8.10615C4.86799 8.40735 5.5466 8.499 6.48495 8.49995H6.5149C7.45325 8.499 8.1319 8.40735 8.59765 8.10615C8.9237 7.8953 9.2814 7.48725 9.4298 6.5212C8.94485 6.54665 8.6045 6.5971 8.35285 6.6817L7.4404 6.9884ZM4.15298 9.49995H8.8469C8.7037 10.4037 8.45495 11.7995 8.062 13.4999H5.9999V14.4999H7.82235C7.47705 15.8911 7.0421 17.4412 6.49995 19.0649C6.3228 18.5344 6.1571 18.0118 6.00225 17.4999H6.4999V16.4999H5.70915C5.23045 14.8129 4.87224 13.274 4.61041 11.9999H5.9999V10.9999H4.41361C4.30307 10.4119 4.21737 9.9062 4.15298 9.49995Z" fill="black"/>
<path d="M19.1211 14.0149C19.389 14.0819 19.5519 14.3533 19.4849 14.6212C19.1901 15.8004 18.3003 16.6903 17.1211 16.9851C16.8532 17.052 16.5818 16.8891 16.5148 16.6212C16.4478 16.3533 16.6107 16.0819 16.8786 16.0149C17.6994 15.8097 18.3096 15.1996 18.5148 14.3787C18.5818 14.1108 18.8532 13.9479 19.1211 14.0149Z" fill="black"/>
<path fill-rule="evenodd" clip-rule="evenodd" d="M16.3254 10.5136C15.771 9.21721 15.867 7.83996 16.8535 6.85346L16.1464 6.14636C14.9817 7.31106 14.7795 8.83506 15.1701 10.2354C12.8823 9.20026 10.5 11.1038 10.5 13.9999C10.5 16.7614 12.9624 18.9999 16 18.9999C19.0375 18.9999 21.5 16.7614 21.5 13.9999C21.5 10.8899 18.7528 8.92446 16.3254 10.5136ZM16 12.0305L15.3753 11.5308C14.4463 10.7876 13.531 10.8289 12.8379 11.257C12.1051 11.7096 11.5 12.6787 11.5 13.9999C11.5 16.1215 13.4228 17.9999 16 17.9999C18.5771 17.9999 20.5 16.1215 20.5 13.9999C20.5 12.6787 19.8948 11.7096 19.162 11.257C18.4689 10.8289 17.5536 10.7876 16.6247 11.5308L16 12.0305Z" fill="black"/>
<path d="M17 8.99994C18.5 8.99994 19.5 7.99994 19.5 6.49994C18 6.49994 17 7.49994 17 8.99994Z" fill="black"/>
</svg>
