<svg width="24" height="24" viewBox="0 0 24 24" fill="none" xmlns="http://www.w3.org/2000/svg">
<path d="M12.5 10.75L11.75 13.25L12.5 14.25L13.25 13.25L12.5 10.75Z" fill="black"/>
<path fill-rule="evenodd" clip-rule="evenodd" d="M17.0005 8.8165C16.9391 8.78565 16.8699 8.7499 16.7946 8.70945C16.4979 8.55005 16.0993 8.3141 15.6977 8.00925C14.9261 7.4235 14 6.47405 14 5.22415C14 4.11117 14.8421 3 16.0938 3C16.675 3 17.1456 3.23181 17.5 3.57827C17.8544 3.23182 18.325 3 18.9062 3C20.1581 3 21 4.11137 21 5.22415C21 6.4354 20.0693 7.38565 19.3057 7.9757C18.9058 8.2848 18.5087 8.5281 18.2131 8.69365C18.135 8.7374 18.0635 8.77595 18.0005 8.8091C18.0033 9.68095 18.0174 10.5134 18.0308 11.3015C18.0601 13.0289 18.0859 14.5436 17.9811 15.7941C17.8223 17.6881 17.3524 19.2082 15.9487 20.0303C14.5677 20.8393 12.5279 21.1432 10.8385 20.9377C9.99045 20.8346 9.181 20.5976 8.56885 20.1887C8.1229 19.8909 7.76975 19.4907 7.6036 18.9882C6.56485 18.9408 5.53215 18.7514 4.71476 18.4125C3.83261 18.0468 3 17.4123 3 16.4198V6.56105H3.00146C3.00049 6.54075 3 6.5204 3 6.5C3 5.1193 5.2386 4 8 4C10.7614 4 13 5.1193 13 6.5C13 6.5204 12.9995 6.54075 12.9986 6.56105H13V9.53545C14.6961 9.77805 16 11.2367 16 13C16 14.7634 14.6959 16.2222 12.9995 16.4646C12.9763 17.4721 12.1708 18.1099 11.2823 18.4715C10.548 18.7703 9.6427 18.9357 8.71735 18.9846C8.81745 19.1187 8.95275 19.2425 9.1243 19.3571C9.55965 19.6479 10.1996 19.8526 10.9592 19.945C12.4851 20.1306 14.2931 19.8412 15.4433 19.1675C16.399 18.6077 16.8312 17.5398 16.9846 15.7106C17.0853 14.5093 17.0607 13.0795 17.0318 11.3916C17.018 10.5922 17.0033 9.7348 17.0005 8.8165ZM16.0938 4C15.5032 4 15 4.54793 15 5.22415C15 5.9713 15.5739 6.6598 16.3023 7.21275C16.6507 7.4772 17.0021 7.68575 17.2679 7.8285C17.354 7.8748 17.4305 7.91385 17.4942 7.9453C17.5588 7.91185 17.6367 7.8703 17.7244 7.82115C17.9913 7.6717 18.3442 7.455 18.6943 7.1845C19.4307 6.6153 20 5.9276 20 5.22415C20 4.54802 19.4968 4 18.9062 4C18.4946 4 18.1666 4.22904 17.9373 4.64263L17.5 5.4312L17.0627 4.64264C16.8334 4.22902 16.5054 4 16.0938 4ZM8 9C9.6356 9 11.0878 8.60735 12 8.00025V9.53545C10.3039 9.77805 9 11.2367 9 13C9 14.7628 10.3032 16.2212 11.9987 16.4643C11.9766 16.8535 11.6621 17.2372 10.9052 17.5452C10.1429 17.8555 9.0895 18.0117 8.0057 17.9994C7.8515 17.9976 7.69785 17.9924 7.54545 17.984V8.9898C7.69515 8.99655 7.8468 9 8 9ZM12 6.5C12 6.60755 11.8868 6.9741 11.0883 7.37335C10.3496 7.7427 9.25915 8 8 8C6.74085 8 5.6504 7.7427 4.91168 7.37335C4.11316 6.9741 4 6.60755 4 6.5C4 6.39245 4.11316 6.0259 4.91168 5.62665C5.6504 5.2573 6.74085 5 8 5C9.25915 5 10.3496 5.2573 11.0883 5.62665C11.8868 6.0259 12 6.39245 12 6.5ZM12.5 15.5C13.8807 15.5 15 14.3807 15 13C15 11.6193 13.8807 10.5 12.5 10.5C11.1193 10.5 10 11.6193 10 13C10 14.3807 11.1193 15.5 12.5 15.5Z" fill="black"/>
</svg>
