<svg width="24" height="24" viewBox="0 0 24 24" fill="none" xmlns="http://www.w3.org/2000/svg">
<path fill-rule="evenodd" clip-rule="evenodd" d="M3.40895 6.682C3.18302 6.90795 3.18302 7.27425 3.40895 7.5002C3.63489 7.72615 4.0012 7.72615 4.22713 7.5002L4.63648 7.09085L6.68168 9.13605L5.04533 10.7725C4.81937 10.9984 4.81937 11.3647 5.04533 11.5907C5.27123 11.8166 5.63753 11.8166 5.86348 11.5907L6.68148 10.7726L13.6362 17.7275C14.4749 18.5663 15.7006 18.7823 16.7386 18.3756L17.3179 18.9549C17.6209 19.2578 18.05 19.3577 18.4361 19.2544L19.7726 20.591C19.9985 20.817 20.3648 20.817 20.5908 20.591C20.8167 20.3651 20.8167 19.9988 20.5908 19.7728L19.254 18.436C19.357 18.0501 19.2571 17.6213 18.9543 17.3185L18.3751 16.7392C18.7819 15.7011 18.5659 14.4753 17.7271 13.6365L10.7724 6.6816L11.5907 5.86325C11.8167 5.6373 11.8167 5.271 11.5907 5.04505C11.3648 4.81912 10.9985 4.81912 10.7726 5.04505L9.13618 6.68145L7.09103 4.63624L7.49983 4.2274C7.72578 4.00146 7.72578 3.63514 7.49983 3.4092C7.27393 3.18326 6.90763 3.18326 6.68168 3.4092L3.40895 6.682ZM8.42908 7.3886L6.38393 5.34335L5.34358 6.3837L7.38878 8.42895L8.42908 7.3886ZM10.0653 7.38875L7.38858 10.0655L9.59158 12.2686L12.2683 9.59175L10.0653 7.38875ZM10.4097 13.0868L11.637 14.3141C12.3438 15.0208 11.823 14.5001 12.4552 15.1323L13.2732 15.9503C13.823 16.5001 13.6975 16.3746 14.0914 16.7685L14.3433 17.0204C14.8924 17.5695 15.6948 17.7107 16.3742 17.444L17.4436 16.3746C17.7103 15.6952 17.5691 14.8927 17.02 14.3437L13.0864 10.41L10.4097 13.0868ZM18.2611 18.0415C18.2569 18.0359 18.2522 18.0306 18.2472 18.0256L17.8352 17.6135C17.8004 17.6523 17.7644 17.6903 17.7271 17.7275C17.6898 17.7648 17.6518 17.8008 17.613 17.8357L18.025 18.2478C18.0301 18.2528 18.0355 18.2575 18.041 18.2617C18.0663 18.2169 18.098 18.1746 18.1362 18.1364C18.1743 18.0984 18.2164 18.0667 18.2611 18.0415Z" fill="#0C112F"/>
<path fill-rule="evenodd" clip-rule="evenodd" d="M3.40895 6.6819C3.18302 6.9078 3.18302 7.27415 3.40895 7.50005C3.63489 7.726 4.0012 7.726 4.22713 7.50005L4.63648 7.0907L6.68168 9.13595L5.04533 10.7723C4.81937 10.9982 4.81937 11.3646 5.04533 11.5905C5.27123 11.8164 5.63753 11.8164 5.86348 11.5905L6.68148 10.7725L8.64278 12.7338C8.73523 12.8263 8.83238 12.9111 8.93348 12.9885L8.91538 13.0065L10.9299 15.0211L12.5664 13.3846C12.7923 13.1587 13.1587 13.1587 13.3846 13.3846C13.6105 13.6105 13.6105 13.9769 13.3846 14.2028L11.7481 15.8393L12.5662 16.6574L14.2026 15.021C14.4286 14.795 14.7949 14.795 15.0208 15.021C15.2467 15.2469 15.2467 15.6132 15.0208 15.8392L13.3844 17.4756L13.6362 17.7274C14.4749 18.5662 15.7006 18.7822 16.7387 18.3754L17.3179 18.9547C17.6209 19.2577 18.05 19.3575 18.4361 19.2543L19.7726 20.5909C19.9985 20.8168 20.3648 20.8168 20.5908 20.5909C20.8167 20.3649 20.8167 19.9986 20.5908 19.7727L19.254 18.4359C19.357 18.0499 19.2571 17.6211 18.9543 17.3183L18.375 16.739C18.7818 15.701 18.5658 14.4752 17.7271 13.6364L13.0063 8.91555L12.9883 8.9335C12.911 8.83245 12.8261 8.7353 12.7337 8.64285L10.7724 6.6815L11.5907 5.86315C11.8167 5.6372 11.8167 5.27085 11.5907 5.04495C11.3648 4.81899 10.9985 4.81899 10.7726 5.04495L9.13618 6.68135L7.09103 4.63611L7.49983 4.22728C7.72578 4.00134 7.72578 3.63502 7.49983 3.40908C7.27393 3.18314 6.90763 3.18314 6.68168 3.40908L3.40895 6.6819ZM8.42908 7.38845L6.38393 5.34325L5.34358 6.3836L7.38878 8.4288L8.42908 7.38845ZM10.0653 7.3886L12.0266 9.34995C12.12 9.4434 12.2016 9.54415 12.2714 9.6504L9.65033 12.2716C9.54408 12.2018 9.44333 12.1201 9.34988 12.0267L7.38858 10.0654L10.0653 7.3886Z" fill="#0C112F"/>
</svg>
