<svg width="24" height="24" viewBox="0 0 24 24" fill="none" xmlns="http://www.w3.org/2000/svg">
<path d="M3 9.36205C3 6.32045 5.01795 3.5 7.78125 3.5C9.6988 3.5 11.1217 4.76544 12 6.56055C12.8783 4.76556 14.3011 3.5 16.2188 3.5C18.9824 3.5 21 6.32095 21 9.36205C21 9.90135 20.9382 10.4277 20.8249 10.9396C19.8623 9.7561 18.3945 9 16.75 9C13.8505 9 11.5 11.3505 11.5 14.25C11.5 16.3268 12.7059 18.122 14.4558 18.9735C13.0617 19.9541 12 20.5 12 20.5C12 20.5 3 16.1523 3 9.36205Z" fill="black"/>
<path d="M18 14.5C18 15.0523 17.5523 15.5 17 15.5C16.4477 15.5 16 15.0523 16 14.5C16 14.4406 16.0052 14.3824 16.0151 14.3259L14.8054 13.1162L15.5126 12.4091L16.662 13.5585C16.7676 13.5206 16.8814 13.5 17 13.5C17.5523 13.5 18 13.9477 18 14.5Z" fill="black"/>
<path fill-rule="evenodd" clip-rule="evenodd" d="M21 14.25C21 16.5972 19.0972 18.5 16.75 18.5C14.4028 18.5 12.5 16.5972 12.5 14.25C12.5 11.9028 14.4028 10 16.75 10C19.0972 10 21 11.9028 21 14.25ZM20 14.25C20 16.045 18.545 17.5 16.75 17.5C14.955 17.5 13.5 16.045 13.5 14.25C13.5 12.455 14.955 11 16.75 11C18.545 11 20 12.455 20 14.25Z" fill="black"/>
</svg>
