<svg width="24" height="24" viewBox="0 0 24 24" fill="none" xmlns="http://www.w3.org/2000/svg">
<path fill-rule="evenodd" clip-rule="evenodd" d="M19.9217 4.98599C21.0909 6.27365 21.2941 8.08175 20.6837 9.6344C19.6399 12.2893 17.2914 14.6946 15.0635 16.9762C13.9739 18.0921 12.9132 19.1785 12.0481 20.25C11.8485 20.0554 11.642 19.8551 11.4302 19.6496C8.5856 16.8902 4.76791 13.1868 3.34032 9.6344C3.11327 9.06945 3.00467 8.4645 3.02116 7.8565C3.03765 7.24855 3.17887 6.65025 3.4362 6.0982C3.69354 5.5461 4.0616 5.05185 4.51792 4.6455C6.33445 3.02329 9.1781 3.2762 10.9065 4.99039L12.0481 6.12255L13.3704 4.81127C13.804 4.38122 14.3215 4.0433 14.8912 3.81813C15.4609 3.59296 16.0709 3.48527 16.6839 3.50162C17.297 3.51796 17.9002 3.65802 18.4569 3.91322C19.0136 4.16843 19.512 4.53344 19.9217 4.98599ZM9.48435 12.4008L13.4545 7.26795L12.6908 11.143H14.9541C15.1618 11.143 15.279 11.3817 15.1519 11.546L11.1817 16.6788L11.9454 12.8037H9.6821C9.4744 12.8037 9.35725 12.5651 9.48435 12.4008Z" fill="black"/>
</svg>
