<svg width="311" height="147" viewBox="0 0 311 147" fill="none" xmlns="http://www.w3.org/2000/svg">
<g clip-path="url(#clip0_794_25668)">
<path d="M208.491 82.3997L188.497 100.297C188.497 100.297 137.136 113.545 145.592 48.1856C154.049 -17.1734 212.947 -107 212.947 -107L375.593 -79.4594C375.593 -79.4594 247.868 -36.5224 253.775 39.3296L208.491 82.3997Z" fill="#5173DF" stroke="#190000" stroke-width="0.575212" stroke-linecap="round" stroke-linejoin="round"/>
<path d="M245.96 53.6966L178.02 72.8213C178.02 72.8213 177.774 17.3118 220.165 16.2518C249.754 15.5118 253.775 39.3295 253.775 39.3295L245.96 53.6966Z" fill="#3153C1" stroke="#190000" stroke-width="0.575212" stroke-linecap="round" stroke-linejoin="round"/>
<path d="M264.574 44.0754L200.411 55.4367C200.411 55.4367 216.003 73.5099 188.497 100.298L253.781 82.7754L264.574 44.0754Z" fill="#7591EB" stroke="#190000" stroke-width="0.575212" stroke-linecap="round" stroke-linejoin="round"/>
<g filter="url(#filter0_f_794_25668)">
<ellipse cx="151.511" cy="125.832" rx="46.3546" ry="2.5" transform="rotate(59.7512 151.511 125.832)" fill="#182240"/>
</g>
<path d="M140.003 73.8341C140.211 73.7145 140.413 73.5901 140.617 73.4674C140.884 73.3066 141.148 73.1436 141.408 72.9783C141.547 72.8904 141.684 72.8023 141.82 72.7133C142.087 72.5378 142.35 72.3599 142.609 72.1797C142.721 72.1022 142.835 72.0258 142.945 71.9476C143.319 71.682 143.685 71.4125 144.043 71.1392C144.1 71.0962 144.153 71.0519 144.209 71.0088C144.511 70.775 144.806 70.539 145.096 70.3008C145.202 70.2134 145.306 70.1261 145.41 70.038C145.678 69.8133 145.94 69.5871 146.196 69.3596C146.289 69.2777 146.382 69.1961 146.473 69.114C146.805 68.8148 147.129 68.514 147.443 68.2114C147.478 68.1776 147.511 68.1435 147.546 68.1095C147.853 67.8118 148.151 67.5134 148.44 67.2142C148.521 67.1302 148.603 67.0462 148.683 66.9621C148.994 66.6361 149.299 66.3101 149.589 65.9855L149.606 65.9665C149.927 65.6083 150.232 65.2525 150.528 64.8989C150.589 64.827 150.65 64.755 150.709 64.6834C150.994 64.3388 151.269 63.9977 151.532 63.66C151.635 63.5283 151.735 63.3977 151.834 63.267C151.899 63.1813 151.966 63.0949 152.03 63.0099C152.149 62.8517 152.263 62.6957 152.377 62.5401C152.425 62.4746 152.475 62.4081 152.521 62.3435C152.68 62.1244 152.833 61.9082 152.981 61.6951C153.009 61.6559 153.034 61.6184 153.06 61.5795C153.18 61.4065 153.298 61.2348 153.41 61.0666C153.504 60.9276 153.592 60.7928 153.68 60.6574C153.732 60.5785 153.786 60.4977 153.836 60.4202C153.936 60.2655 154.03 60.1159 154.124 59.9665C154.159 59.912 154.195 59.8551 154.229 59.8013C154.354 59.6001 154.474 59.4042 154.588 59.2138C154.605 59.1853 154.62 59.1592 154.637 59.131C154.733 58.9708 154.827 58.8124 154.915 58.6607C154.932 58.6311 154.947 58.604 154.964 58.5748C155.059 58.4085 155.151 58.2472 155.237 58.0934C155.271 58.0317 155.303 57.9733 155.336 57.9136C155.401 57.7966 155.463 57.6823 155.522 57.5734C155.554 57.5137 155.585 57.455 155.615 57.3979C155.671 57.293 155.724 57.1926 155.773 57.0966C155.797 57.0506 155.822 57.0026 155.845 56.9587C155.904 56.8422 155.959 56.7334 156.009 56.632L156.034 56.5828C156.093 56.464 156.144 56.3584 156.189 56.2634L156.225 56.1877C156.255 56.1245 156.283 56.0648 156.306 56.0149L156.336 55.9488C156.355 55.9067 156.372 55.8687 156.385 55.8404L156.399 55.8084L156.424 55.752L156.604 55.3279C156.637 55.2658 156.67 55.2048 156.705 55.1448C156.76 55.0502 156.817 54.9583 156.877 54.8692C156.89 54.8506 156.904 54.8334 156.916 54.815C156.929 54.7966 156.944 54.7772 156.957 54.7582C156.992 54.71 157.026 54.6607 157.062 54.6143C157.125 54.5328 157.19 54.4541 157.258 54.3783C157.271 54.3637 157.286 54.3502 157.299 54.3357C157.314 54.3198 157.329 54.3047 157.344 54.2892C157.386 54.2455 157.426 54.2008 157.469 54.1593C157.543 54.0886 157.618 54.0208 157.696 53.956C157.71 53.945 157.724 53.9353 157.738 53.9245C157.754 53.9113 157.771 53.8991 157.788 53.8861C157.839 53.8463 157.889 53.8054 157.942 53.7681C158.029 53.7068 158.119 53.649 158.21 53.5948L158.248 53.5729L170.492 46.5434C170.332 46.6367 170.178 46.7413 170.032 46.8564C170.016 46.8693 169.998 46.8816 169.982 46.895C169.843 47.0076 169.712 47.1291 169.589 47.2589C169.574 47.2746 169.558 47.2898 169.544 47.3058C169.421 47.4394 169.307 47.5804 169.201 47.728C169.188 47.7471 169.174 47.7656 169.16 47.7849C169.046 47.9494 168.941 48.1207 168.848 48.2979L168.668 48.7219L168.644 48.7762L168.628 48.8126C168.615 48.8417 168.599 48.8768 168.579 48.9205L168.55 48.9842C168.528 49.0329 168.502 49.0885 168.472 49.1502C168.459 49.1793 168.447 49.2046 168.432 49.2366C168.387 49.3307 168.337 49.4341 168.279 49.5515L168.275 49.5595L168.25 49.6083C168.201 49.7076 168.148 49.8133 168.09 49.9272C168.067 49.9721 168.042 50.02 168.017 50.0672C167.967 50.1636 167.915 50.2631 167.859 50.3685C167.829 50.4258 167.798 50.4835 167.766 50.5432C167.708 50.6513 167.646 50.7639 167.582 50.88C167.548 50.9414 167.516 51.0009 167.48 51.0644C167.396 51.2165 167.306 51.375 167.211 51.5387C167.195 51.5663 167.182 51.5908 167.166 51.6188L167.158 51.6313C167.071 51.7815 166.978 51.9381 166.883 52.0971C166.866 52.1262 166.85 52.1537 166.833 52.1834C166.719 52.3731 166.599 52.5686 166.474 52.7696C166.437 52.8296 166.396 52.8933 166.358 52.9539C166.267 53.0976 166.177 53.2411 166.081 53.3897C166.03 53.4683 165.975 53.5499 165.923 53.6299C165.835 53.7642 165.748 53.8977 165.656 54.0354L165.631 54.0732C165.523 54.2333 165.411 54.3967 165.297 54.5609C165.273 54.5957 165.251 54.6291 165.227 54.664C165.078 54.8775 164.924 55.0942 164.766 55.3142C164.72 55.3773 164.671 55.4422 164.625 55.5059C164.51 55.663 164.395 55.8203 164.275 55.98C164.21 56.0658 164.143 56.1529 164.077 56.2393C163.994 56.3485 163.913 56.4571 163.827 56.5674C163.811 56.5876 163.793 56.6084 163.778 56.6285C163.515 56.9661 163.24 57.3077 162.954 57.6532C162.894 57.725 162.833 57.7969 162.773 57.869C162.476 58.2226 162.171 58.5783 161.851 58.9365L161.838 58.9516L161.834 58.9552C161.543 59.2798 161.239 59.6057 160.928 59.9318C160.847 60.016 160.766 60.1001 160.684 60.1841C160.394 60.4834 160.097 60.7823 159.79 61.0805C159.762 61.107 159.737 61.1338 159.71 61.1605L159.688 61.1806C159.374 61.4832 159.049 61.7842 158.717 62.0838C158.627 62.1655 158.534 62.2464 158.442 62.3277C158.184 62.556 157.921 62.7829 157.653 63.0082C157.589 63.0617 157.53 63.1165 157.466 63.1698C157.425 63.2034 157.382 63.2358 157.341 63.2694C157.05 63.5086 156.753 63.7456 156.45 63.9805C156.395 64.0228 156.343 64.0659 156.288 64.1081C155.931 64.3816 155.564 64.6512 155.189 64.9166C155.159 64.938 155.131 64.9603 155.1 64.9817C155.019 65.0389 154.933 65.0931 154.852 65.1499C154.593 65.3293 154.331 65.5071 154.064 65.6821C153.928 65.7715 153.79 65.86 153.652 65.9478C153.391 66.1135 153.127 66.2767 152.859 66.4372C152.77 66.491 152.685 66.5477 152.595 66.6008C152.48 66.6684 152.365 66.7356 152.248 66.8022L152.246 66.8034L140.003 73.8341Z" fill="#ED707B" stroke="#190000" stroke-width="0.727869" stroke-linecap="round" stroke-linejoin="round"/>
<path d="M129.782 81.2986C129.74 81.1063 129.71 80.9185 129.69 80.7343C129.684 80.6861 129.678 80.638 129.674 80.5904C129.657 80.4094 129.65 80.2276 129.653 80.0458C129.653 80.0308 129.655 80.0167 129.656 80.0022C129.657 79.9756 129.66 79.9504 129.661 79.9241C129.666 79.8372 129.669 79.7498 129.679 79.6662C129.69 79.5673 129.705 79.4707 129.723 79.3765L129.725 79.3653L129.729 79.3507C129.743 79.2784 129.759 79.2071 129.777 79.138C129.796 79.0688 129.817 78.999 129.84 78.9321C129.852 78.8957 129.866 78.8606 129.88 78.8251L129.891 78.7963C129.897 78.7807 129.902 78.7644 129.909 78.7489C129.932 78.6923 129.957 78.637 129.984 78.5832C130.009 78.5315 130.036 78.481 130.065 78.4319C130.083 78.4006 130.102 78.3709 130.122 78.341L130.132 78.3236C130.139 78.3137 130.145 78.3032 130.151 78.2936C130.181 78.2493 130.212 78.2065 130.244 78.165C130.276 78.1236 130.309 78.0838 130.344 78.0457C130.377 78.0082 130.412 77.9724 130.448 77.9378L130.449 77.9365L130.45 77.935C130.488 77.8991 130.526 77.8647 130.566 77.8319C130.606 77.7985 130.648 77.7667 130.69 77.7364C130.735 77.7053 130.78 77.676 130.827 77.6485L130.845 77.638L143.089 70.6084C142.945 70.6912 142.812 70.7914 142.693 70.9069L142.692 70.9081C142.573 71.0245 142.467 71.1539 142.377 71.2939L142.366 71.3116C142.274 71.4555 142.197 71.6079 142.135 71.7666L142.124 71.7957C142.059 71.9663 142.009 72.1421 141.973 72.3211L141.97 72.3357C141.935 72.5201 141.914 72.7067 141.905 72.8941C141.904 72.9204 141.901 72.9458 141.9 72.9725C141.894 73.1689 141.9 73.3654 141.918 73.561C141.922 73.6083 141.929 73.6567 141.934 73.7048C141.955 73.8889 141.985 74.0768 142.026 74.269C142.032 74.2981 142.036 74.3267 142.043 74.3564C142.1 74.603 142.17 74.8463 142.254 75.0851L152.579 104.483C152.887 105.357 153.209 106.224 153.539 107.087C153.704 107.518 153.875 107.946 154.046 108.374C154.155 108.648 154.262 108.922 154.374 109.194C154.585 109.709 154.804 110.221 155.025 110.731C155.111 110.931 155.193 111.133 155.281 111.332C155.573 111.997 155.873 112.658 156.181 113.315C156.266 113.497 156.354 113.678 156.44 113.859C156.681 114.367 156.927 114.874 157.177 115.378C157.26 115.544 157.342 115.71 157.426 115.876C157.746 116.511 158.074 117.144 158.409 117.774C158.858 118.616 159.323 119.454 159.802 120.287C159.945 120.536 160.093 120.784 160.239 121.033C160.575 121.607 160.917 122.179 161.265 122.749C161.438 123.03 161.612 123.311 161.788 123.592C162.135 124.144 162.489 124.695 162.849 125.243C163.014 125.495 163.176 125.747 163.344 125.997C163.862 126.772 164.393 127.544 164.936 128.313C164.947 128.329 164.957 128.344 164.968 128.36C165.535 129.157 166.121 129.951 166.717 130.742C167.137 131.299 167.561 131.855 167.996 132.41C168.058 132.488 168.121 132.566 168.183 132.645C168.6 133.173 169.025 133.7 169.457 134.226C169.588 134.386 169.72 134.547 169.852 134.707C170.348 135.305 170.85 135.903 171.365 136.499C171.401 136.541 171.44 136.584 171.476 136.626C171.963 137.188 172.459 137.749 172.963 138.309C173.125 138.49 173.29 138.671 173.454 138.851C173.84 139.276 174.232 139.7 174.628 140.123C174.832 140.341 175.036 140.56 175.242 140.778C175.67 141.229 176.104 141.68 176.544 142.13C176.704 142.294 176.86 142.458 177.022 142.622C177.492 143.1 177.974 143.577 178.457 144.054C178.624 144.218 178.786 144.383 178.955 144.548C179.607 145.186 180.272 145.823 180.948 146.459C181.678 147.146 182.422 147.832 183.18 148.518C183.374 148.694 183.577 148.871 183.774 149.047C184.342 149.556 184.912 150.065 185.495 150.573C186.143 151.139 186.802 151.705 187.47 152.27C187.631 152.406 187.794 152.543 187.957 152.679C188.549 153.177 189.148 153.674 189.755 154.172C189.885 154.279 190.014 154.386 190.145 154.492C190.836 155.056 191.538 155.62 192.25 156.184C192.548 156.42 192.852 156.657 193.153 156.893C193.648 157.282 194.146 157.67 194.651 158.059C194.977 158.311 195.307 158.562 195.638 158.814C196.133 159.191 196.632 159.569 197.136 159.946C197.477 160.201 197.819 160.456 198.163 160.711C198.675 161.09 199.192 161.47 199.714 161.85C200.058 162.1 200.401 162.351 200.749 162.602C201.267 162.975 201.793 163.349 202.32 163.724C202.703 163.995 203.082 164.266 203.469 164.538C204.022 164.926 204.586 165.316 205.149 165.706C205.516 165.96 205.88 166.213 206.251 166.468C206.88 166.898 207.52 167.33 208.161 167.762C208.481 167.977 208.794 168.192 209.116 168.408C210.084 169.055 211.065 169.703 212.059 170.354C212.13 170.399 212.2 170.438 212.27 170.481C212.435 170.582 212.6 170.678 212.766 170.766C212.856 170.814 212.946 170.862 213.036 170.907C213.095 170.936 213.153 170.965 213.212 170.992C213.333 171.049 213.454 171.101 213.575 171.151C213.621 171.169 213.667 171.19 213.712 171.208C213.878 171.272 214.043 171.33 214.207 171.381C214.24 171.391 214.272 171.398 214.305 171.407C214.437 171.446 214.569 171.481 214.701 171.51C214.757 171.523 214.812 171.533 214.868 171.544C214.978 171.565 215.087 171.584 215.196 171.599C215.255 171.607 215.313 171.614 215.372 171.62C215.483 171.632 215.594 171.639 215.705 171.644C215.756 171.646 215.807 171.649 215.858 171.65C216.017 171.652 216.176 171.648 216.333 171.634C216.93 171.587 217.51 171.41 218.032 171.114L205.788 178.143C205.266 178.439 204.686 178.617 204.089 178.663C203.932 178.677 203.773 178.681 203.613 178.679C203.563 178.679 203.512 178.675 203.462 178.673C203.351 178.669 203.239 178.662 203.127 178.65C203.069 178.644 203.011 178.636 202.952 178.628C202.843 178.614 202.733 178.595 202.623 178.573C202.567 178.562 202.512 178.553 202.457 178.54C202.325 178.51 202.193 178.476 202.06 178.437C202.028 178.427 201.995 178.42 201.963 178.41C201.798 178.359 201.633 178.301 201.468 178.237C201.422 178.219 201.376 178.199 201.331 178.18C201.21 178.13 201.088 178.078 200.967 178.022C200.909 177.994 200.85 177.965 200.791 177.936C200.736 177.908 200.68 177.884 200.624 177.855C200.59 177.837 200.556 177.814 200.521 177.796C200.356 177.707 200.192 177.612 200.027 177.512C199.988 177.488 199.949 177.469 199.91 177.444C199.878 177.424 199.846 177.404 199.815 177.383C198.819 176.733 197.838 176.084 196.872 175.437C196.548 175.221 196.233 175.005 195.912 174.789C195.274 174.359 194.635 173.928 194.009 173.499C193.634 173.243 193.268 172.987 192.898 172.731C192.337 172.343 191.776 171.955 191.224 171.567C190.838 171.297 190.46 171.026 190.079 170.756C189.705 170.49 189.325 170.224 188.955 169.959C188.802 169.849 188.654 169.74 188.502 169.63C188.156 169.38 187.814 169.131 187.472 168.881C186.95 168.501 186.432 168.121 185.918 167.741C185.573 167.486 185.23 167.23 184.889 166.974C184.386 166.598 183.887 166.221 183.394 165.845C183.063 165.593 182.733 165.341 182.407 165.09C181.9 164.699 181.4 164.309 180.902 163.919C180.604 163.684 180.302 163.45 180.007 163.215C179.912 163.14 179.813 163.064 179.718 162.988C179.103 162.499 178.497 162.01 177.898 161.521C177.769 161.415 177.642 161.31 177.513 161.204C176.905 160.705 176.303 160.206 175.71 159.707C175.549 159.572 175.386 159.436 175.226 159.3C174.602 158.772 173.984 158.244 173.377 157.715C173.333 157.678 173.292 157.64 173.249 157.602C172.667 157.094 172.098 156.586 171.531 156.078C171.334 155.901 171.13 155.725 170.934 155.548C170.176 154.862 169.433 154.175 168.702 153.488L168.668 153.456C168.004 152.831 167.351 152.205 166.71 151.578C166.54 151.412 166.376 151.245 166.208 151.079C165.767 150.645 165.326 150.21 164.896 149.775C164.855 149.734 164.816 149.692 164.776 149.651C164.615 149.489 164.46 149.325 164.301 149.162C163.861 148.711 163.426 148.259 162.997 147.807C162.79 147.59 162.587 147.372 162.384 147.154C162.18 146.936 161.971 146.718 161.77 146.5C161.58 146.294 161.396 146.087 161.208 145.88C161.044 145.7 160.88 145.52 160.718 145.34C160.213 144.778 159.716 144.215 159.227 143.652C159.192 143.611 159.155 143.57 159.12 143.53L159.097 143.503C158.59 142.916 158.096 142.327 157.607 141.737C157.474 141.577 157.342 141.416 157.211 141.255C157.057 141.068 156.901 140.881 156.749 140.694C156.475 140.355 156.207 140.015 155.938 139.675C155.876 139.597 155.813 139.519 155.751 139.44C155.377 138.963 155.007 138.484 154.643 138.005C154.584 137.927 154.53 137.849 154.472 137.772C153.875 136.981 153.29 136.188 152.724 135.391L152.72 135.385C152.708 135.369 152.698 135.353 152.686 135.337C152.142 134.57 151.613 133.8 151.098 133.027C151.049 132.953 150.995 132.88 150.946 132.805C150.829 132.629 150.721 132.451 150.605 132.275C150.245 131.725 149.891 131.174 149.542 130.621C149.455 130.482 149.362 130.346 149.276 130.207C149.188 130.065 149.108 129.922 149.021 129.78C148.671 129.209 148.328 128.637 147.993 128.062C147.891 127.888 147.782 127.716 147.681 127.541C147.638 127.467 147.6 127.391 147.557 127.317C147.08 126.484 146.615 125.646 146.163 124.804C146.155 124.789 146.147 124.774 146.139 124.759C145.811 124.145 145.494 123.527 145.181 122.907C145.097 122.741 145.015 122.574 144.932 122.408C144.828 122.198 144.721 121.989 144.618 121.779C144.474 121.484 144.336 121.186 144.195 120.89C144.109 120.708 144.021 120.527 143.936 120.344C143.639 119.71 143.35 119.073 143.066 118.433C143.056 118.41 143.047 118.386 143.036 118.363C142.948 118.162 142.865 117.96 142.778 117.759C142.559 117.249 142.34 116.738 142.129 116.224C142.017 115.952 141.91 115.677 141.801 115.404C141.662 115.055 141.518 114.708 141.383 114.357C141.352 114.278 141.325 114.196 141.294 114.116C140.963 113.254 140.641 112.387 140.334 111.513L130.009 82.1144C129.985 82.0465 129.963 81.9788 129.941 81.9113C129.885 81.7335 129.838 81.5584 129.798 81.3857C129.792 81.3562 129.788 81.328 129.782 81.2986Z" fill="#FACCC4"/>
<mask id="mask0_794_25668" style="mask-type:luminance" maskUnits="userSpaceOnUse" x="129" y="70" width="90" height="109">
<path fill-rule="evenodd" clip-rule="evenodd" d="M129.782 81.2986C129.74 81.1063 129.71 80.9185 129.69 80.7343C129.684 80.6861 129.678 80.638 129.674 80.5904C129.657 80.4094 129.65 80.2276 129.653 80.0458C129.653 80.0308 129.655 80.0167 129.656 80.0022C129.657 79.9756 129.66 79.9504 129.661 79.9241C129.666 79.8372 129.669 79.7498 129.679 79.6662C129.69 79.5673 129.705 79.4707 129.723 79.3765L129.725 79.3653L129.729 79.3507C129.743 79.2784 129.759 79.2071 129.777 79.138C129.796 79.0688 129.817 78.999 129.84 78.9321C129.852 78.8957 129.866 78.8606 129.88 78.8251L129.891 78.7963C129.897 78.7807 129.902 78.7644 129.909 78.7489C129.932 78.6923 129.957 78.637 129.984 78.5832C130.009 78.5315 130.036 78.481 130.065 78.4319C130.083 78.4006 130.102 78.3709 130.122 78.341L130.132 78.3236C130.139 78.3137 130.145 78.3032 130.151 78.2936C130.181 78.2493 130.212 78.2065 130.244 78.165C130.276 78.1236 130.309 78.0838 130.344 78.0457C130.377 78.0082 130.412 77.9724 130.448 77.9378L130.449 77.9365L130.45 77.935C130.488 77.8991 130.526 77.8647 130.566 77.8319C130.606 77.7985 130.648 77.7667 130.69 77.7364C130.735 77.7053 130.78 77.676 130.827 77.6485L130.845 77.638L143.089 70.6084C142.945 70.6912 142.812 70.7914 142.693 70.9069L142.692 70.9081C142.573 71.0245 142.467 71.1539 142.377 71.2939L142.366 71.3116C142.274 71.4555 142.197 71.6079 142.135 71.7666L142.124 71.7957C142.059 71.9663 142.009 72.1421 141.973 72.3211L141.97 72.3357C141.935 72.5201 141.914 72.7067 141.905 72.8941C141.904 72.9204 141.901 72.9458 141.9 72.9725C141.894 73.1689 141.9 73.3654 141.918 73.561C141.922 73.6083 141.929 73.6567 141.934 73.7048C141.955 73.8889 141.985 74.0768 142.026 74.269C142.032 74.2981 142.036 74.3267 142.043 74.3564C142.1 74.603 142.17 74.8463 142.254 75.0851L152.579 104.483C152.887 105.357 153.209 106.224 153.539 107.087C153.704 107.518 153.875 107.946 154.046 108.374C154.155 108.648 154.262 108.922 154.374 109.194C154.585 109.709 154.804 110.221 155.025 110.731C155.111 110.931 155.193 111.133 155.281 111.332C155.573 111.997 155.873 112.658 156.181 113.315C156.266 113.497 156.354 113.678 156.44 113.859C156.681 114.367 156.927 114.874 157.177 115.378C157.26 115.544 157.342 115.71 157.426 115.876C157.746 116.511 158.074 117.144 158.409 117.774C158.858 118.616 159.323 119.454 159.802 120.287C159.945 120.536 160.093 120.784 160.239 121.033C160.575 121.607 160.917 122.179 161.265 122.749C161.438 123.03 161.612 123.311 161.788 123.592C162.135 124.144 162.489 124.695 162.849 125.243C163.014 125.495 163.176 125.747 163.344 125.997C163.862 126.772 164.393 127.544 164.936 128.313C164.947 128.329 164.957 128.344 164.968 128.36C165.535 129.157 166.121 129.951 166.717 130.742C167.137 131.299 167.561 131.855 167.996 132.41C168.058 132.488 168.121 132.566 168.183 132.645C168.6 133.173 169.025 133.7 169.457 134.226C169.588 134.386 169.72 134.547 169.852 134.707C170.348 135.305 170.85 135.903 171.365 136.499C171.401 136.541 171.44 136.584 171.476 136.626C171.963 137.188 172.459 137.749 172.963 138.309C173.125 138.49 173.29 138.671 173.454 138.851C173.84 139.276 174.232 139.7 174.628 140.123C174.832 140.341 175.036 140.56 175.242 140.778C175.67 141.229 176.104 141.68 176.544 142.13C176.704 142.294 176.86 142.458 177.022 142.622C177.492 143.1 177.974 143.577 178.457 144.054C178.624 144.218 178.786 144.383 178.955 144.548C179.607 145.186 180.272 145.823 180.948 146.459C181.678 147.146 182.422 147.832 183.18 148.518C183.374 148.694 183.577 148.871 183.774 149.047C184.342 149.556 184.912 150.065 185.495 150.573C186.143 151.139 186.802 151.705 187.47 152.27C187.631 152.406 187.794 152.543 187.957 152.679C188.549 153.177 189.148 153.674 189.755 154.172C189.885 154.279 190.014 154.386 190.145 154.492C190.836 155.056 191.538 155.62 192.25 156.184C192.548 156.42 192.852 156.657 193.153 156.893C193.648 157.282 194.146 157.67 194.651 158.059C194.977 158.311 195.307 158.562 195.638 158.814C196.133 159.191 196.632 159.569 197.136 159.946C197.477 160.201 197.819 160.456 198.163 160.711C198.675 161.09 199.192 161.47 199.714 161.85C200.058 162.1 200.401 162.351 200.749 162.602C201.267 162.975 201.793 163.349 202.32 163.724C202.703 163.995 203.082 164.266 203.469 164.538C204.022 164.926 204.586 165.316 205.149 165.706C205.516 165.96 205.88 166.213 206.251 166.468C206.88 166.898 207.52 167.33 208.161 167.762C208.481 167.977 208.794 168.192 209.116 168.408C210.084 169.055 211.065 169.703 212.059 170.354C212.13 170.399 212.2 170.438 212.27 170.481C212.435 170.582 212.6 170.678 212.766 170.766C212.856 170.814 212.946 170.862 213.036 170.907C213.095 170.936 213.153 170.965 213.212 170.992C213.333 171.049 213.454 171.101 213.575 171.151C213.621 171.169 213.667 171.19 213.712 171.208C213.878 171.272 214.043 171.33 214.207 171.381C214.24 171.391 214.272 171.398 214.305 171.407C214.437 171.446 214.569 171.481 214.701 171.51C214.757 171.523 214.812 171.533 214.868 171.544C214.978 171.565 215.087 171.584 215.196 171.599C215.255 171.607 215.313 171.614 215.372 171.62C215.483 171.632 215.594 171.639 215.705 171.644C215.756 171.646 215.807 171.649 215.858 171.65C216.017 171.652 216.176 171.648 216.333 171.634C216.93 171.587 217.51 171.41 218.032 171.114L205.788 178.143C205.266 178.439 204.686 178.617 204.089 178.663C203.932 178.677 203.773 178.681 203.613 178.679C203.563 178.679 203.512 178.675 203.462 178.673C203.351 178.669 203.239 178.662 203.127 178.65C203.069 178.644 203.011 178.636 202.952 178.628C202.843 178.614 202.733 178.595 202.623 178.573C202.567 178.562 202.512 178.553 202.457 178.54C202.325 178.51 202.193 178.476 202.06 178.437C202.028 178.427 201.995 178.42 201.963 178.41C201.798 178.359 201.633 178.301 201.468 178.237C201.422 178.219 201.376 178.199 201.331 178.18C201.21 178.13 201.088 178.078 200.967 178.022C200.909 177.994 200.85 177.965 200.791 177.936C200.736 177.908 200.68 177.884 200.624 177.855C200.59 177.837 200.556 177.814 200.521 177.796C200.356 177.707 200.192 177.612 200.027 177.512C199.988 177.488 199.949 177.469 199.91 177.444C199.878 177.424 199.846 177.404 199.815 177.383C198.819 176.733 197.838 176.084 196.872 175.437C196.548 175.221 196.233 175.005 195.912 174.789C195.274 174.359 194.635 173.928 194.009 173.499C193.634 173.243 193.268 172.987 192.898 172.731C192.337 172.343 191.776 171.955 191.224 171.567C190.838 171.297 190.46 171.026 190.079 170.756C189.705 170.49 189.325 170.224 188.955 169.959C188.802 169.849 188.654 169.74 188.502 169.63C188.156 169.38 187.814 169.131 187.472 168.881C186.95 168.501 186.432 168.121 185.918 167.741C185.573 167.486 185.23 167.23 184.889 166.974C184.386 166.598 183.887 166.221 183.394 165.845C183.063 165.593 182.733 165.341 182.407 165.09C181.9 164.699 181.4 164.309 180.902 163.919C180.604 163.684 180.302 163.45 180.007 163.215C179.912 163.14 179.813 163.064 179.718 162.988C179.103 162.499 178.497 162.01 177.898 161.521C177.769 161.415 177.642 161.31 177.513 161.204C176.905 160.705 176.303 160.206 175.71 159.707C175.549 159.572 175.386 159.436 175.226 159.3C174.602 158.772 173.984 158.244 173.377 157.715C173.333 157.678 173.292 157.64 173.249 157.602C172.667 157.094 172.098 156.586 171.531 156.078C171.334 155.901 171.13 155.725 170.934 155.548C170.176 154.862 169.433 154.175 168.702 153.488L168.668 153.456C168.004 152.831 167.351 152.205 166.71 151.578C166.54 151.412 166.376 151.245 166.208 151.079C165.767 150.645 165.326 150.21 164.896 149.775C164.855 149.734 164.816 149.692 164.776 149.651C164.615 149.489 164.46 149.325 164.301 149.162C163.861 148.711 163.426 148.259 162.997 147.807C162.79 147.59 162.587 147.372 162.384 147.154C162.18 146.936 161.971 146.718 161.77 146.5C161.58 146.294 161.396 146.087 161.208 145.88C161.044 145.7 160.88 145.52 160.718 145.34C160.213 144.778 159.716 144.215 159.227 143.652C159.192 143.611 159.155 143.57 159.12 143.53L159.097 143.503C158.59 142.916 158.096 142.327 157.607 141.737C157.474 141.577 157.342 141.416 157.211 141.255C157.057 141.068 156.901 140.881 156.749 140.694C156.475 140.355 156.207 140.015 155.938 139.675C155.876 139.597 155.813 139.519 155.751 139.44C155.377 138.963 155.007 138.484 154.643 138.005C154.584 137.927 154.53 137.849 154.472 137.772C153.875 136.981 153.29 136.188 152.724 135.391L152.72 135.385C152.708 135.369 152.698 135.353 152.686 135.337C152.142 134.57 151.613 133.8 151.098 133.027C151.049 132.953 150.995 132.88 150.946 132.805C150.829 132.629 150.721 132.451 150.605 132.275C150.245 131.725 149.891 131.174 149.542 130.621C149.455 130.482 149.362 130.346 149.276 130.207C149.188 130.065 149.108 129.922 149.021 129.78C148.671 129.209 148.328 128.637 147.993 128.062C147.891 127.888 147.782 127.716 147.681 127.541C147.638 127.467 147.6 127.391 147.557 127.317C147.08 126.484 146.615 125.646 146.163 124.804C146.155 124.789 146.147 124.774 146.139 124.759C145.811 124.145 145.494 123.527 145.181 122.907C145.097 122.741 145.015 122.574 144.932 122.408C144.828 122.198 144.721 121.989 144.618 121.779C144.474 121.484 144.336 121.186 144.195 120.89C144.109 120.708 144.021 120.527 143.936 120.344C143.639 119.71 143.35 119.073 143.066 118.433C143.056 118.41 143.047 118.386 143.036 118.363C142.948 118.162 142.865 117.96 142.778 117.759C142.559 117.249 142.34 116.738 142.129 116.224C142.017 115.952 141.91 115.677 141.801 115.404C141.662 115.055 141.518 114.708 141.383 114.357C141.352 114.278 141.325 114.196 141.294 114.116C140.963 113.254 140.641 112.387 140.334 111.513L130.009 82.1144C129.985 82.0465 129.963 81.9788 129.941 81.9113C129.885 81.7335 129.838 81.5584 129.798 81.3857C129.792 81.3562 129.788 81.328 129.782 81.2986Z" fill="white"/>
</mask>
<g mask="url(#mask0_794_25668)">
<path d="M123.508 95.2358C150.391 138.564 215.074 191.643 237.012 186.158C258.95 180.673 220.908 213.778 220.908 213.778L173.842 210.991L109.443 150.72" fill="#ED707B"/>
</g>
<path fill-rule="evenodd" clip-rule="evenodd" d="M129.782 81.2986C129.74 81.1063 129.71 80.9185 129.69 80.7343C129.684 80.6861 129.678 80.638 129.674 80.5904C129.657 80.4094 129.65 80.2276 129.653 80.0458C129.653 80.0308 129.655 80.0167 129.656 80.0022C129.657 79.9756 129.66 79.9504 129.661 79.9241C129.666 79.8372 129.669 79.7498 129.679 79.6662C129.69 79.5673 129.705 79.4707 129.723 79.3765L129.725 79.3653L129.729 79.3507C129.743 79.2784 129.759 79.2071 129.777 79.138C129.796 79.0688 129.817 78.999 129.84 78.9321C129.852 78.8957 129.866 78.8606 129.88 78.8251L129.891 78.7963C129.897 78.7807 129.902 78.7644 129.909 78.7489C129.932 78.6923 129.957 78.637 129.984 78.5832C130.009 78.5315 130.036 78.481 130.065 78.4319C130.083 78.4006 130.102 78.3709 130.122 78.341L130.132 78.3236C130.139 78.3137 130.145 78.3032 130.151 78.2936C130.181 78.2493 130.212 78.2065 130.244 78.165C130.276 78.1236 130.309 78.0838 130.344 78.0457C130.377 78.0082 130.412 77.9724 130.448 77.9378L130.449 77.9365L130.45 77.935C130.488 77.8991 130.526 77.8647 130.566 77.8319C130.606 77.7985 130.648 77.7667 130.69 77.7364C130.735 77.7053 130.78 77.676 130.827 77.6485L130.845 77.638L143.089 70.6084C142.945 70.6912 142.812 70.7914 142.693 70.9069L142.692 70.9081C142.573 71.0245 142.467 71.1539 142.377 71.2939L142.366 71.3116C142.274 71.4555 142.197 71.6079 142.135 71.7666L142.124 71.7957C142.059 71.9663 142.009 72.1421 141.973 72.3211L141.97 72.3357C141.935 72.5201 141.914 72.7067 141.905 72.8941C141.904 72.9204 141.901 72.9458 141.9 72.9725C141.894 73.1689 141.9 73.3654 141.918 73.561C141.922 73.6083 141.929 73.6567 141.934 73.7048C141.955 73.8889 141.985 74.0768 142.026 74.269C142.032 74.2981 142.036 74.3267 142.043 74.3564C142.1 74.603 142.17 74.8463 142.254 75.0851L152.579 104.483C152.887 105.357 153.209 106.224 153.539 107.087C153.704 107.518 153.875 107.946 154.046 108.374C154.155 108.648 154.262 108.922 154.374 109.194C154.585 109.709 154.804 110.221 155.025 110.731C155.111 110.931 155.193 111.133 155.281 111.332C155.573 111.997 155.873 112.658 156.181 113.315C156.266 113.497 156.354 113.678 156.44 113.859C156.681 114.367 156.927 114.874 157.177 115.378C157.26 115.544 157.342 115.71 157.426 115.876C157.746 116.511 158.074 117.144 158.409 117.774C158.858 118.616 159.323 119.454 159.802 120.287C159.945 120.536 160.093 120.784 160.239 121.033C160.575 121.607 160.917 122.179 161.265 122.749C161.438 123.03 161.612 123.311 161.788 123.592C162.135 124.144 162.489 124.695 162.849 125.243C163.014 125.495 163.176 125.747 163.344 125.997C163.862 126.772 164.393 127.544 164.936 128.313C164.947 128.329 164.957 128.344 164.968 128.36C165.535 129.157 166.121 129.951 166.717 130.742C167.137 131.299 167.561 131.855 167.996 132.41C168.058 132.488 168.121 132.566 168.183 132.645C168.6 133.173 169.025 133.7 169.457 134.226C169.588 134.386 169.72 134.547 169.852 134.707C170.348 135.305 170.85 135.903 171.365 136.499C171.401 136.541 171.44 136.584 171.476 136.626C171.963 137.188 172.459 137.749 172.963 138.309C173.125 138.49 173.29 138.671 173.454 138.851C173.84 139.276 174.232 139.7 174.628 140.123C174.832 140.341 175.036 140.56 175.242 140.778C175.67 141.229 176.104 141.68 176.544 142.13C176.704 142.294 176.86 142.458 177.022 142.622C177.492 143.1 177.974 143.577 178.457 144.054C178.624 144.218 178.786 144.383 178.955 144.548C179.607 145.186 180.272 145.823 180.948 146.459C181.678 147.146 182.422 147.832 183.18 148.518C183.374 148.694 183.577 148.871 183.774 149.047C184.342 149.556 184.912 150.065 185.495 150.573C186.143 151.139 186.802 151.705 187.47 152.27C187.631 152.406 187.794 152.543 187.957 152.679C188.549 153.177 189.148 153.674 189.755 154.172C189.885 154.279 190.014 154.386 190.145 154.492C190.836 155.056 191.538 155.62 192.25 156.184C192.548 156.42 192.852 156.657 193.153 156.893C193.648 157.282 194.146 157.67 194.651 158.059C194.977 158.311 195.307 158.562 195.638 158.814C196.133 159.191 196.632 159.569 197.136 159.946C197.477 160.201 197.819 160.456 198.163 160.711C198.675 161.09 199.192 161.47 199.714 161.85C200.058 162.1 200.401 162.351 200.749 162.602C201.267 162.975 201.793 163.349 202.32 163.724C202.703 163.995 203.082 164.266 203.469 164.538C204.022 164.926 204.586 165.316 205.149 165.706C205.516 165.96 205.88 166.213 206.251 166.468C206.88 166.898 207.52 167.33 208.161 167.762C208.481 167.977 208.794 168.192 209.116 168.408C210.084 169.055 211.065 169.703 212.059 170.354C212.13 170.399 212.2 170.438 212.27 170.481C212.435 170.582 212.6 170.678 212.766 170.766C212.856 170.814 212.946 170.862 213.036 170.907C213.095 170.936 213.153 170.965 213.212 170.992C213.333 171.049 213.454 171.101 213.575 171.151C213.621 171.169 213.667 171.19 213.712 171.208C213.878 171.272 214.043 171.33 214.207 171.381C214.24 171.391 214.272 171.398 214.305 171.407C214.437 171.446 214.569 171.481 214.701 171.51C214.757 171.523 214.812 171.533 214.868 171.544C214.978 171.565 215.087 171.584 215.196 171.599C215.255 171.607 215.313 171.614 215.372 171.62C215.483 171.632 215.594 171.639 215.705 171.644C215.756 171.646 215.807 171.649 215.858 171.65C216.017 171.652 216.176 171.648 216.333 171.634C216.93 171.587 217.51 171.41 218.032 171.114L205.788 178.143C205.266 178.439 204.686 178.617 204.089 178.663C203.932 178.677 203.773 178.681 203.613 178.679C203.563 178.679 203.512 178.675 203.462 178.673C203.351 178.669 203.239 178.662 203.127 178.65C203.069 178.644 203.011 178.636 202.952 178.628C202.843 178.614 202.733 178.595 202.623 178.573C202.567 178.562 202.512 178.553 202.457 178.54C202.325 178.51 202.193 178.476 202.06 178.437C202.028 178.427 201.995 178.42 201.963 178.41C201.798 178.359 201.633 178.301 201.468 178.237C201.422 178.219 201.376 178.199 201.331 178.18C201.21 178.13 201.088 178.078 200.967 178.022C200.909 177.994 200.85 177.965 200.791 177.936C200.736 177.908 200.68 177.884 200.624 177.855C200.59 177.837 200.556 177.814 200.521 177.796C200.356 177.707 200.192 177.612 200.027 177.512C199.988 177.488 199.949 177.469 199.91 177.444C199.878 177.424 199.846 177.404 199.815 177.383C198.819 176.733 197.838 176.084 196.872 175.437C196.548 175.221 196.233 175.005 195.912 174.789C195.274 174.359 194.635 173.928 194.009 173.499C193.634 173.243 193.268 172.987 192.898 172.731C192.337 172.343 191.776 171.955 191.224 171.567C190.838 171.297 190.46 171.026 190.079 170.756C189.705 170.49 189.325 170.224 188.955 169.959C188.802 169.849 188.654 169.74 188.502 169.63C188.156 169.38 187.814 169.131 187.472 168.881C186.95 168.501 186.432 168.121 185.918 167.741C185.573 167.486 185.23 167.23 184.889 166.974C184.386 166.598 183.887 166.221 183.394 165.845C183.063 165.593 182.733 165.341 182.407 165.09C181.9 164.699 181.4 164.309 180.902 163.919C180.604 163.684 180.302 163.45 180.007 163.215C179.912 163.14 179.813 163.064 179.718 162.988C179.103 162.499 178.497 162.01 177.898 161.521C177.769 161.415 177.642 161.31 177.513 161.204C176.905 160.705 176.303 160.206 175.71 159.707C175.549 159.572 175.386 159.436 175.226 159.3C174.602 158.772 173.984 158.244 173.377 157.715C173.333 157.678 173.292 157.64 173.249 157.602C172.667 157.094 172.098 156.586 171.531 156.078C171.334 155.901 171.13 155.725 170.934 155.548C170.176 154.862 169.433 154.175 168.702 153.488L168.668 153.456C168.004 152.831 167.351 152.205 166.71 151.578C166.54 151.412 166.376 151.245 166.208 151.079C165.767 150.645 165.326 150.21 164.896 149.775C164.855 149.734 164.816 149.692 164.776 149.651C164.615 149.489 164.46 149.325 164.301 149.162C163.861 148.711 163.426 148.259 162.997 147.807C162.79 147.59 162.587 147.372 162.384 147.154C162.18 146.936 161.971 146.718 161.77 146.5C161.58 146.294 161.396 146.087 161.208 145.88C161.044 145.7 160.88 145.52 160.718 145.34C160.213 144.778 159.716 144.215 159.227 143.652C159.192 143.611 159.155 143.57 159.12 143.53L159.097 143.503C158.59 142.916 158.096 142.327 157.607 141.737C157.474 141.577 157.342 141.416 157.211 141.255C157.057 141.068 156.901 140.881 156.749 140.694C156.475 140.355 156.207 140.015 155.938 139.675C155.876 139.597 155.813 139.519 155.751 139.44C155.377 138.963 155.007 138.484 154.643 138.005C154.584 137.927 154.53 137.849 154.472 137.772C153.875 136.981 153.29 136.188 152.724 135.391L152.72 135.385C152.708 135.369 152.698 135.353 152.686 135.337C152.142 134.57 151.613 133.8 151.098 133.027C151.049 132.953 150.995 132.88 150.946 132.805C150.829 132.629 150.721 132.451 150.605 132.275C150.245 131.725 149.891 131.174 149.542 130.621C149.455 130.482 149.362 130.346 149.276 130.207C149.188 130.065 149.108 129.922 149.021 129.78C148.671 129.209 148.328 128.637 147.993 128.062C147.891 127.888 147.782 127.716 147.681 127.541C147.638 127.467 147.6 127.391 147.557 127.317C147.08 126.484 146.615 125.646 146.163 124.804C146.155 124.789 146.147 124.774 146.139 124.759C145.811 124.145 145.494 123.527 145.181 122.907C145.097 122.741 145.015 122.574 144.932 122.408C144.828 122.198 144.721 121.989 144.618 121.779C144.474 121.484 144.336 121.186 144.195 120.89C144.109 120.708 144.021 120.527 143.936 120.344C143.639 119.71 143.35 119.073 143.066 118.433C143.056 118.41 143.047 118.386 143.036 118.363C142.948 118.162 142.865 117.96 142.778 117.759C142.559 117.249 142.34 116.738 142.129 116.224C142.017 115.952 141.91 115.677 141.801 115.404C141.662 115.055 141.518 114.708 141.383 114.357C141.352 114.278 141.325 114.196 141.294 114.116C140.963 113.254 140.641 112.387 140.334 111.513L130.009 82.1144C129.985 82.0465 129.963 81.9788 129.941 81.9113C129.885 81.7335 129.838 81.5584 129.798 81.3857C129.792 81.3562 129.788 81.328 129.782 81.2986Z" stroke="#190000" stroke-width="0.727869" stroke-linecap="round" stroke-linejoin="round"/>
<path d="M172.212 46.0182C170.766 46.1284 169.486 46.9963 168.848 48.2992L168.668 48.7232C168.601 48.8806 162.005 64.2695 145.973 69.6245L143.202 70.5489C141.963 71.1582 141.515 72.982 142.254 75.0851L152.58 104.483C161.208 129.05 178.995 148.745 212.06 170.354C213.304 171.241 214.806 171.691 216.333 171.634C217.646 171.536 218.827 170.802 219.498 169.669C235.848 143.759 239.147 122.218 230.523 97.6638L220.197 68.266C219.463 66.1751 217.811 64.5097 216.234 64.13L212.893 63.753C194.477 61.7486 177.862 48.344 177.485 48.0361C175.616 46.5749 173.844 45.8755 172.212 46.0182Z" fill="#FBD164"/>
<mask id="mask1_794_25668" style="mask-type:luminance" maskUnits="userSpaceOnUse" x="141" y="46" width="95" height="126">
<path fill-rule="evenodd" clip-rule="evenodd" d="M172.212 46.0182C170.766 46.1284 169.486 46.9963 168.848 48.2992L168.668 48.7232C168.601 48.8806 162.005 64.2695 145.973 69.6245L143.202 70.5489C141.963 71.1582 141.515 72.982 142.254 75.0851L152.58 104.483C161.208 129.05 178.995 148.745 212.06 170.354C213.304 171.241 214.806 171.691 216.333 171.634C217.646 171.536 218.827 170.802 219.498 169.669C235.848 143.759 239.147 122.218 230.523 97.6638L220.197 68.266C219.463 66.1751 217.811 64.5097 216.234 64.13L212.893 63.753C194.477 61.7486 177.862 48.344 177.485 48.0361C175.616 46.5749 173.844 45.8755 172.212 46.0182Z" fill="white"/>
</mask>
<g mask="url(#mask1_794_25668)">
<path d="M228.117 90.8144C237.004 122.396 227.365 170.608 212.059 170.354C196.754 170.1 241.486 196.038 241.486 196.038L256.085 134.918L250.122 100.083" fill="#F9B964"/>
</g>
<path fill-rule="evenodd" clip-rule="evenodd" d="M172.212 46.0182C170.766 46.1284 169.486 46.9963 168.848 48.2992L168.668 48.7232C168.601 48.8806 162.005 64.2695 145.973 69.6245L143.202 70.5489C141.963 71.1582 141.515 72.982 142.254 75.0851L152.58 104.483C161.208 129.05 178.995 148.745 212.06 170.354C213.304 171.241 214.806 171.691 216.333 171.634C217.646 171.536 218.827 170.802 219.498 169.669C235.848 143.759 239.147 122.218 230.523 97.6638L220.197 68.266C219.463 66.1751 217.811 64.5097 216.234 64.13L212.893 63.753C194.477 61.7486 177.862 48.344 177.485 48.0361C175.616 46.5749 173.844 45.8755 172.212 46.0182Z" stroke="#190000" stroke-width="0.727869" stroke-linecap="round" stroke-linejoin="round"/>
<path d="M180.903 60.2028C179.818 60.2855 178.858 60.9366 178.38 61.914L178.245 62.2321C178.195 62.3501 173.246 73.8944 161.219 77.9115L159.141 78.6049C158.211 79.062 157.875 80.4302 158.429 82.0078L166.175 104.061C172.649 122.491 185.991 137.266 210.796 153.476C211.729 154.141 212.856 154.479 214.001 154.436C214.986 154.363 215.873 153.812 216.375 152.963C228.641 133.525 231.116 117.366 224.646 98.9461L216.9 76.8927C216.453 75.4478 215.352 74.298 213.927 73.79L211.421 73.5072C197.606 72.0036 185.141 61.948 184.859 61.7169C183.457 60.6204 182.127 60.0957 180.903 60.2028Z" fill="#D3575E"/>
<mask id="mask2_794_25668" style="mask-type:luminance" maskUnits="userSpaceOnUse" x="158" y="60" width="71" height="95">
<path fill-rule="evenodd" clip-rule="evenodd" d="M180.903 60.2028C179.818 60.2855 178.858 60.9366 178.38 61.914L178.245 62.2321C178.195 62.3501 173.246 73.8944 161.219 77.9115L159.141 78.6049C158.211 79.062 157.875 80.4302 158.429 82.0078L166.175 104.061C172.649 122.491 185.991 137.266 210.796 153.476C211.729 154.141 212.856 154.479 214.001 154.436C214.986 154.363 215.873 153.812 216.375 152.963C228.641 133.525 231.116 117.366 224.646 98.9461L216.9 76.8927C216.453 75.4478 215.352 74.298 213.927 73.79L211.421 73.5072C197.606 72.0036 185.141 61.948 184.859 61.7169C183.457 60.6204 182.127 60.0957 180.903 60.2028Z" fill="white"/>
</mask>
<g mask="url(#mask2_794_25668)">
<path d="M170.492 70.6084C167.386 116.731 210.877 156.533 228.935 156.981C246.992 157.428 216.38 178.68 216.38 178.68C216.38 178.68 165.09 174.695 164.002 171.652C162.914 168.609 146.78 87.972 146.78 87.972L145.973 69.6245L170.492 70.6084" fill="#BA424D"/>
</g>
<path fill-rule="evenodd" clip-rule="evenodd" d="M180.903 60.2028C179.818 60.2855 178.858 60.9366 178.38 61.914L178.245 62.2321C178.195 62.3501 173.246 73.8944 161.219 77.9115L159.141 78.6049C158.211 79.062 157.875 80.4302 158.429 82.0078L166.175 104.061C172.649 122.491 185.991 137.266 210.796 153.476C211.729 154.141 212.856 154.479 214.001 154.436C214.986 154.363 215.873 153.812 216.375 152.963C228.641 133.525 231.116 117.366 224.646 98.9461L216.9 76.8927C216.453 75.4478 215.352 74.298 213.927 73.79L211.421 73.5072C197.606 72.0036 185.141 61.948 184.859 61.7169C183.457 60.6204 182.127 60.0957 180.903 60.2028Z" stroke="#190000" stroke-width="0.727869" stroke-linecap="round" stroke-linejoin="round"/>
<g filter="url(#filter1_f_794_25668)">
<ellipse cx="222.53" cy="94.1909" rx="36.5956" ry="6.88256" transform="rotate(74.6048 222.53 94.1909)" fill="#182240" fill-opacity="0.58"/>
</g>
<path d="M205.579 102.366L213.422 101.68C213.579 101.668 213.732 101.621 213.87 101.543L211.554 102.873C211.416 102.951 211.263 102.997 211.105 103.01L203.263 103.696L205.579 102.366Z" fill="#EFF3FC" stroke="#190000" stroke-width="0.727869" stroke-linecap="round" stroke-linejoin="round"/>
<path d="M185.142 79.9692C185.134 79.9224 185.125 79.8763 185.119 79.8304C185.103 79.7084 185.095 79.5855 185.095 79.4624C185.095 79.446 185.091 79.4275 185.092 79.4115L185.093 79.3957C185.093 79.3842 185.094 79.3735 185.095 79.362C185.097 79.3104 185.1 79.2588 185.105 79.2092C185.111 79.1596 185.119 79.1108 185.128 79.0633L185.128 79.0584V79.0555C185.137 79.0123 185.147 78.97 185.158 78.9287C185.167 78.8916 185.178 78.8555 185.19 78.8203C185.195 78.8052 185.201 78.7912 185.207 78.7761L185.213 78.7597C185.218 78.7481 185.222 78.7362 185.226 78.7248C185.239 78.6951 185.252 78.6661 185.266 78.6379C185.279 78.6107 185.293 78.5844 185.308 78.5586C185.316 78.5454 185.324 78.5328 185.332 78.5199L185.339 78.5093L185.353 78.4866C185.369 78.4635 185.385 78.4412 185.401 78.4196C185.418 78.398 185.435 78.3774 185.453 78.3578C185.469 78.3403 185.485 78.3235 185.502 78.3069L185.505 78.3042L185.508 78.3C185.528 78.2817 185.547 78.264 185.568 78.247C185.588 78.23 185.61 78.2136 185.632 78.1977C185.655 78.1817 185.679 78.1665 185.703 78.1523L185.712 78.1471L188.028 76.8172C187.953 76.8606 187.883 76.9134 187.821 76.9741L187.818 76.9771C187.757 77.0381 187.702 77.1059 187.655 77.1791L187.649 77.1896C187.601 77.2656 187.562 77.3461 187.53 77.4298L187.524 77.4459C187.489 77.5377 187.463 77.6323 187.445 77.7285L187.444 77.7332C187.426 77.8321 187.415 77.9322 187.411 78.0326C187.411 78.0437 187.409 78.0544 187.409 78.0654C187.408 78.0872 187.411 78.1113 187.411 78.1336C187.411 78.2562 187.419 78.3788 187.436 78.5004C187.442 78.5462 187.45 78.5928 187.459 78.6395C187.479 78.7544 187.506 78.8681 187.539 78.9803C187.558 79.0475 187.573 79.1133 187.597 79.1815L191.402 90.0154L189.086 91.345L185.281 80.5112C185.268 80.4741 185.256 80.4373 185.244 80.4006C185.234 80.3696 185.231 80.3407 185.223 80.31C185.19 80.1979 185.163 80.0841 185.142 79.9692V79.9692Z" fill="#EFF3FC" stroke="#190000" stroke-width="0.727869" stroke-linecap="round" stroke-linejoin="round"/>
<path d="M196.034 103.201L199.839 114.035C199.895 114.194 199.961 114.349 200.037 114.499L200.046 114.516C200.12 114.661 200.202 114.802 200.293 114.937L200.299 114.946C200.388 115.078 200.486 115.204 200.59 115.323L200.598 115.332C200.699 115.448 200.808 115.556 200.923 115.658L200.924 115.658C201.033 115.753 201.149 115.84 201.27 115.918L201.281 115.926C201.384 115.991 201.493 116.047 201.605 116.095C201.624 116.104 201.643 116.113 201.662 116.121C201.765 116.162 201.872 116.194 201.982 116.216C202.004 116.22 202.026 116.223 202.049 116.226C202.156 116.244 202.264 116.25 202.372 116.242L208.509 115.705C208.589 115.698 208.669 115.683 208.746 115.66C208.819 115.637 208.889 115.607 208.955 115.569V115.569L206.639 116.899C206.502 116.976 206.35 117.023 206.193 117.035L200.056 117.572C199.948 117.58 199.839 117.574 199.732 117.556C199.71 117.553 199.688 117.55 199.665 117.545C199.556 117.524 199.448 117.492 199.345 117.451C199.326 117.444 199.307 117.434 199.288 117.425C199.242 117.406 199.197 117.388 199.151 117.364C199.092 117.333 199.033 117.299 198.974 117.262L198.964 117.255L198.953 117.248C198.914 117.222 198.874 117.196 198.834 117.168C198.795 117.14 198.754 117.109 198.715 117.077C198.679 117.049 198.643 117.019 198.607 116.988L198.607 116.987V116.987C198.575 116.96 198.543 116.931 198.512 116.901C198.481 116.872 198.451 116.843 198.421 116.813C198.392 116.784 198.364 116.754 198.336 116.723C198.317 116.703 198.299 116.682 198.281 116.662L198.273 116.653L198.255 116.633C198.229 116.603 198.203 116.572 198.178 116.54C198.153 116.509 198.128 116.477 198.104 116.446C198.08 116.414 198.056 116.381 198.032 116.348C198.015 116.324 197.999 116.3 197.982 116.275L197.976 116.266L197.963 116.246C197.94 116.212 197.917 116.177 197.895 116.141C197.872 116.104 197.85 116.067 197.828 116.03C197.806 115.991 197.784 115.952 197.764 115.913C197.752 115.891 197.741 115.868 197.729 115.846L197.72 115.828C197.713 115.813 197.706 115.8 197.698 115.785C197.675 115.738 197.653 115.69 197.632 115.642C197.608 115.586 197.585 115.531 197.563 115.474C197.549 115.438 197.535 115.401 197.522 115.365L193.717 104.531L196.034 103.201Z" fill="#EFF3FC" stroke="#190000" stroke-width="0.727869" stroke-linecap="round" stroke-linejoin="round"/>
<path d="M188.477 76.6801C187.534 76.7626 187.141 77.8828 187.597 79.1814L191.403 90.0153L183.56 90.7014C182.62 90.7836 182.227 91.9039 182.685 93.2066L185.663 101.684C186.119 102.983 187.251 103.97 188.191 103.887L196.034 103.201L199.839 114.035C200.297 115.338 201.429 116.325 202.372 116.242L208.509 115.705C209.449 115.623 209.842 114.503 209.384 113.2L205.579 102.366L213.421 101.68C214.364 101.597 214.757 100.477 214.301 99.1786L211.323 90.7011C210.866 89.3982 209.733 88.4115 208.79 88.494L200.948 89.1802L197.142 78.3463C196.686 77.0478 195.554 76.0608 194.614 76.1432L188.477 76.6801Z" fill="#EFF3FC"/>
<mask id="mask3_794_25668" style="mask-type:luminance" maskUnits="userSpaceOnUse" x="182" y="76" width="33" height="41">
<path fill-rule="evenodd" clip-rule="evenodd" d="M188.477 76.6801C187.534 76.7626 187.141 77.8828 187.597 79.1814L191.403 90.0153L183.56 90.7014C182.62 90.7836 182.227 91.9039 182.685 93.2066L185.663 101.684C186.119 102.983 187.251 103.97 188.191 103.887L196.034 103.201L199.839 114.035C200.297 115.338 201.429 116.325 202.372 116.242L208.509 115.705C209.449 115.623 209.842 114.503 209.384 113.2L205.579 102.366L213.421 101.68C214.364 101.597 214.757 100.477 214.301 99.1786L211.323 90.7011C210.866 89.3982 209.733 88.4115 208.79 88.494L200.948 89.1802L197.142 78.3463C196.686 77.0478 195.554 76.0608 194.614 76.1432L188.477 76.6801Z" fill="white"/>
</mask>
<g mask="url(#mask3_794_25668)">
<path d="M201.337 81.5344C214.543 121.785 184.819 118.803 193.718 125.362C202.617 131.922 226.228 112.84 226.228 112.84L220.506 78.5529L197.143 78.3464" fill="#D6DCF2"/>
</g>
<path fill-rule="evenodd" clip-rule="evenodd" d="M188.477 76.6801C187.534 76.7626 187.141 77.8828 187.597 79.1814L191.403 90.0153L183.56 90.7014C182.62 90.7836 182.227 91.9039 182.685 93.2066L185.663 101.684C186.119 102.983 187.251 103.97 188.191 103.887L196.034 103.201L199.839 114.035C200.297 115.338 201.429 116.325 202.372 116.242L208.509 115.705C209.449 115.623 209.842 114.503 209.384 113.2L205.579 102.366L213.421 101.68C214.364 101.597 214.757 100.477 214.301 99.1786L211.323 90.7011C210.866 89.3982 209.733 88.4115 208.79 88.494L200.948 89.1802L197.142 78.3463C196.686 77.0478 195.554 76.0608 194.614 76.1432L188.477 76.6801Z" stroke="#190000" stroke-width="0.727869" stroke-linecap="round" stroke-linejoin="round"/>
<path d="M180.229 93.9915C180.221 93.9448 180.212 93.8985 180.206 93.8527C180.19 93.7296 180.181 93.6056 180.181 93.4815C180.181 93.4654 180.178 93.4474 180.178 93.4316L180.179 93.4164C180.179 93.4055 180.181 93.3954 180.181 93.3845C180.184 93.3318 180.186 93.2793 180.192 93.2287C180.198 93.1798 180.205 93.1323 180.214 93.0856L180.215 93.0783L180.216 93.0744C180.224 93.0308 180.234 92.9888 180.245 92.9475C180.255 92.9104 180.266 92.8741 180.278 92.8388C180.283 92.8243 180.288 92.8103 180.294 92.796L180.3 92.7796C180.304 92.7677 180.309 92.7553 180.313 92.7433C180.326 92.7135 180.339 92.6845 180.353 92.6564C180.366 92.6293 180.38 92.6028 180.395 92.5772C180.403 92.5642 180.411 92.552 180.419 92.5395L180.426 92.5285L180.44 92.5052C180.456 92.4822 180.472 92.46 180.488 92.4384C180.505 92.4169 180.522 92.3963 180.54 92.3768C180.555 92.3594 180.571 92.3431 180.588 92.327L180.591 92.3236L180.595 92.3194C180.614 92.301 180.634 92.2834 180.654 92.2666C180.675 92.2498 180.696 92.2334 180.719 92.2174C180.741 92.2013 180.765 92.1862 180.789 92.1722L180.798 92.1669L183.114 90.837C183.039 90.8804 182.97 90.9331 182.908 90.9938L182.905 90.9969C182.843 91.058 182.788 91.1257 182.742 91.1989L182.735 91.2093C182.688 91.2854 182.648 91.3659 182.616 91.4495L182.61 91.4656C182.576 91.5574 182.55 91.6519 182.532 91.748L182.531 91.7553C182.513 91.8541 182.502 91.9539 182.498 92.0542C182.498 92.065 182.496 92.0752 182.496 92.0861C182.495 92.1071 182.498 92.1298 182.498 92.1512C182.498 92.2754 182.506 92.3994 182.523 92.5224C182.529 92.5681 182.537 92.6149 182.546 92.6614C182.567 92.777 182.594 92.8915 182.627 93.0043C182.646 93.0716 182.661 93.1378 182.685 93.2063L185.663 101.684C185.719 101.842 185.785 101.996 185.86 102.146L185.869 102.164C185.943 102.308 186.025 102.448 186.116 102.583L186.122 102.593C186.211 102.724 186.308 102.85 186.412 102.969L186.42 102.978C186.521 103.093 186.63 103.202 186.746 103.303V103.303C186.854 103.398 186.97 103.485 187.091 103.563L187.103 103.57C187.206 103.635 187.314 103.692 187.426 103.74C187.445 103.748 187.464 103.758 187.483 103.766C187.586 103.807 187.693 103.839 187.802 103.86C187.824 103.865 187.847 103.867 187.869 103.871C187.975 103.889 188.084 103.894 188.192 103.887L196.034 103.201L193.718 104.531L185.875 105.217C185.767 105.224 185.659 105.219 185.552 105.201C185.53 105.197 185.508 105.194 185.486 105.19C185.376 105.169 185.269 105.137 185.166 105.095C185.147 105.088 185.129 105.078 185.11 105.07C185.065 105.05 185.019 105.033 184.974 105.009C184.915 104.978 184.855 104.944 184.797 104.908L184.786 104.9L184.775 104.893C184.736 104.868 184.696 104.842 184.657 104.814C184.617 104.785 184.577 104.754 184.537 104.723C184.501 104.694 184.465 104.665 184.43 104.634L184.429 104.633V104.633C184.397 104.605 184.365 104.576 184.334 104.547C184.303 104.517 184.273 104.489 184.244 104.459C184.214 104.428 184.186 104.399 184.158 104.369C184.14 104.349 184.122 104.329 184.104 104.308L184.096 104.299L184.077 104.278C184.051 104.248 184.026 104.217 184 104.186C183.975 104.155 183.95 104.123 183.926 104.091C183.902 104.059 183.878 104.027 183.854 103.994C183.838 103.97 183.822 103.946 183.806 103.923L183.799 103.913L183.785 103.893C183.762 103.858 183.739 103.823 183.717 103.787C183.695 103.751 183.673 103.714 183.651 103.676C183.629 103.638 183.607 103.599 183.586 103.56C183.575 103.538 183.564 103.516 183.553 103.494L183.544 103.476C183.536 103.462 183.529 103.447 183.521 103.433C183.499 103.386 183.476 103.338 183.455 103.29C183.431 103.235 183.408 103.179 183.387 103.123C183.373 103.087 183.359 103.051 183.346 103.014L180.369 94.5363C180.356 94.4991 180.343 94.462 180.332 94.4251C180.322 94.3942 180.319 94.3654 180.31 94.3347C180.277 94.2218 180.25 94.1073 180.229 93.9915V93.9915Z" fill="#EFF3FC" stroke="#190000" stroke-width="0.727869" stroke-linecap="round" stroke-linejoin="round"/>
<path d="M216.674 16.4708C216.674 16.4708 274.841 21.1735 215.94 100.274C206.293 113.23 200.818 123.203 198.322 131H248.11C261.914 83.4282 347.901 5.9035 216.674 16.4708Z" fill="#3A63E5" stroke="#190000" stroke-width="0.575212" stroke-linecap="round" stroke-linejoin="round"/>
<path d="M253.486 65.5214H241.096L250.341 43.9038H262.731L253.486 65.5214V65.5214Z" fill="#6789F4"/>
<path d="M266.805 76.3158H237.105C236.76 76.3158 236.667 75.8786 236.898 75.3388L237.092 74.8854C237.322 74.3458 237.789 73.9084 238.135 73.9084H267.834C268.18 73.9084 268.273 74.3456 268.042 74.8854L267.848 75.3388C267.617 75.8784 267.15 76.3158 266.805 76.3158Z" fill="#6789F4"/>
<path d="M263.579 83.8587H233.88C233.534 83.8587 233.441 83.4215 233.672 82.8817L233.866 82.4283C234.097 81.8888 234.564 81.4514 234.909 81.4514H264.608C264.954 81.4514 265.047 81.8886 264.816 82.4283L264.622 82.8817C264.392 83.4213 263.925 83.8587 263.579 83.8587Z" fill="#6789F4"/>
<path d="M260.353 91.4014H230.654C230.308 91.4014 230.215 90.9642 230.446 90.4245L230.64 89.9711C230.871 89.4315 231.338 88.9941 231.683 88.9941H261.383C261.728 88.9941 261.821 89.4313 261.59 89.9711L261.397 90.4245C261.166 90.9641 260.699 91.4014 260.353 91.4014Z" fill="#6789F4"/>
<path d="M257.127 98.9441H227.428C227.083 98.9441 226.99 98.507 227.22 97.9672L227.414 97.5137C227.645 96.9743 228.112 96.5369 228.458 96.5369H258.157C258.502 96.5369 258.596 96.974 258.365 97.5137L258.171 97.9672C257.94 98.5067 257.473 98.9441 257.127 98.9441Z" fill="#6789F4"/>
<path d="M237.019 109.055H223.105C222.759 109.055 222.666 108.618 222.897 108.078L223.091 107.624C223.322 107.085 223.789 106.647 224.134 106.647H238.049C238.395 106.647 238.488 107.085 238.257 107.624L238.063 108.078C237.832 108.617 237.365 109.055 237.019 109.055Z" fill="#6789F4"/>
</g>
<defs>
<filter id="filter0_f_794_25668" x="112.658" y="70.3687" width="77.7053" height="110.927" filterUnits="userSpaceOnUse" color-interpolation-filters="sRGB">
<feFlood flood-opacity="0" result="BackgroundImageFix"/>
<feBlend mode="normal" in="SourceGraphic" in2="BackgroundImageFix" result="shape"/>
<feGaussianBlur stdDeviation="7.7" result="effect1_foregroundBlur_794_25668"/>
</filter>
<filter id="filter1_f_794_25668" x="195.364" y="43.4604" width="54.3323" height="101.461" filterUnits="userSpaceOnUse" color-interpolation-filters="sRGB">
<feFlood flood-opacity="0" result="BackgroundImageFix"/>
<feBlend mode="normal" in="SourceGraphic" in2="BackgroundImageFix" result="shape"/>
<feGaussianBlur stdDeviation="7.7" result="effect1_foregroundBlur_794_25668"/>
</filter>
<clipPath id="clip0_794_25668">
<rect width="311" height="147" fill="white"/>
</clipPath>
</defs>
</svg>
