<svg width="311" height="189" viewBox="0 0 311 189" fill="none" xmlns="http://www.w3.org/2000/svg">
<g clip-path="url(#clip0_794_25115)">
<path d="M259.867 169.899H172.401C166.096 169.899 160.985 164.788 160.985 158.484V31.9369C160.985 25.6324 166.096 20.5215 172.401 20.5215H259.867C266.171 20.5215 271.282 25.6324 271.282 31.9369V158.484C271.282 164.788 266.171 169.899 259.867 169.899V169.899Z" fill="#758CE7"/>
<mask id="mask0_794_25115" style="mask-type:luminance" maskUnits="userSpaceOnUse" x="160" y="20" width="112" height="150">
<path fill-rule="evenodd" clip-rule="evenodd" d="M259.867 169.899H172.401C166.096 169.899 160.985 164.788 160.985 158.484V31.9369C160.985 25.6324 166.096 20.5215 172.401 20.5215H259.867C266.171 20.5215 271.282 25.6324 271.282 31.9369V158.484C271.282 164.788 266.171 169.899 259.867 169.899V169.899Z" fill="white"/>
</mask>
<g mask="url(#mask0_794_25115)">
<path d="M148.436 156.359C186.21 188.41 213.114 153.497 240.584 160.938C268.054 168.379 232.192 110.928 253.843 109.319C275.494 107.71 271.282 158.483 271.282 158.483L260.613 190.536L136.417 175.644L127.832 160.366" fill="#3152BA"/>
</g>
<path fill-rule="evenodd" clip-rule="evenodd" d="M259.867 169.899H172.401C166.096 169.899 160.985 164.788 160.985 158.484V31.9369C160.985 25.6324 166.096 20.5215 172.401 20.5215H259.867C266.171 20.5215 271.282 25.6324 271.282 31.9369V158.484C271.282 164.788 266.171 169.899 259.867 169.899V169.899Z" stroke="#190000" stroke-width="0.741439" stroke-linecap="round" stroke-linejoin="round"/>
<path d="M257.96 153.358H174.307C171.67 153.358 169.532 151.221 169.532 148.584V38.1192C169.532 35.4821 171.67 33.3443 174.307 33.3443H257.96C260.597 33.3443 262.735 35.4821 262.735 38.1192V148.584C262.735 151.221 260.597 153.358 257.96 153.358Z" fill="white" stroke="#190000" stroke-width="0.741439" stroke-linecap="round" stroke-linejoin="round"/>
<rect opacity="0.44" x="179.986" y="49.1664" width="10.3867" height="10.3867" rx="2.77823" fill="#C5CBE4" stroke="#637391" stroke-width="0.741439" stroke-linecap="round" stroke-linejoin="round"/>
<rect opacity="0.44" x="193.959" y="50.5933" width="52.0848" height="7.53339" rx="2.77823" fill="#C5CBE4" stroke="#637391" stroke-width="0.741439" stroke-linecap="round" stroke-linejoin="round"/>
<rect opacity="0.44" x="179.986" y="67.4862" width="10.3867" height="10.3867" rx="2.77823" fill="#C5CBE4" stroke="#637391" stroke-width="0.741439" stroke-linecap="round" stroke-linejoin="round"/>
<rect opacity="0.44" x="193.959" y="68.9129" width="29.8824" height="7.53339" rx="2.77823" fill="#C5CBE4" stroke="#637391" stroke-width="0.741439" stroke-linecap="round" stroke-linejoin="round"/>
<rect opacity="0.44" x="179.986" y="85.8061" width="10.3867" height="10.3867" rx="1.11527" fill="#8CC3FC" stroke="#190000" stroke-width="0.741439" stroke-linecap="round" stroke-linejoin="round"/>
<rect opacity="0.44" x="193.959" y="87.2328" width="52.0848" height="7.53339" rx="2.77823" fill="#C5CBE4" stroke="#637391" stroke-width="0.741439" stroke-linecap="round" stroke-linejoin="round"/>
<rect opacity="0.44" x="179.986" y="104.126" width="10.3867" height="10.3867" rx="2.77823" fill="#C5CBE4" stroke="#637391" stroke-width="0.741439" stroke-linecap="round" stroke-linejoin="round"/>
<rect opacity="0.44" x="193.959" y="105.552" width="41.753" height="7.53339" rx="2.77823" fill="#C5CBE4" stroke="#637391" stroke-width="0.741439" stroke-linecap="round" stroke-linejoin="round"/>
<rect opacity="0.44" x="179.986" y="122.445" width="10.3867" height="10.3867" rx="1.11527" fill="#8CC3FC" stroke="#190000" stroke-width="0.741439" stroke-linecap="round" stroke-linejoin="round"/>
<rect opacity="0.44" x="193.959" y="123.872" width="31.3663" height="7.53339" rx="2.77823" fill="#C5CBE4" stroke="#637391" stroke-width="0.741439" stroke-linecap="round" stroke-linejoin="round"/>
<path d="M182.618 115.432C177.561 114.178 171.919 113.545 165.909 114.127C160.788 121.314 155.198 129.723 155.342 116.407C138.339 122.168 119.578 139.022 103.184 178.312C137.346 150.126 157.607 153.337 176.511 148.107C173.217 140.683 165.677 133.686 165.677 133.686C165.677 133.686 174.541 138.098 181.386 146.536C185.739 144.92 189.848 142.711 193.597 139.97C191.269 134.991 187.302 131.001 187.302 131.001C190.766 132.743 194.049 134.825 197.103 137.215C200.179 134.611 203.334 131.443 206.616 127.553C206.616 127.553 200.556 122.173 190.895 118.169C184.032 121.091 176.014 122.502 182.618 115.432Z" fill="#1AB995"/>
<mask id="mask1_794_25115" style="mask-type:luminance" maskUnits="userSpaceOnUse" x="103" y="113" width="104" height="66">
<path fill-rule="evenodd" clip-rule="evenodd" d="M182.618 115.432C177.561 114.178 171.919 113.545 165.909 114.127C160.788 121.314 155.198 129.723 155.342 116.407C138.339 122.168 119.578 139.022 103.184 178.312C137.346 150.126 157.607 153.337 176.511 148.107C173.217 140.683 165.677 133.686 165.677 133.686C165.677 133.686 174.541 138.098 181.386 146.536C185.739 144.92 189.848 142.711 193.597 139.97C191.269 134.991 187.302 131.001 187.302 131.001C190.766 132.743 194.049 134.825 197.103 137.215C200.179 134.611 203.334 131.443 206.616 127.553C206.616 127.553 200.556 122.173 190.895 118.169C184.032 121.091 176.014 122.502 182.618 115.432Z" fill="white"/>
</mask>
<g mask="url(#mask1_794_25115)">
<path d="M219.414 139.345L206.616 127.553C206.616 127.553 151.461 109.369 103.184 178.312C54.907 247.255 134.794 202.846 134.794 202.846L164.122 169.991L206.947 137.492" fill="#0FA379"/>
</g>
<path fill-rule="evenodd" clip-rule="evenodd" d="M182.618 115.432C177.561 114.178 171.919 113.545 165.909 114.127C160.788 121.314 155.198 129.723 155.342 116.407C138.339 122.168 119.578 139.022 103.184 178.312C137.346 150.126 157.607 153.337 176.511 148.107C173.217 140.683 165.677 133.686 165.677 133.686C165.677 133.686 174.541 138.098 181.386 146.536C185.739 144.92 189.848 142.711 193.597 139.97C191.269 134.991 187.302 131.001 187.302 131.001C190.766 132.743 194.049 134.825 197.103 137.215C200.179 134.611 203.334 131.443 206.616 127.553C206.616 127.553 200.556 122.173 190.895 118.169C184.032 121.091 176.014 122.502 182.618 115.432Z" stroke="black" stroke-width="0.498761" stroke-linecap="round" stroke-linejoin="round"/>
<path d="M128.298 146.591C129.63 144.325 131.555 142.464 133.865 141.209" stroke="black" stroke-width="0.498761"/>
<path d="M179.883 128.956L181.644 129.361" stroke="black" stroke-width="0.498761"/>
<path d="M122.431 154.076C150.05 151.203 185.979 121.674 158.189 112.849C158.189 112.849 194.091 100.74 166.709 87.9979C166.709 87.9979 189.858 69.5113 162.706 68.6244C162.706 68.6244 173.336 46.244 161.735 43.836C149.258 41.2466 146.204 63.6741 146.204 63.6741C146.204 63.6741 124.554 55.4425 131.291 78.4913C131.291 78.4913 107.974 74.0465 119.135 98.9619C119.135 98.9619 86.2784 98.596 108.72 135.715C120.463 155.138 122.431 154.076 122.431 154.076Z" fill="#1AB995"/>
<mask id="mask2_794_25115" style="mask-type:luminance" maskUnits="userSpaceOnUse" x="100" y="43" width="78" height="112">
<path fill-rule="evenodd" clip-rule="evenodd" d="M122.431 154.076C150.05 151.203 185.979 121.674 158.189 112.849C158.189 112.849 194.091 100.74 166.709 87.9979C166.709 87.9979 189.858 69.5113 162.706 68.6244C162.706 68.6244 173.336 46.244 161.735 43.836C149.258 41.2466 146.204 63.6741 146.204 63.6741C146.204 63.6741 124.554 55.4425 131.291 78.4913C131.291 78.4913 107.974 74.0465 119.135 98.9619C119.135 98.9619 86.2784 98.596 108.72 135.715C120.463 155.138 122.431 154.076 122.431 154.076Z" fill="white"/>
</mask>
<g mask="url(#mask2_794_25115)">
<path d="M60.3177 3.3532C97.5436 -18.6376 120.258 -1.64791 96.5864 30.2409C72.9153 62.1296 113.742 30.9858 125.976 26.327C125.976 26.327 76.8714 61.7957 126.084 50.506C175.296 39.2162 115.085 59.8639 135.624 80.2441C156.163 100.624 65.458 92.2118 61.6596 91.5961C57.8612 90.9804 58.4706 14.7484 58.4706 14.7484" fill="#0FA379"/>
<path d="M120.993 158.161C144.659 109.396 180.894 127.186 169.372 165.192C157.85 203.198 185.773 160.104 195.717 151.59C195.717 151.59 161.462 201.548 203.978 174.314C246.493 147.08 196.782 186.835 222.994 199.089C249.205 211.343 160.982 234.032 157.198 234.734C153.415 235.436 128.264 163.47 128.264 163.47" fill="#0FA379"/>
</g>
<path fill-rule="evenodd" clip-rule="evenodd" d="M122.431 154.076C150.05 151.203 185.979 121.674 158.189 112.849C158.189 112.849 194.091 100.74 166.709 87.9979C166.709 87.9979 189.858 69.5113 162.706 68.6244C162.706 68.6244 173.336 46.244 161.735 43.836C149.258 41.2466 146.204 63.6741 146.204 63.6741C146.204 63.6741 124.554 55.4425 131.291 78.4913C131.291 78.4913 107.974 74.0465 119.135 98.9619C119.135 98.9619 86.2784 98.596 108.72 135.715C120.463 155.138 122.431 154.076 122.431 154.076Z" stroke="black" stroke-width="0.498761" stroke-linecap="round" stroke-linejoin="round"/>
<path d="M156.525 53.8794C156.226 60.5793 126.341 149.467 122.431 154.076V154.076C122.431 154.076 153.241 66.4269 156.525 53.8794Z" fill="#0FA379"/>
<path d="M135.416 67.7892C139.964 77.3681 143.232 80.215 143.232 80.215L135.416 67.7892Z" fill="#0FA379"/>
<path d="M166.95 74.0864C157.593 79.0745 154.9 82.4709 154.9 82.4709L166.95 74.0864Z" fill="#0FA379"/>
<path d="M120.993 84.4095C131.733 96.8088 137.587 99.8224 137.587 99.8224L120.993 84.4095Z" fill="#0FA379"/>
<path d="M112.166 109.396C122.906 121.796 128.76 124.809 128.76 124.809L112.166 109.396Z" fill="#0FA379"/>
<path d="M148.961 102.447L169.141 96.9919C154.242 99.026 148.961 102.447 148.961 102.447Z" fill="#0FA379"/>
<path d="M139.051 126.063L159.231 120.609C144.332 122.643 139.051 126.063 139.051 126.063Z" fill="#0FA379"/>
<path d="M119.03 129.066C119.464 129.872 120.129 130.529 120.94 130.954" stroke="black" stroke-width="0.498761"/>
<path d="M145.3 113.581L150.364 111.373" stroke="black" stroke-width="0.498761"/>
<path d="M143.71 69.5968C144.094 70.3874 144.31 71.249 144.343 72.1272" stroke="black" stroke-width="0.498761"/>
<path d="M23 139.735C38.3387 146.465 63.6825 186.412 110.867 157.908C110.867 157.908 82.5106 101.07 23 139.735Z" fill="#1AB995"/>
<mask id="mask3_794_25115" style="mask-type:luminance" maskUnits="userSpaceOnUse" x="23" y="126" width="88" height="43">
<path fill-rule="evenodd" clip-rule="evenodd" d="M23 139.735C38.3387 146.465 63.6825 186.412 110.867 157.908C110.867 157.908 82.5106 101.07 23 139.735Z" fill="white"/>
</mask>
<g mask="url(#mask3_794_25115)">
<path d="M56.6464 137.116C66.2262 161.24 90.5369 164.095 74.3019 167.855C58.0668 171.615 99.3877 175.697 99.3877 175.697L106.393 168.097L80.4977 146.52" fill="#0FA379"/>
</g>
<path fill-rule="evenodd" clip-rule="evenodd" d="M23 139.735C38.3387 146.465 63.6825 186.412 110.867 157.908C110.867 157.908 82.5106 101.07 23 139.735Z" stroke="black" stroke-width="0.498761" stroke-linecap="round" stroke-linejoin="round"/>
<path d="M107.214 157.015C84.1144 152.282 52.8094 142.075 52.8094 142.075C52.8094 142.075 98.1378 149.047 107.214 157.015Z" fill="#0FA379"/>
<path d="M70.9298 81.6335C73.4933 98.1865 53.4154 141.023 102.806 165.507C102.806 165.507 135.512 111.056 70.9298 81.6335Z" fill="#1AB995"/>
<mask id="mask4_794_25115" style="mask-type:luminance" maskUnits="userSpaceOnUse" x="69" y="81" width="43" height="85">
<path fill-rule="evenodd" clip-rule="evenodd" d="M70.9298 81.6335C73.4933 98.1865 53.4154 141.023 102.806 165.507C102.806 165.507 135.512 111.056 70.9298 81.6335Z" fill="white"/>
</mask>
<g mask="url(#mask4_794_25115)">
<path d="M53.4811 102.975C80.3781 94.081 106.612 116.791 101.051 100.28C95.4894 83.7694 114.433 118.047 114.433 118.047C114.433 118.047 112.308 131.106 110.893 129.705C109.479 128.304 67.08 114.045 67.08 114.045" fill="#0FA379"/>
</g>
<path fill-rule="evenodd" clip-rule="evenodd" d="M70.9298 81.6335C73.4933 98.1865 53.4154 141.023 102.806 165.507C102.806 165.507 135.512 111.056 70.9298 81.6335Z" stroke="black" stroke-width="0.498761" stroke-linecap="round" stroke-linejoin="round"/>
<path d="M101.596 161.947C93.1789 139.921 84.9702 108.033 84.9702 108.033C84.9702 108.033 103.441 150.01 101.596 161.947Z" fill="#1AB995" stroke="black" stroke-width="0.498761" stroke-linecap="round" stroke-linejoin="round"/>
<path d="M33.1603 111.41C51.9259 125.783 64.0275 185.942 134.519 162.915C134.519 162.915 122.771 78.6585 33.1603 111.41Z" fill="#1AB995"/>
<mask id="mask5_794_25115" style="mask-type:luminance" maskUnits="userSpaceOnUse" x="33" y="103" width="102" height="66">
<path fill-rule="evenodd" clip-rule="evenodd" d="M33.1603 111.41C51.9259 125.783 64.0275 185.942 134.519 162.915C134.519 162.915 122.771 78.6585 33.1603 111.41Z" fill="white"/>
</mask>
<g mask="url(#mask5_794_25115)">
<path d="M61.2735 164.824C157.208 160.238 104.162 101.089 54.4865 105.449C4.81062 109.808 134.487 72.0138 134.487 72.0138L169.367 105.488L119.742 188.817L85.6937 184.309" fill="#0FA379"/>
</g>
<path fill-rule="evenodd" clip-rule="evenodd" d="M33.1603 111.41C51.9259 125.783 64.0275 185.942 134.519 162.915C134.519 162.915 122.771 78.6585 33.1603 111.41Z" stroke="black" stroke-width="0.498761" stroke-linecap="round" stroke-linejoin="round"/>
<path d="M129.866 160.462C100.204 146.2 60.9896 121.689 60.9896 121.689C60.9896 121.689 119.796 146.511 129.866 160.462Z" fill="#0FA379"/>
<path d="M45.6671 149.363C46.8268 149.655 48.0239 149.77 49.218 149.705" stroke="black" stroke-width="0.498761"/>
<path d="M91.2094 125.704C90.8848 122.665 89.8314 119.75 88.1387 117.205" stroke="black" stroke-width="0.498761"/>
<path d="M77.9116 146.11C79.082 146.644 80.3688 146.871 81.651 146.77" stroke="black" stroke-width="0.498761"/>
<path d="M83.7983 94.4631L83.6017 94.1912" stroke="black" stroke-width="0.498761"/>
<path d="M52.2179 116.06L52.9206 116.173" stroke="black" stroke-width="0.498761"/>
<path d="M76.7269 131.586L69.2085 225.834C60.2443 252.606 64.871 288.511 57.9309 304.574L49.1113 325.992C49.1113 325.992 61.401 325.677 61.8347 325.992C62.2684 326.307 66.0981 317.494 66.3168 311.189C66.9282 293.563 84.7934 251.889 86.2694 226.464C87.4966 205.326 94.6553 131.031 94.6553 131.031L76.7269 131.586Z" fill="#FACCC4"/>
<path fill-rule="evenodd" clip-rule="evenodd" d="M76.7269 131.586L69.2085 225.834C60.2443 252.606 64.871 288.511 57.9309 304.574L49.1113 325.992C49.1113 325.992 61.401 325.677 61.8347 325.992C62.2684 326.307 66.0981 317.494 66.3168 311.189C66.9282 293.563 84.7934 251.889 86.2694 226.464C87.4966 205.326 94.6553 131.031 94.6553 131.031L76.7269 131.586Z" stroke="black" stroke-width="0.498761" stroke-linecap="round" stroke-linejoin="round"/>
<path d="M100.583 141.74C100.583 141.74 98.7037 213.078 94.6553 222.527C90.607 231.976 94.5107 279.22 89.3057 291.976L92.9481 302.37L107.957 307.567L110.993 302.842C110.993 302.842 100.378 294.72 100.149 291.976C101.017 272.606 111.861 231.976 110.993 214.023C110.126 196.071 114.897 137.488 114.897 137.488L100.583 141.74Z" fill="#FACCC4"/>
<path fill-rule="evenodd" clip-rule="evenodd" d="M100.583 141.74C100.583 141.74 98.7037 213.078 94.6553 222.527C90.607 231.976 94.5107 279.22 89.3057 291.976L92.9481 302.37L107.957 307.567L110.993 302.842C110.993 302.842 100.378 294.72 100.149 291.976C101.017 272.606 111.861 231.976 110.993 214.023C110.126 196.071 114.897 137.488 114.897 137.488L100.583 141.74Z" stroke="black" stroke-width="0.498761" stroke-linecap="round" stroke-linejoin="round"/>
<path d="M121.368 124.586L129.934 120.538L123.428 107.092L120.245 71.6949C120.011 67.6306 117.677 64.5793 116.262 62.6927V62.6927L105.269 79.2909L116.054 116.345L121.368 124.586Z" fill="white"/>
<mask id="mask6_794_25115" style="mask-type:luminance" maskUnits="userSpaceOnUse" x="105" y="62" width="25" height="63">
<path fill-rule="evenodd" clip-rule="evenodd" d="M121.368 124.586L129.934 120.538L123.428 107.092L120.245 71.6949C120.011 67.6306 117.677 64.5793 116.262 62.6927V62.6927L105.269 79.2909L116.054 116.345L121.368 124.586Z" fill="white"/>
</mask>
<g mask="url(#mask6_794_25115)">
<path d="M116.054 71.8462C116.67 95.7928 122.56 124.586 122.56 124.586L111.187 122.142L110.01 109.47L116.054 71.8462Z" fill="#D6DCF2"/>
<path d="M115.464 80.6918C119.545 76.8344 121.412 112.241 121.453 122.866C121.494 133.49 111.509 113.273 111.509 113.273" fill="#D6DCF2"/>
<path d="M113.397 116.868C119.146 118.31 129.035 110.77 129.035 110.77" stroke="#D6DCF2" stroke-width="0.498761" stroke-linecap="round" stroke-linejoin="round"/>
</g>
<path fill-rule="evenodd" clip-rule="evenodd" d="M121.368 124.586L129.934 120.538L123.428 107.092L120.245 71.6949C120.011 67.6306 117.677 64.5793 116.262 62.6927V62.6927L105.269 79.2909L116.054 116.345L121.368 124.586Z" stroke="black" stroke-width="0.498761" stroke-linecap="round" stroke-linejoin="round"/>
<path d="M63.7142 69.39L64.8547 61.2289C65.2513 58.4642 67.1803 56.163 69.8334 55.2897C79.2069 52.1642 100.892 49.5328 114.202 63.1189C114.202 63.1189 116.054 115.063 117.172 119.131C118.551 124.143 84.1788 129.609 76.7269 115.5C76.7269 115.5 74.2689 78.4199 63.7142 69.39Z" fill="#ED707B"/>
<mask id="mask7_794_25115" style="mask-type:luminance" maskUnits="userSpaceOnUse" x="63" y="52" width="55" height="73">
<path fill-rule="evenodd" clip-rule="evenodd" d="M63.7142 69.39L64.8547 61.2289C65.2513 58.4642 67.1803 56.163 69.8334 55.2897C79.2069 52.1642 100.892 49.5328 114.202 63.1189C114.202 63.1189 116.054 115.063 117.172 119.131C118.551 124.143 84.1788 129.609 76.7269 115.5C76.7269 115.5 74.2689 78.4199 63.7142 69.39Z" fill="white"/>
</mask>
<g mask="url(#mask7_794_25115)">
<ellipse cx="92.6427" cy="56.3427" rx="8.04895" ry="13.8959" transform="rotate(-73.0272 92.6427 56.3427)" fill="#FACCC4" stroke="black" stroke-width="0.498761" stroke-linecap="round" stroke-linejoin="round"/>
<path d="M76.7269 73.087C75.8647 92.5307 89.7753 127.64 116.054 123.188C142.332 118.736 71.8833 129.913 71.8833 129.913L60.3912 103.598L66.5435 88.163L76.7269 73.087Z" fill="url(#paint0_linear_794_25115)"/>
</g>
<path d="M116.201 78.5082C118.728 125.766 134.548 164.03 113.012 224.934C113.012 224.934 92.6614 237.213 71.8833 233.12C51.1052 229.027 84.4915 75.0289 84.4915 75.0289L96.7598 65.0446L103.003 60.3517L103.677 56.1947C114.291 57.5058 117.5 64.5928 117.5 64.5928" fill="white"/>
<mask id="mask8_794_25115" style="mask-type:luminance" maskUnits="userSpaceOnUse" x="65" y="56" width="60" height="178">
<path fill-rule="evenodd" clip-rule="evenodd" d="M116.201 78.5082C118.728 125.766 134.548 164.03 113.012 224.934C113.012 224.934 92.6614 237.213 71.8833 233.12C51.1052 229.027 84.4915 75.0289 84.4915 75.0289L96.7598 65.0446L103.003 60.3517L103.677 56.1947C114.291 57.5058 117.5 64.5928 117.5 64.5928" fill="white"/>
</mask>
<g mask="url(#mask8_794_25115)">
<path d="M138.896 136.73L142.469 161.643L115.173 164.46L112.973 136.577L138.896 136.73V136.73Z" fill="white" stroke="black" stroke-width="0.498761" stroke-linecap="round" stroke-linejoin="round"/>
<path d="M140.539 135.496C140.7 136.454 141.191 143.805 141.191 143.805L112.185 143.929L111.932 135.539L140.539 135.496Z" fill="white" stroke="black" stroke-width="0.498761" stroke-linecap="round" stroke-linejoin="round"/>
<path d="M99.5125 170.829C113.756 154.798 83.7132 232.637 111.579 230.832C139.445 229.027 55.5392 243.756 55.5392 243.756L73.6166 191.167" fill="#D6DCF2"/>
</g>
<path d="M116.201 78.5082C118.728 125.766 134.548 164.03 113.012 224.934C113.012 224.934 92.6614 237.213 71.8833 233.12C51.1052 229.027 84.4915 75.0289 84.4915 75.0289L96.7598 65.0446L103.003 60.3517L103.677 56.1947C114.291 57.5058 117.5 64.5928 117.5 64.5928" stroke="black" stroke-width="0.498761" stroke-linecap="round" stroke-linejoin="round"/>
<path d="M81.4895 53.1618C81.4895 53.1618 70.5895 52.4748 66.5644 57.4796C86.4072 143.023 49.3376 119.844 58.7532 239.147C58.7532 239.147 76.7269 250.771 93.0049 237.099C93.0049 237.099 114.275 120.036 96.7598 65.0445L81.4895 53.1618Z" fill="white"/>
<mask id="mask9_794_25115" style="mask-type:luminance" maskUnits="userSpaceOnUse" x="57" y="53" width="47" height="191">
<path fill-rule="evenodd" clip-rule="evenodd" d="M81.4895 53.1618C81.4895 53.1618 70.5895 52.4748 66.5644 57.4796C86.4072 143.023 49.3376 119.844 58.7532 239.147C58.7532 239.147 76.7269 250.771 93.0049 237.099C93.0049 237.099 114.275 120.036 96.7598 65.0445L81.4895 53.1618Z" fill="white"/>
</mask>
<g mask="url(#mask9_794_25115)">
<path d="M77.3259 80.0172C87.0468 77.183 63.9676 111.227 85.2776 131.675C94.2152 140.251 55.7098 136.448 55.7098 136.448L49.1113 111.098C49.1113 111.098 54.4308 84.5646 55.454 85.5525" fill="#D6DCF2"/>
<path d="M60.1877 136.086L56.6153 160.999L83.9109 163.817L86.111 135.933L60.1877 136.086V136.086Z" fill="white" stroke="black" stroke-width="0.498761" stroke-linecap="round" stroke-linejoin="round"/>
<path d="M58.5451 134.852C58.3839 135.81 57.8932 143.161 57.8932 143.161L86.8988 143.285L87.1514 134.896L58.5451 134.852Z" fill="white" stroke="black" stroke-width="0.498761" stroke-linecap="round" stroke-linejoin="round"/>
</g>
<path fill-rule="evenodd" clip-rule="evenodd" d="M81.4895 53.1618C81.4895 53.1618 70.5895 52.4748 66.5644 57.4796C86.4072 143.023 49.3376 119.844 58.7532 239.147C58.7532 239.147 76.7269 250.771 93.0049 237.099C93.0049 237.099 114.275 120.036 96.7598 65.0445L81.4895 53.1618Z" stroke="black" stroke-width="0.498761" stroke-linecap="round" stroke-linejoin="round"/>
<path d="M63.1284 133.951C63.1284 133.951 72.9709 134.814 75.7485 134.878C78.5262 134.942 85.6188 134.852 85.6188 134.852C85.6188 134.852 89.3057 140.491 93.0049 137.391C93.0049 137.391 88.2179 131.643 86.9178 131.196C85.6176 130.749 77.8758 130.557 74.0345 126.022C70.1931 121.488 63.1284 133.951 63.1284 133.951Z" fill="#FACCC4"/>
<mask id="mask10_794_25115" style="mask-type:luminance" maskUnits="userSpaceOnUse" x="63" y="125" width="31" height="14">
<path fill-rule="evenodd" clip-rule="evenodd" d="M63.1284 133.951C63.1284 133.951 72.9709 134.814 75.7485 134.878C78.5262 134.942 85.6188 134.852 85.6188 134.852C85.6188 134.852 89.3057 140.491 93.0049 137.391C93.0049 137.391 88.2179 131.643 86.9178 131.196C85.6176 130.749 77.8758 130.557 74.0345 126.022C70.1931 121.488 63.1284 133.951 63.1284 133.951Z" fill="white"/>
</mask>
<g mask="url(#mask10_794_25115)">
<path d="M67.7097 138.321C72.9857 133.958 75.6323 127.524 75.6323 127.524L64.8318 128.847" fill="#ED707B"/>
</g>
<path fill-rule="evenodd" clip-rule="evenodd" d="M63.1284 133.951C63.1284 133.951 72.9709 134.814 75.7485 134.878C78.5262 134.942 85.6188 134.852 85.6188 134.852C85.6188 134.852 89.3057 140.491 93.0049 137.391C93.0049 137.391 88.2179 131.643 86.9178 131.196C85.6176 130.749 77.8758 130.557 74.0345 126.022C70.1931 121.488 63.1284 133.951 63.1284 133.951Z" stroke="black" stroke-width="0.498761" stroke-linecap="round" stroke-linejoin="round"/>
<path d="M67.9077 56.1947C59.5671 61.9858 39.5498 106.101 39.5498 106.101C37.1915 111.57 37.3982 118.797 42.237 122.269L67.0712 139.749C67.0712 139.749 74.2689 130.803 76.7268 125.598L61.045 109.917L79.1401 78.9513" fill="white"/>
<mask id="mask11_794_25115" style="mask-type:luminance" maskUnits="userSpaceOnUse" x="38" y="56" width="42" height="84">
<path fill-rule="evenodd" clip-rule="evenodd" d="M67.9077 56.1947C59.5671 61.9858 39.5498 106.101 39.5498 106.101C37.1915 111.57 37.3982 118.797 42.237 122.269L67.0712 139.749C67.0712 139.749 74.2689 130.803 76.7268 125.598L61.045 109.917L79.1401 78.9513" fill="white"/>
</mask>
<g mask="url(#mask11_794_25115)">
<path d="M49.1112 137.488C63.1283 133.951 71.2825 115.962 71.2825 115.962" stroke="#D6DCF2" stroke-width="0.498761" stroke-linecap="round" stroke-linejoin="round"/>
</g>
<path d="M67.9077 56.1947C59.5671 61.9858 39.5498 106.101 39.5498 106.101C37.1915 111.57 37.3982 118.797 42.237 122.269L67.0712 139.749C67.0712 139.749 74.2689 130.803 76.7268 125.598L61.045 109.917L79.1401 78.9513" stroke="black" stroke-width="0.498761" stroke-linecap="round" stroke-linejoin="round"/>
<path d="M116.95 94.8893L106.018 96.5839C105.413 96.6777 104.934 96.1305 104.947 95.3617L105.086 87.4412C105.1 86.6724 105.601 85.9732 106.206 85.8795L117.137 84.1849C117.742 84.0911 118.221 84.6383 118.208 85.4071L118.069 93.3276C118.056 94.0963 117.554 94.7955 116.95 94.8893Z" fill="#1A80FD"/>
<mask id="mask12_794_25115" style="mask-type:luminance" maskUnits="userSpaceOnUse" x="104" y="84" width="15" height="13">
<path fill-rule="evenodd" clip-rule="evenodd" d="M116.95 94.8893L106.018 96.5839C105.413 96.6777 104.934 96.1305 104.947 95.3617L105.086 87.4412C105.1 86.6724 105.601 85.9732 106.206 85.8795L117.137 84.1849C117.742 84.0911 118.221 84.6383 118.208 85.4071L118.069 93.3276C118.056 94.0963 117.554 94.7955 116.95 94.8893Z" fill="white"/>
</mask>
<g mask="url(#mask12_794_25115)">
<path d="M104.299 96.2776C116.95 94.8893 117.393 95.1897 118.138 89.3673C118.884 83.545 120.252 94.3773 120.252 94.3773L116.913 97.5062L103.71 98.1295" fill="url(#paint1_linear_794_25115)"/>
</g>
<path fill-rule="evenodd" clip-rule="evenodd" d="M116.95 94.8893L106.018 96.5839C105.413 96.6777 104.934 96.1305 104.947 95.3617L105.086 87.4412C105.1 86.6724 105.601 85.9732 106.206 85.8795L117.137 84.1849C117.742 84.0911 118.221 84.6383 118.208 85.4071L118.069 93.3276C118.056 94.0963 117.554 94.7955 116.95 94.8893Z" stroke="black" stroke-width="0.498761" stroke-linecap="round" stroke-linejoin="round"/>
<ellipse cx="108.351" cy="90.5017" rx="2.45081" ry="1.83984" transform="rotate(-75.0807 108.351 90.5017)" fill="#1D62FC"/>
<path d="M116.733 87.5309L111.579 88.3298L111.59 87.7444L116.743 86.9454L116.733 87.5309V87.5309Z" fill="#1D62FC"/>
<path d="M116.698 89.5285L111.544 90.3274L111.555 89.742L116.708 88.9431L116.698 89.5285V89.5285Z" fill="#1D62FC"/>
<path d="M115.275 91.7413L111.509 92.325L111.52 91.7396L115.285 91.1558L115.275 91.7413V91.7413Z" fill="#1D62FC"/>
<path d="M113.269 84.7845L110.073 85.2799L110.105 83.4827C110.125 82.361 110.856 81.3407 111.738 81.2039V81.2039C112.621 81.0671 113.32 81.8656 113.301 82.9873L113.269 84.7845Z" fill="#FDD504"/>
<mask id="mask13_794_25115" style="mask-type:luminance" maskUnits="userSpaceOnUse" x="110" y="81" width="4" height="5">
<path fill-rule="evenodd" clip-rule="evenodd" d="M113.269 84.7845L110.073 85.2799L110.105 83.4827C110.125 82.361 110.856 81.3407 111.738 81.2039V81.2039C112.621 81.0671 113.32 81.8656 113.301 82.9873L113.269 84.7845Z" fill="white"/>
</mask>
<g mask="url(#mask13_794_25115)">
<path d="M113.564 82.9545C113.15 84.3453 110.047 84.3483 109.747 84.7931C109.447 85.2378 110.51 85.7312 110.51 85.7312L113.677 85.2402L113.681 83.4317" fill="#FCB006"/>
</g>
<path fill-rule="evenodd" clip-rule="evenodd" d="M113.269 84.7845L110.073 85.2799L110.105 83.4827C110.125 82.361 110.856 81.3407 111.738 81.2039V81.2039C112.621 81.0671 113.32 81.8656 113.301 82.9873L113.269 84.7845Z" stroke="black" stroke-width="0.498761" stroke-linecap="round" stroke-linejoin="round"/>
<path d="M115.427 86.0254L107.861 87.1983L107.898 85.0797L115.464 83.9069L115.427 86.0254V86.0254Z" fill="#FDD504" stroke="black" stroke-width="0.498761" stroke-linecap="round" stroke-linejoin="round"/>
<path d="M97.6226 51.3501C110.016 52.6213 116.054 48.4901 116.054 48.4901C105.567 41.4989 116.689 36.0967 110.016 29.7411C103.343 23.3855 108.961 13.6579 97.6226 12.1042L96.1926 16.5532C100.165 28.6289 93.6503 41.7373 93.6503 41.7373L97.6226 51.3501Z" fill="#485065" stroke="black" stroke-width="0.498761" stroke-linecap="round" stroke-linejoin="round"/>
<path d="M83.1636 60.0891L86.5003 35.62L100.046 37.9239C100.324 43.7234 102.272 56.1947 102.272 56.1947" fill="#FACCC4"/>
<mask id="mask14_794_25115" style="mask-type:luminance" maskUnits="userSpaceOnUse" x="83" y="35" width="20" height="26">
<path fill-rule="evenodd" clip-rule="evenodd" d="M83.1636 60.0891L86.5003 35.62L100.046 37.9239C100.324 43.7234 102.272 56.1947 102.272 56.1947" fill="white"/>
</mask>
<g mask="url(#mask14_794_25115)">
<path d="M84.0304 42.4631C92.3792 52.7802 99.632 48.5047 101.635 53.6344C103.637 58.764 101.635 37.9239 101.635 37.9239L95.5436 37.1055L85.1703 40.7532" fill="#ED707B"/>
</g>
<path d="M83.1636 60.0891L86.5003 35.62L100.046 37.9239C100.324 43.7234 102.272 56.1947 102.272 56.1947" stroke="black" stroke-width="0.498761" stroke-linecap="round" stroke-linejoin="round"/>
<path d="M102.628 28.9466C108.427 25.3716 109.539 33.3558 101.635 37.9239Z" fill="#FACCC4"/>
<path d="M102.628 28.9466C108.427 25.3716 109.539 33.3558 101.635 37.9239" stroke="black" stroke-width="0.498761" stroke-linecap="round" stroke-linejoin="round"/>
<path d="M103.025 22.7499C103.581 34.19 103.182 44.5179 91.6641 46.2657C80.1639 48.0108 85.9441 15.6793 85.9441 15.6793L91.823 14.6465L97.6225 15.2027L103.025 22.7499Z" fill="#FACCC4"/>
<mask id="mask15_794_25115" style="mask-type:luminance" maskUnits="userSpaceOnUse" x="84" y="14" width="20" height="33">
<path fill-rule="evenodd" clip-rule="evenodd" d="M103.025 22.7499C103.581 34.19 103.182 44.5179 91.6641 46.2657C80.1639 48.0108 85.9441 15.6793 85.9441 15.6793L91.823 14.6465L97.6225 15.2027L103.025 22.7499Z" fill="white"/>
</mask>
<g mask="url(#mask15_794_25115)">
<ellipse opacity="0.27" cx="99.6668" cy="33.894" rx="2.77438" ry="3.6434" transform="rotate(-88.9534 99.6668 33.894)" fill="#ED707B"/>
<ellipse opacity="0.27" cx="85.0373" cy="34.1464" rx="2.77429" ry="3.64328" transform="rotate(-88.9514 85.0373 34.1464)" fill="#ED707B"/>
<path d="M97.1351 31.145V31.145C96.4197 31.145 95.8397 30.5651 95.8397 29.8497V27.662C95.8397 26.9466 96.4197 26.3666 97.1351 26.3666V26.3666C97.8505 26.3666 98.4304 26.9466 98.4304 27.662V29.8497C98.4304 30.5651 97.8505 31.145 97.1351 31.145L97.1351 31.145Z" fill="#190000"/>
<path d="M87.4845 31.145V31.145C86.7691 31.145 86.1892 30.5651 86.1892 29.8497V27.662C86.1892 26.9466 86.7691 26.3666 87.4845 26.3666V26.3666C88.1999 26.3666 88.7798 26.9466 88.7798 27.662V29.8497C88.7798 30.5651 88.1999 31.145 87.4845 31.145V31.145Z" fill="#190000"/>
<path d="M97.1665 23.5162C99.8475 24.1446 99.1976 25.6224 97.4961 25.3389C95.7945 25.0553 95.4149 23.1056 97.1665 23.5162Z" fill="#190000"/>
<path d="M87.266 23.2158C84.6675 24.1272 85.2658 25.4273 86.9273 24.9636C88.5888 24.4998 88.9637 22.6204 87.266 23.2158Z" fill="#190000"/>
<path d="M91.033 31.723C90.9807 32.5973 91.75 32.2954 92.6734 32.3505C93.5968 32.4057 94.3246 32.797 94.3768 31.9228C94.4291 31.0485 93.7229 30.295 92.7995 30.2399C91.8761 30.1847 91.0852 30.8487 91.033 31.723Z" fill="#ED707B"/>
<path d="M96.4576 36.0845C95.6341 42.4527 89.5443 40.1508 89.2185 36.2405C89.205 36.0378 89.3195 35.8483 89.5053 35.7661C90.288 35.4093 92.5765 34.622 96.0933 35.5485C96.3313 35.6115 96.4866 35.84 96.4576 36.0845V36.0845Z" fill="#C1525F"/>
<mask id="mask16_794_25115" style="mask-type:luminance" maskUnits="userSpaceOnUse" x="89" y="35" width="8" height="6">
<path fill-rule="evenodd" clip-rule="evenodd" d="M96.4576 36.0845C95.6341 42.4527 89.5443 40.1508 89.2185 36.2405C89.205 36.0378 89.3195 35.8483 89.5053 35.7661C90.288 35.4093 92.5765 34.622 96.0933 35.5485C96.3313 35.6115 96.4866 35.84 96.4576 36.0845V36.0845Z" fill="white"/>
</mask>
<g mask="url(#mask16_794_25115)">
<ellipse cx="92.1432" cy="39.8122" rx="2.87311" ry="3.21903" transform="rotate(-74.033 92.1432 39.8122)" fill="#993443"/>
<path d="M95.295 35.1305C95.308 35.5479 95.2864 36.1163 95.181 36.2231C94.5313 36.8812 91.269 36.709 90.8121 36.3609C90.685 36.264 90.6229 34.919 90.6229 34.919L94.7925 34.9206" fill="white"/>
<path d="M95.295 35.1305C95.308 35.5479 95.2864 36.1163 95.181 36.2231C94.5313 36.8812 91.269 36.709 90.8121 36.3609C90.685 36.264 90.6229 34.919 90.6229 34.919L94.7925 34.9206" stroke="black" stroke-width="0.498761" stroke-linecap="round" stroke-linejoin="round"/>
</g>
</g>
<path fill-rule="evenodd" clip-rule="evenodd" d="M103.025 22.7499C103.581 34.19 103.182 44.5179 91.6641 46.2657C80.1639 48.0108 85.9441 15.6793 85.9441 15.6793L91.823 14.6465L97.6225 15.2027L103.025 22.7499Z" stroke="black" stroke-width="0.498761" stroke-linecap="round" stroke-linejoin="round"/>
<path d="M85.8956 31.8487C88.2832 34.0991 91.6992 31.8487 91.6992 31.8487C91.6992 31.8487 97.6761 34.1755 101.635 31.5792C101.635 31.5792 99.3395 38.0132 101.699 38.6142C99.1978 48.4245 87.8628 47.6571 84.4916 44.7579C81.1205 41.8587 84.5313 34.1844 84.5313 34.1844" fill="white"/>
<path d="M85.8956 31.8487C88.2832 34.0991 91.6992 31.8487 91.6992 31.8487C91.6992 31.8487 97.6761 34.1755 101.635 31.5792C101.635 31.5792 99.3395 38.0132 101.699 38.6142C99.1978 48.4245 87.8628 47.6571 84.4916 44.7579C81.1205 41.8587 84.5313 34.1844 84.5313 34.1844" stroke="black" stroke-width="0.498761" stroke-linecap="round" stroke-linejoin="round"/>
<path d="M103.899 25.3717V21.161L102.23 15.8382L96.1926 13.3755" fill="#485065"/>
<path d="M96.1926 13.3754V16.5532C96.1926 16.5532 96.272 24.2594 103.899 25.3716" fill="#485065"/>
<path d="M96.1926 13.3754V16.5532C96.1926 16.5532 96.272 24.2594 103.899 25.3716" stroke="black" stroke-width="0.498761" stroke-linecap="round" stroke-linejoin="round"/>
<path d="M87.9421 57.3719C99.4118 67.558 103.114 56.9151 103.114 56.9151V72.4708L99.3684 75.2847L96.1281 73.3235L97.6226 68.6336L94.128 64.873" fill="#1A80FD"/>
<path d="M87.9421 57.3719C99.4118 67.558 103.114 56.9151 103.114 56.9151V72.4708L99.3684 75.2847L96.1281 73.3235L97.6226 68.6336L94.128 64.873" stroke="black" stroke-width="0.498761" stroke-linecap="round" stroke-linejoin="round"/>
<path d="M83.0544 50.1855C83.0544 50.1855 80.24 51.7935 80.2845 53.0832L87.2261 70.6951L95.433 67.6129L92.9599 79.6562C92.9599 79.6562 100.458 95.0454 102.955 101.889C103.886 84.1273 100.982 70.7834 99.749 69.7201C94.1279 64.8729 91.6019 54.7285 83.0544 50.1855Z" fill="white" stroke="black" stroke-width="0.498761" stroke-linecap="round" stroke-linejoin="round"/>
<path d="M92.3792 52.7802C85.0703 54.6869 65.3565 48.829 65.3565 48.829C65.3565 48.829 73.6302 44.9946 69.9757 37.209C66.3212 29.4233 76.6491 33.8722 78.0791 22.4322C79.5091 10.9921 92.0615 7.1787 97.6226 12.1043L96.1926 16.5532C96.1926 16.5532 85.0702 16.7121 89.5191 27.1989C93.968 37.6856 83.1636 43.8823 92.3792 52.7802Z" fill="#485065" stroke="black" stroke-width="0.498761" stroke-linecap="round" stroke-linejoin="round"/>
<path d="M101.833 53.2752C101.833 53.2752 103.437 63.3555 100.16 70.6685C100.16 70.6685 101.81 93.9334 102.955 101.889L107.861 77.5018L105.863 67.4245L109.758 64.4152L104.031 55.424C104.031 55.424 102.841 53.1132 101.833 53.2752Z" fill="white" stroke="black" stroke-width="0.498761" stroke-linecap="round" stroke-linejoin="round"/>
<circle cx="103.155" cy="105.087" r="2.11396" fill="white" stroke="black" stroke-width="0.498761" stroke-linecap="round" stroke-linejoin="round"/>
<circle cx="102.101" cy="138.321" r="2.11396" fill="white" stroke="black" stroke-width="0.498761" stroke-linecap="round" stroke-linejoin="round"/>
<path d="M103.854 28.0515C103.854 28.0515 103.277 30.3297 100.983 31.9532Z" fill="#FACCC4"/>
<path d="M103.854 28.0515C103.854 28.0515 103.277 30.3297 100.983 31.9532" stroke="black" stroke-width="0.498761" stroke-linecap="round" stroke-linejoin="round"/>
<path d="M122.468 124.062C122.468 124.062 123.358 126.245 123.174 126.64C122.99 127.035 116.054 134.286 116.054 134.286C116.054 134.286 117.199 137.7 121.495 133.49C121.495 133.49 126.185 136.883 126.975 136.401C127.766 135.918 132.294 130.64 131.935 129.51C131.576 128.38 128.626 121.156 128.626 121.156L122.468 124.062Z" fill="#FACCC4"/>
<mask id="mask17_794_25115" style="mask-type:luminance" maskUnits="userSpaceOnUse" x="116" y="121" width="16" height="16">
<path fill-rule="evenodd" clip-rule="evenodd" d="M122.468 124.062C122.468 124.062 123.358 126.245 123.174 126.64C122.99 127.035 116.054 134.286 116.054 134.286C116.054 134.286 117.199 137.7 121.495 133.49C121.495 133.49 126.185 136.883 126.975 136.401C127.766 135.918 132.294 130.64 131.935 129.51C131.576 128.38 128.626 121.156 128.626 121.156L122.468 124.062Z" fill="white"/>
</mask>
<g mask="url(#mask17_794_25115)">
<path d="M122.56 124.586C129.595 121.157 130.422 125.617 130.422 125.617L129.247 119.118L126.099 118.776L119.615 123.953" fill="#ED707B"/>
</g>
<path fill-rule="evenodd" clip-rule="evenodd" d="M122.468 124.062C122.468 124.062 123.358 126.245 123.174 126.64C122.99 127.035 116.054 134.286 116.054 134.286C116.054 134.286 117.199 137.7 121.495 133.49C121.495 133.49 126.185 136.883 126.975 136.401C127.766 135.918 132.294 130.64 131.935 129.51C131.576 128.38 128.626 121.156 128.626 121.156L122.468 124.062Z" stroke="black" stroke-width="0.498761" stroke-linecap="round" stroke-linejoin="round"/>
<path d="M79.674 35.9458L79.5092 36.6051" stroke="black" stroke-width="0.498761" stroke-linecap="round" stroke-linejoin="round"/>
<path d="M109.175 45.1752L107.527 47.1529" stroke="black" stroke-width="0.498761" stroke-linecap="round" stroke-linejoin="round"/>
<path d="M60.8998 109.655L57.27 110.963" stroke="black" stroke-width="0.498761" stroke-linecap="round" stroke-linejoin="round"/>
<path d="M157.091 65.2219C157.091 56.8691 170.856 66.4145 170.856 66.4145C170.856 66.4145 190.812 90.4868 194.482 97.2612C197.318 102.495 181.722 98.5403 181.722 98.5403L173.966 91.8122C173.966 91.8122 157.091 85.7009 157.091 65.2219Z" fill="white" stroke="black" stroke-width="0.498761" stroke-linecap="round" stroke-linejoin="round"/>
<path d="M136.454 311.26C136.454 311.26 151.759 311.724 155.866 309.186C155.866 309.186 162.504 236.527 162.475 234.35L161.403 155.108H131.305C131.305 155.108 138.342 228.49 138.532 239.983C138.699 250.088 136.454 311.26 136.454 311.26Z" fill="#7A24EA"/>
<path fill-rule="evenodd" clip-rule="evenodd" d="M136.454 311.26C136.454 311.26 151.759 311.724 155.866 309.186C155.866 309.186 162.504 236.527 162.475 234.35L161.403 155.108H131.305C131.305 155.108 138.342 228.49 138.532 239.983C138.699 250.088 136.454 311.26 136.454 311.26Z" stroke="black" stroke-width="0.498761" stroke-linecap="round" stroke-linejoin="round"/>
<path d="M85.6479 316.235C93.4037 328.13 108.386 323.474 108.386 323.474C108.386 323.474 126.164 262.023 128.612 254.867C133.146 241.619 146.044 160.55 146.044 160.55L114.43 161.328C114.43 161.328 110.007 214.581 104.468 247.156L85.6479 316.235Z" fill="#7A24EA"/>
<mask id="mask18_794_25115" style="mask-type:luminance" maskUnits="userSpaceOnUse" x="85" y="160" width="62" height="165">
<path fill-rule="evenodd" clip-rule="evenodd" d="M85.6479 316.235C93.4037 328.13 108.386 323.474 108.386 323.474C108.386 323.474 126.164 262.023 128.612 254.867C133.146 241.619 146.044 160.55 146.044 160.55L114.43 161.328C114.43 161.328 110.007 214.581 104.468 247.156L85.6479 316.235Z" fill="white"/>
</mask>
<g mask="url(#mask18_794_25115)">
<path d="M76.4983 201.608C144.159 210.586 95.034 169.278 143.165 166.523C191.296 163.769 115.619 147.736 115.619 147.736L113.054 153.376L96.0589 157.356" fill="#7A24EA"/>
<path d="M76.4983 201.608C144.159 210.586 95.034 169.278 143.165 166.523C191.296 163.769 115.619 147.736 115.619 147.736L113.054 153.376L96.0589 157.356" stroke="black" stroke-width="0.498761" stroke-linecap="round" stroke-linejoin="round"/>
</g>
<path fill-rule="evenodd" clip-rule="evenodd" d="M85.6479 316.235C93.4037 328.13 108.386 323.474 108.386 323.474C108.386 323.474 126.164 262.023 128.612 254.867C133.146 241.619 146.044 160.55 146.044 160.55L114.43 161.328C114.43 161.328 110.007 214.581 104.468 247.156L85.6479 316.235Z" stroke="black" stroke-width="0.498761" stroke-linecap="round" stroke-linejoin="round"/>
<path d="M173.012 69.1468C170.538 64.7469 164.242 60.9898 149.709 57.1307L146.588 75.5552L143.963 95.7009L129.434 240.188C153.804 246.922 174.506 232.171 174.506 232.171C172.603 183.233 171.669 115.634 170.511 84.9101" fill="white"/>
<mask id="mask19_794_25115" style="mask-type:luminance" maskUnits="userSpaceOnUse" x="129" y="57" width="46" height="185">
<path fill-rule="evenodd" clip-rule="evenodd" d="M173.012 69.1468C170.538 64.7469 164.242 60.9898 149.709 57.1307L146.588 75.5552L143.963 95.7009L129.434 240.188C153.804 246.922 174.506 232.171 174.506 232.171C172.603 183.233 171.669 115.634 170.511 84.9101" fill="white"/>
</mask>
<g mask="url(#mask19_794_25115)">
<path d="M158.133 99.8967C155.728 103.103 176.593 111.587 175.37 122.81C174.148 134.033 182.344 97.1414 182.344 97.1414L163.424 94.5901" fill="#D6DCF2"/>
<path d="M197.747 179.688H166.715L167.87 152.26H198.902L197.747 179.688V179.688Z" fill="white" stroke="black" stroke-width="0.498761" stroke-linecap="round" stroke-linejoin="round"/>
<path d="M200.475 154.891L166.822 154.811L167.502 146.095H201.542L200.475 154.891V154.891Z" fill="white" stroke="black" stroke-width="0.498761" stroke-linecap="round" stroke-linejoin="round"/>
<path d="M152.992 190.678C161.824 186.185 145.171 239.357 156.735 240.036C168.299 240.714 146.044 246.005 146.044 246.005L130.148 228.384" fill="url(#paint2_linear_794_25115)"/>
</g>
<path d="M173.012 69.1468C170.538 64.7469 164.242 60.9898 149.709 57.1307L146.588 75.5552L143.963 95.7009L129.434 240.188C153.804 246.922 174.506 232.171 174.506 232.171C172.603 183.233 171.669 115.634 170.511 84.9101" stroke="black" stroke-width="0.498761" stroke-linecap="round" stroke-linejoin="round"/>
<path d="M127.824 57.1307C127.824 57.1307 105.572 61.671 100.975 74.177C120.483 157.832 90.0112 161.35 87.3314 230.614C87.3314 230.614 129.783 249.911 146.044 246.005C167.309 134.414 151.542 80.4203 151.542 80.4203L127.824 57.1307Z" fill="white"/>
<mask id="mask20_794_25115" style="mask-type:luminance" maskUnits="userSpaceOnUse" x="87" y="57" width="71" height="190">
<path fill-rule="evenodd" clip-rule="evenodd" d="M127.824 57.1307C127.824 57.1307 105.572 61.671 100.975 74.177C120.483 157.832 90.0112 161.35 87.3314 230.614C87.3314 230.614 129.783 249.911 146.044 246.005C167.309 134.414 151.542 80.4203 151.542 80.4203L127.824 57.1307Z" fill="white"/>
</mask>
<g mask="url(#mask20_794_25115)">
<path d="M153.522 101.423C166.15 113.525 77.8289 134.043 79.2495 144.149C81.5912 160.807 96.409 140.855 90.7935 124.187C86.8865 112.591 105.98 141.261 102.979 150.722C99.9773 160.184 95.1224 104.466 95.1224 104.466L108.898 88.8338L127.824 98.6635" fill="#D6DCF2"/>
</g>
<path fill-rule="evenodd" clip-rule="evenodd" d="M127.824 57.1307C127.824 57.1307 105.572 61.671 100.975 74.177C120.483 157.832 90.0112 161.35 87.3314 230.614C87.3314 230.614 129.783 249.911 146.044 246.005C167.309 134.414 151.542 80.4203 151.542 80.4203L127.824 57.1307Z" stroke="black" stroke-width="0.498761" stroke-linecap="round" stroke-linejoin="round"/>
<path d="M144.769 36.5492C143.147 42.4652 147.156 54.8314 147.156 54.8314C147.156 54.8314 154.046 65.5221 145.19 65.2154C136.334 64.9088 129.384 56.0246 129.384 56.0246L128.74 39.3031L127.824 38.2742L144.769 36.5492Z" fill="#FACCC4"/>
<mask id="mask21_794_25115" style="mask-type:luminance" maskUnits="userSpaceOnUse" x="127" y="36" width="23" height="30">
<path fill-rule="evenodd" clip-rule="evenodd" d="M144.769 36.5492C143.147 42.4652 147.156 54.8314 147.156 54.8314C147.156 54.8314 154.046 65.5221 145.19 65.2154C136.334 64.9088 129.384 56.0246 129.384 56.0246L128.74 39.3031L127.824 38.2742L144.769 36.5492Z" fill="white"/>
</mask>
<g mask="url(#mask21_794_25115)">
<path d="M128.79 39.5032C134.037 53.8555 148.718 56.7921 148.718 56.7921L145.064 41.4226C145.064 41.4226 125.564 30.6781 128.79 39.5032Z" fill="#ED707B"/>
</g>
<path fill-rule="evenodd" clip-rule="evenodd" d="M144.769 36.5492C143.147 42.4652 147.156 54.8314 147.156 54.8314C147.156 54.8314 154.046 65.5221 145.19 65.2154C136.334 64.9088 129.384 56.0246 129.384 56.0246L128.74 39.3031L127.824 38.2742L144.769 36.5492Z" stroke="black" stroke-width="0.498761" stroke-linecap="round" stroke-linejoin="round"/>
<path d="M160.639 87.0881C165.343 83.0984 165.343 79.1936 176.024 82.6241C184.963 85.495 171.291 90.2493 169.371 92.084C167.452 93.9188 141.336 115.802 135.843 115.846C130.35 115.891 108.898 86.4686 108.898 86.4686L123.261 80.7289L136.183 96.169L160.639 87.0881Z" fill="#FACCC4"/>
<mask id="mask22_794_25115" style="mask-type:luminance" maskUnits="userSpaceOnUse" x="108" y="80" width="72" height="36">
<path fill-rule="evenodd" clip-rule="evenodd" d="M160.639 87.0881C165.343 83.0984 165.343 79.1936 176.024 82.6241C184.963 85.495 171.291 90.2493 169.371 92.084C167.452 93.9188 141.336 115.802 135.843 115.846C130.35 115.891 108.898 86.4686 108.898 86.4686L123.261 80.7289L136.183 96.169L160.639 87.0881Z" fill="white"/>
</mask>
<g mask="url(#mask22_794_25115)">
<path d="M114.152 108.989C133.616 108.893 134.883 91.2965 137.444 89.2002C140.005 87.1039 117.398 93.1163 117.398 93.1163V94.9794" fill="#ED707B"/>
<path d="M164.965 84.1886C166.997 82.8269 177.519 86.735 179.743 86.6749C181.968 86.6147 177.879 88.7792 177.879 88.7792L164.291 87.697" fill="#FACCC4"/>
<path d="M164.965 84.1886C166.997 82.8269 177.519 86.735 179.743 86.6749C181.968 86.6147 177.879 88.7792 177.879 88.7792L164.291 87.697" stroke="black" stroke-width="0.498761" stroke-linecap="round" stroke-linejoin="round"/>
</g>
<path fill-rule="evenodd" clip-rule="evenodd" d="M160.639 87.0881C165.343 83.0984 165.343 79.1936 176.024 82.6241C184.963 85.495 171.291 90.2493 169.371 92.084C167.452 93.9188 141.336 115.802 135.843 115.846C130.35 115.891 108.898 86.4686 108.898 86.4686L123.261 80.7289L136.183 96.169L160.639 87.0881Z" stroke="black" stroke-width="0.498761" stroke-linecap="round" stroke-linejoin="round"/>
<path d="M149.866 19.1894C151.319 22.5917 150.51 33.3655 148.265 34.2161C146.019 35.0667 146.021 20.3235 146.021 20.3235L149.866 19.1894Z" fill="#485065" stroke="black" stroke-width="0.498761" stroke-linecap="round" stroke-linejoin="round"/>
<path d="M127.204 26.9628C127.654 40.3592 131.027 49.9989 140.523 50.4715C152.323 51.0586 149.695 22.4973 149.695 22.4973H127.204V26.9628Z" fill="#FACCC4"/>
<mask id="mask23_794_25115" style="mask-type:luminance" maskUnits="userSpaceOnUse" x="127" y="22" width="23" height="29">
<path fill-rule="evenodd" clip-rule="evenodd" d="M127.204 26.9628C127.654 40.3592 131.027 49.9989 140.523 50.4715C152.323 51.0586 149.695 22.4973 149.695 22.4973H127.204V26.9628Z" fill="white"/>
</mask>
<g mask="url(#mask23_794_25115)">
<ellipse opacity="0.27" cx="150.605" cy="37.1848" rx="3.10743" ry="2.36625" transform="rotate(-1.9151 150.605 37.1848)" fill="#ED707B"/>
<ellipse opacity="0.27" cx="135.939" cy="37.6752" rx="3.10743" ry="2.36625" transform="rotate(-1.9151 135.939 37.6752)" fill="#ED707B"/>
<path d="M147.233 34.185V34.185C146.627 34.2491 146.083 33.8091 146.019 33.2023L145.823 31.3468C145.759 30.74 146.199 30.1962 146.805 30.1321V30.1321C147.412 30.068 147.956 30.5079 148.02 31.1147L148.216 32.9703C148.28 33.5771 147.84 34.1209 147.233 34.185Z" fill="#190000"/>
<path d="M139.004 34.4295V34.4295C138.713 34.4603 138.421 34.374 138.193 34.1898C137.965 34.0055 137.82 33.7382 137.789 33.4468L137.594 31.5913C137.529 30.9845 137.969 30.4406 138.576 30.3766V30.3766C139.183 30.3125 139.727 30.7524 139.791 31.3592L139.987 33.2148C140.051 33.8216 139.611 34.3654 139.004 34.4295L139.004 34.4295Z" fill="#190000"/>
<path d="M146.806 27.5135C149.117 27.9306 148.629 29.218 147.167 29.0515C145.705 28.8849 145.296 27.2409 146.806 27.5135Z" fill="#190000"/>
<path d="M138.36 27.694C136.187 28.5847 136.754 29.6658 138.148 29.1975C139.543 28.7293 139.78 27.112 138.36 27.694Z" fill="#190000"/>
<path d="M142.389 34.5375C142.383 35.2845 143.025 34.9934 143.813 34.9997C144.602 35.006 145.24 35.3072 145.246 34.5603C145.252 33.8133 144.617 33.2027 143.828 33.1964C143.039 33.1901 142.395 33.7905 142.389 34.5375Z" fill="#ED707B"/>
<path d="M146.877 38.5286C145.945 43.9253 140.839 41.7435 140.703 38.3996C140.698 38.2264 140.803 38.0691 140.964 38.0058C141.644 37.73 143.623 37.142 146.586 38.0587C146.786 38.121 146.91 38.3214 146.877 38.5286V38.5286Z" fill="#C1525F"/>
<mask id="mask24_794_25115" style="mask-type:luminance" maskUnits="userSpaceOnUse" x="140" y="37" width="7" height="5">
<path fill-rule="evenodd" clip-rule="evenodd" d="M146.877 38.5286C145.945 43.9253 140.839 41.7435 140.703 38.3996C140.698 38.2264 140.803 38.0691 140.964 38.0058C141.644 37.73 143.623 37.142 146.586 38.0587C146.786 38.121 146.91 38.3214 146.877 38.5286V38.5286Z" fill="white"/>
</mask>
<g mask="url(#mask24_794_25115)">
<ellipse cx="143.066" cy="41.549" rx="2.45046" ry="2.74549" transform="rotate(-71.602 143.066 41.549)" fill="#993443"/>
<path d="M145.921 37.6736C145.917 38.0297 145.878 38.5133 145.784 38.6006C145.207 39.1378 142.433 38.873 142.056 38.5599C141.951 38.4727 141.947 37.3243 141.947 37.3243L145.5 37.4765" fill="white"/>
<path d="M145.921 37.6736C145.917 38.0297 145.878 38.5133 145.784 38.6006C145.207 39.1378 142.433 38.873 142.056 38.5599C141.951 38.4727 141.947 37.3243 141.947 37.3243L145.5 37.4765" stroke="black" stroke-width="0.498761" stroke-linecap="round" stroke-linejoin="round"/>
</g>
</g>
<path fill-rule="evenodd" clip-rule="evenodd" d="M127.204 26.9628C127.654 40.3592 131.027 49.9989 140.523 50.4715C152.323 51.0586 149.695 22.4973 149.695 22.4973H127.204V26.9628Z" stroke="black" stroke-width="0.498761" stroke-linecap="round" stroke-linejoin="round"/>
<path d="M125.158 37.2278C128.856 37.2278 125.429 23.5368 131.427 24.4819C137.425 25.427 152.319 28.4512 152.818 15.5982C153.318 2.74518 127.928 8.60464 124.23 15.5982C120.531 22.5917 125.158 37.2278 125.158 37.2278Z" fill="#485065" stroke="black" stroke-width="0.498761" stroke-linecap="round" stroke-linejoin="round"/>
<path d="M149.089 60.5415L153.581 66.4623L155.865 84.2948L145.394 84.7374L132.836 64.47L132.615 58.0665L140.736 61.1941L144.24 62.2705L147.569 60.812" fill="#1A80FD"/>
<path d="M149.089 60.5415L153.581 66.4623L155.865 84.2948L145.394 84.7374L132.836 64.47L132.615 58.0665L140.736 61.1941L144.24 62.2705L147.569 60.812" stroke="black" stroke-width="0.498761" stroke-linecap="round" stroke-linejoin="round"/>
<path d="M145.189 63.8563L153.534 84.7282L154.947 98.8533L151.801 97.453L142.907 83.2419L141.495 62.3102L145.189 63.8563V63.8563Z" fill="#FDD504" stroke="black" stroke-width="0.498761" stroke-linecap="round" stroke-linejoin="round"/>
<path d="M146.555 60.2981L146.268 63.5952C146.054 64.5438 141.848 67.5417 139.545 63.5324L136.273 59.7271L143.272 61.7146L146.555 60.2981Z" fill="#FDD504" stroke="black" stroke-width="0.498761" stroke-linecap="round" stroke-linejoin="round"/>
<path d="M149.274 57.3291C149.274 57.3291 148.768 54.953 146.788 53.6212C146.788 53.6212 147.419 58.558 143.272 61.7146L147.095 65.7084C147.095 65.7084 151.249 62.2595 149.274 57.3291Z" fill="#1A80FD" stroke="black" stroke-width="0.498761" stroke-linecap="round" stroke-linejoin="round"/>
<path d="M148.431 55.357C148.431 55.357 152.499 95.0085 151.433 99.1066L153.758 103.066L157.697 77.8711L154.404 72.8873L159.274 72.2252L152.335 59.213C152.335 59.213 151.004 55.8418 148.431 55.357Z" fill="white" stroke="black" stroke-width="0.498761" stroke-linecap="round" stroke-linejoin="round"/>
<path d="M127.055 55.6319C127.055 55.6319 128.258 50.6862 129.189 50.7226C129.189 50.7226 133.334 58.8884 143.272 61.7146L140.383 67.2797C140.383 67.2797 127.03 59.6871 127.055 55.6319Z" fill="#1A80FD" stroke="black" stroke-width="0.498761" stroke-linecap="round" stroke-linejoin="round"/>
<path d="M127.811 53.2868L154.233 96.9873L156.735 102.987L132.26 80.1422L134.945 74.3473L128.19 71.0052L125.625 59.0814C125.625 59.0814 124.715 54.3509 127.811 53.2868Z" fill="white" stroke="black" stroke-width="0.498761" stroke-linecap="round" stroke-linejoin="round"/>
<path d="M125.503 80.4552C132.535 87.0661 138.208 94.1247 138.208 94.1247L154.693 86.2645C160.907 92.9222 160.297 101.46 160.297 101.46C160.297 101.46 133.602 120.82 125.624 119.137C123.094 118.603 92.3318 86.1911 102.227 71.6032" fill="white"/>
<mask id="mask25_794_25115" style="mask-type:luminance" maskUnits="userSpaceOnUse" x="100" y="71" width="61" height="49">
<path fill-rule="evenodd" clip-rule="evenodd" d="M125.503 80.4552C132.535 87.0661 138.208 94.1247 138.208 94.1247L154.693 86.2645C160.907 92.9222 160.297 101.46 160.297 101.46C160.297 101.46 133.602 120.82 125.624 119.137C123.094 118.603 92.3318 86.1911 102.227 71.6032" fill="white"/>
</mask>
<g mask="url(#mask25_794_25115)">
<path d="M146.108 89.1543C143.864 91.4792 152.281 94.59 152.281 94.59C151.582 95.9239 155.568 101.259 160.779 102.462C165.99 103.664 164.226 96.3693 164.226 96.3693L155.969 93.1626L146.296 89.9178" fill="white"/>
<path d="M146.108 89.1543C143.864 91.4792 152.281 94.59 152.281 94.59C151.582 95.9239 155.568 101.259 160.779 102.462C165.99 103.664 164.226 96.3693 164.226 96.3693L155.969 93.1626L146.296 89.9178" stroke="black" stroke-width="0.498761" stroke-linecap="round" stroke-linejoin="round"/>
</g>
<path d="M125.503 80.4552C132.535 87.0661 138.208 94.1247 138.208 94.1247L154.693 86.2645C160.907 92.9222 160.297 101.46 160.297 101.46C160.297 101.46 133.602 120.82 125.624 119.137C123.094 118.603 92.3318 86.1911 102.227 71.6032" stroke="black" stroke-width="0.498761" stroke-linecap="round" stroke-linejoin="round"/>
<path d="M132.556 85.9858C132.556 85.9858 141.986 81.7767 144.467 82.04C146.948 82.3033 174.135 86.6905 179.658 89.3153C185.181 91.9401 191.885 103.448 176.517 101.974C161.15 100.5 144.602 90.7992 144.602 90.7992L138.208 94.1247L132.556 85.9858Z" fill="#FACCC4"/>
<mask id="mask26_794_25115" style="mask-type:luminance" maskUnits="userSpaceOnUse" x="132" y="82" width="54" height="21">
<path fill-rule="evenodd" clip-rule="evenodd" d="M132.556 85.9858C132.556 85.9858 141.986 81.7767 144.467 82.04C146.948 82.3033 174.135 86.6905 179.658 89.3153C185.181 91.9401 191.885 103.448 176.517 101.974C161.15 100.5 144.602 90.7992 144.602 90.7992L138.208 94.1247L132.556 85.9858Z" fill="white"/>
</mask>
<g mask="url(#mask26_794_25115)">
<path d="M155.865 84.2949C153.829 84.1496 151.825 94.932 150.022 94.6514C148.218 94.3708 155.673 97.0163 155.673 97.0163L158.679 90.8836L157.477 84.3099" fill="#ED707B"/>
</g>
<path fill-rule="evenodd" clip-rule="evenodd" d="M132.556 85.9858C132.556 85.9858 141.986 81.7767 144.467 82.04C146.948 82.3033 174.135 86.6905 179.658 89.3153C185.181 91.9401 191.885 103.448 176.517 101.974C161.15 100.5 144.602 90.7992 144.602 90.7992L138.208 94.1247L132.556 85.9858Z" stroke="black" stroke-width="0.498761" stroke-linecap="round" stroke-linejoin="round"/>
<path d="M181.434 87.8871C174.756 85.2707 166.086 83.6596 156.066 83.9129C150.65 93.2362 154.04 97.2061 154.04 97.2061C154.04 97.2061 183.172 117.167 192.889 108.417C196.57 105.104 197.555 101.312 192.52 94.1464" fill="white"/>
<mask id="mask27_794_25115" style="mask-type:luminance" maskUnits="userSpaceOnUse" x="152" y="83" width="44" height="28">
<path fill-rule="evenodd" clip-rule="evenodd" d="M181.434 87.8871C174.756 85.2707 166.086 83.6596 156.066 83.9129C150.65 93.2362 154.04 97.2061 154.04 97.2061C154.04 97.2061 183.172 117.167 192.889 108.417C196.57 105.104 197.555 101.312 192.52 94.1464" fill="white"/>
</mask>
<g mask="url(#mask27_794_25115)">
<path d="M164.131 82.0282C156.546 86.2316 160.779 102.462 160.779 102.462Z" fill="white"/>
<path d="M164.131 82.0282C156.546 86.2316 160.779 102.462 160.779 102.462" stroke="black" stroke-width="0.498761" stroke-linecap="round" stroke-linejoin="round"/>
</g>
<path d="M181.434 87.8871C174.756 85.2707 166.086 83.6596 156.066 83.9129C150.65 93.2362 154.04 97.2061 154.04 97.2061C154.04 97.2061 183.172 117.167 192.889 108.417C196.57 105.104 197.555 101.312 192.52 94.1464" stroke="black" stroke-width="0.498761" stroke-linecap="round" stroke-linejoin="round"/>
<circle cx="152.826" cy="120.419" r="2.39054" fill="white" stroke="black" stroke-width="0.498761" stroke-linecap="round" stroke-linejoin="round"/>
<circle cx="148.622" cy="165.327" r="2.39054" fill="white" stroke="black" stroke-width="0.498761" stroke-linecap="round" stroke-linejoin="round"/>
<path d="M132.112 123.641C132.382 123.845 132.634 124.073 132.864 124.321C136.889 128.628 135.619 139.537 134.779 146.757L134.599 148.315L133.36 148.194L133.54 146.631C134.304 140.066 135.583 129.079 131.95 125.192C130.966 124.135 129.691 123.671 128.054 123.768L128.002 122.513C129.615 122.417 130.993 122.797 132.112 123.641Z" fill="white"/>
<mask id="mask28_794_25115" style="mask-type:luminance" maskUnits="userSpaceOnUse" x="128" y="122" width="8" height="27">
<path fill-rule="evenodd" clip-rule="evenodd" d="M132.112 123.641C132.382 123.845 132.634 124.073 132.864 124.321C136.889 128.628 135.619 139.537 134.779 146.757L134.599 148.315L133.36 148.194L133.54 146.631C134.304 140.066 135.583 129.079 131.95 125.192C130.966 124.135 129.691 123.671 128.054 123.768L128.002 122.513C129.615 122.417 130.993 122.797 132.112 123.641Z" fill="white"/>
</mask>
<g mask="url(#mask28_794_25115)">
<path d="M133.04 147.099C134.779 146.757 134.683 146.486 135.151 145.686C135.619 144.885 136.382 147.157 136.324 147.242C136.265 147.327 134.276 148.951 134.258 148.813C134.24 148.675 132.564 147.852 132.564 147.852" fill="url(#paint3_linear_794_25115)"/>
</g>
<path fill-rule="evenodd" clip-rule="evenodd" d="M132.112 123.641C132.382 123.845 132.634 124.073 132.864 124.321C136.889 128.628 135.619 139.537 134.779 146.757L134.599 148.315L133.36 148.194L133.54 146.631C134.304 140.066 135.583 129.079 131.95 125.192C130.966 124.135 129.691 123.671 128.054 123.768L128.002 122.513C129.615 122.417 130.993 122.797 132.112 123.641Z" stroke="black" stroke-width="0.498761" stroke-linecap="round" stroke-linejoin="round"/>
<path d="M125.58 121.396L128.036 121.574C128.326 121.596 128.596 121.733 128.783 121.956C128.97 122.178 129.06 122.467 129.032 122.757L128.951 123.675C128.899 124.283 128.371 124.738 127.761 124.699L125.305 124.521C125.015 124.5 124.746 124.362 124.558 124.139C124.371 123.917 124.281 123.628 124.309 123.339L124.39 122.421C124.442 121.813 124.971 121.357 125.58 121.396V121.396Z" fill="#485065" stroke="black" stroke-width="0.498761" stroke-linecap="round" stroke-linejoin="round"/>
<path d="M121.023 159.744L120.792 160.873C119.856 165.49 118.886 170.264 115.339 172.168C112.878 173.49 110.168 173.621 105.705 171.743L106.66 170.036C110.558 171.672 112.548 171.491 114.461 170.464C117.191 168.998 118.028 164.878 118.913 160.517L119.145 159.38L121.023 159.744Z" fill="#1A80FD" stroke="black" stroke-width="0.498761" stroke-linecap="round" stroke-linejoin="round"/>
<path d="M138.551 127.286C138.219 127.217 137.881 127.177 137.542 127.166C131.63 126.964 124.165 135.063 119.224 140.422L118.157 141.578L119.061 142.429L120.132 141.27C124.624 136.397 132.142 128.241 137.479 128.423C138.926 128.47 140.114 129.123 141.112 130.416L142.101 129.633C141.117 128.36 139.927 127.573 138.551 127.286Z" fill="white" stroke="black" stroke-width="0.498761" stroke-linecap="round" stroke-linejoin="round"/>
<path d="M144.537 130.72L142.793 128.992C142.584 128.789 142.303 128.677 142.011 128.682C141.72 128.687 141.442 128.808 141.241 129.019L140.596 129.681C140.167 130.114 140.168 130.812 140.596 131.246L142.34 132.973C142.548 133.177 142.83 133.289 143.121 133.284C143.413 133.279 143.69 133.158 143.892 132.947L144.537 132.285C144.965 131.852 144.965 131.154 144.537 130.72V130.72Z" fill="#485065" stroke="black" stroke-width="0.498761" stroke-linecap="round" stroke-linejoin="round"/>
<path d="M135.129 147.592C133.815 158.527 127.856 160.965 125.355 161.505C121.116 162.421 116.677 160.423 114.557 156.641C113.358 154.503 111.301 148.72 118.058 141.215L119.469 142.503C115.311 147.121 114.13 151.919 116.231 155.667C117.979 158.746 121.518 160.342 124.984 159.613C129.402 158.658 132.405 154.204 133.225 147.392L135.129 147.592Z" fill="#1A80FD" stroke="black" stroke-width="0.498761" stroke-linecap="round" stroke-linejoin="round"/>
<path d="M104.551 177.913H137.392L140.253 150.246H109.221L104.551 177.913V177.913Z" fill="white" stroke="black" stroke-width="0.498761" stroke-linecap="round" stroke-linejoin="round"/>
<path d="M107.089 152.899L140.759 152.819L141.93 144.027H107.891L107.089 152.899V152.899Z" fill="white" stroke="black" stroke-width="0.498761" stroke-linecap="round" stroke-linejoin="round"/>
<path d="M149.944 33.5107C148.21 35.66 144.986 34.2515 144.986 34.2515C144.986 34.2515 141.616 37.6633 132.673 33.5107C132.549 33.5107 126.704 31.3344 126.704 31.3344L126.865 31.9885L131.869 35.302C131.639 37.1307 131.657 39.8871 131.064 41.3561L125.158 38.044C125.158 38.044 130.004 42.3596 129.953 42.3591C140.657 61.0161 153.56 46.9067 149.944 33.5107Z" fill="white" stroke="black" stroke-width="0.498761" stroke-linecap="round" stroke-linejoin="round"/>
<path d="M129.296 34.0669C124.105 27.7349 120.36 34.0531 123.221 37.2278C124.92 39.1135 129.714 40.363 129.714 40.363" fill="#FACCC4"/>
<path d="M129.296 34.0669C124.105 27.7349 120.36 34.0531 123.221 37.2278C124.92 39.1135 129.714 40.363 129.714 40.363" stroke="black" stroke-width="0.498761" stroke-linecap="round" stroke-linejoin="round"/>
<path d="M125.636 35.1693V35.4339" stroke="black" stroke-width="0.498761" stroke-linecap="round" stroke-linejoin="round"/>
<path d="M139.519 15.8995C140.936 16.118 142.385 16.0021 143.749 15.561" stroke="black" stroke-width="0.498761" stroke-linecap="round" stroke-linejoin="round"/>
<path d="M138.203 94.4333C137.531 96.4621 136.644 98.4133 135.557 100.254" stroke="black" stroke-width="0.498761" stroke-linecap="round" stroke-linejoin="round"/>
<g filter="url(#filter0_f_794_25115)">
<ellipse cx="217" cy="172.5" rx="56" ry="2.5" fill="#182240"/>
</g>
</g>
<defs>
<filter id="filter0_f_794_25115" x="145.6" y="154.6" width="142.8" height="35.8" filterUnits="userSpaceOnUse" color-interpolation-filters="sRGB">
<feFlood flood-opacity="0" result="BackgroundImageFix"/>
<feBlend mode="normal" in="SourceGraphic" in2="BackgroundImageFix" result="shape"/>
<feGaussianBlur stdDeviation="7.7" result="effect1_foregroundBlur_794_25115"/>
</filter>
<linearGradient id="paint0_linear_794_25115" x1="65.3736" y1="150.873" x2="67.7337" y2="146.876" gradientUnits="userSpaceOnUse">
<stop offset="0.1011" stop-color="#FF99F7"/>
<stop offset="0.8855" stop-color="#A304FF"/>
</linearGradient>
<linearGradient id="paint1_linear_794_25115" x1="101.83" y1="87.9337" x2="102.726" y2="98.6676" gradientUnits="userSpaceOnUse">
<stop stop-color="#00BEDE"/>
<stop offset="0.9965" stop-color="#4A8BFD"/>
</linearGradient>
<linearGradient id="paint2_linear_794_25115" x1="179.349" y1="184.04" x2="146.308" y2="185.157" gradientUnits="userSpaceOnUse">
<stop offset="0.1023" stop-color="white" stop-opacity="0.01"/>
<stop offset="0.8855" stop-color="#CDDEFD"/>
</linearGradient>
<linearGradient id="paint3_linear_794_25115" x1="131.037" y1="143.384" x2="131.25" y2="148.98" gradientUnits="userSpaceOnUse">
<stop offset="0.1023" stop-color="#DCDCF8"/>
<stop offset="0.8855" stop-color="#F5F6FE"/>
</linearGradient>
<clipPath id="clip0_794_25115">
<rect width="311" height="189" fill="white"/>
</clipPath>
</defs>
</svg>
