<svg width="24" height="24" viewBox="0 0 24 24" fill="none" xmlns="http://www.w3.org/2000/svg">
<path fill-rule="evenodd" clip-rule="evenodd" d="M3.04761 11.0953C3.04761 12.1472 3.9004 13 4.95237 13H7.5V18.5H4.25C3.55964 18.5 3 19.0597 3 19.75C3 20.4403 3.55964 21 4.25 21H19.75C20.4403 21 21 20.4403 21 19.75C21 19.0597 20.4403 18.5 19.75 18.5H19.5116C19.5713 18.4986 19.6316 18.4865 19.6901 18.4625C19.9455 18.3574 20.0674 18.0653 19.9625 17.8099L19.1548 15.8455C19.1277 15.7797 19.0869 15.7205 19.0351 15.6718L17.6374 14.3553L18.1066 12.5512C18.2513 12.8156 18.4023 13.0561 18.5812 13.259C18.8011 13.5083 19.0584 13.6958 19.3869 13.8188C19.7047 13.9378 20.0669 13.9882 20.4862 13.9998C20.7622 14.0075 20.9921 13.7899 20.9998 13.5139C21.0075 13.2378 20.7898 13.0079 20.5138 13.0002C20.1508 12.9902 19.9112 12.9473 19.7377 12.8823C19.5748 12.8214 19.4513 12.7338 19.3311 12.5975C19.202 12.451 19.0746 12.2465 18.9146 11.9417C18.8212 11.7638 18.7267 11.5719 18.6185 11.352C18.5373 11.1872 18.4484 11.0066 18.3464 10.8046C18.1692 10.4533 17.7955 10.2364 17.4953 10.1253C17.1924 10.0133 16.7804 9.94095 16.4321 10.0649C14.9292 10.6006 14.0791 11.7413 13.5274 13.3366C13.4372 13.5976 13.5757 13.8823 13.8366 13.9726C14.0976 14.0628 14.3823 13.9243 14.4726 13.6634C14.7771 12.7828 15.1551 12.127 15.6651 11.6605L15.5021 13.4548C15.4882 13.6077 15.5454 13.7587 15.6572 13.864L18.2709 16.3257L19.0375 18.1901C19.1154 18.3796 19.2963 18.4956 19.4888 18.5H14.0052C14.11 18.499 14.2154 18.4651 14.3048 18.3963L15.8048 17.2425C15.8877 17.1788 15.9485 17.0907 15.9787 16.9906L16.4095 15.563L15.5829 14.7803L15.4824 15.1735L15.0677 16.5478L13.6951 17.6037C13.4762 17.7721 13.4353 18.086 13.6037 18.3048C13.701 18.4315 13.8472 18.4986 13.9955 18.5H8.5V13H11.1428C12.1948 13 13.0476 12.1472 13.0476 11.0953C13.0476 10.3672 12.6391 9.7345 12.0388 9.41395C12.1036 9.1927 12.1385 8.95775 12.1385 8.71425C12.1385 7.70995 11.545 6.8509 10.7053 6.50105C10.7508 6.2941 10.7749 6.07855 10.7749 5.85715C10.7749 4.27919 9.55385 3 8.0476 3C6.54135 3 5.32035 4.27919 5.32035 5.85715C5.32035 6.07855 5.34435 6.2941 5.38985 6.50105C4.55023 6.8509 3.95669 7.70995 3.95669 8.71425C3.95669 8.95775 3.99158 9.1927 4.05641 9.41395C3.45611 9.7345 3.04761 10.3672 3.04761 11.0953ZM9.5492 7.10265L9.72865 6.2863C9.75875 6.14955 9.7749 6.006 9.7749 5.85715C9.7749 4.78712 8.9582 4 8.0476 4C7.137 4 6.32035 4.78712 6.32035 5.85715C6.32035 6.006 6.3365 6.14955 6.36655 6.2863L6.546 7.10265L5.7745 7.4241C5.31465 7.6157 4.95669 8.10585 4.95669 8.71425C4.95669 8.8619 4.9778 9.00215 5.01605 9.13275L5.2447 9.913L4.52746 10.2961C4.23977 10.4497 4.04761 10.7508 4.04761 11.0953C4.04761 11.5949 4.45269 12 4.95237 12H7.5V10.5H8.5V12H11.1428C11.6425 12 12.0476 11.5949 12.0476 11.0953C12.0476 10.7508 11.8554 10.4497 11.5677 10.2961L10.8505 9.913L11.0792 9.13275C11.1174 9.0022 11.1385 8.8619 11.1385 8.71425C11.1385 8.10585 10.7805 7.6157 10.3207 7.4241L9.5492 7.10265ZM4 19.75C4 19.6119 4.11193 19.5 4.25 19.5H19.75C19.8881 19.5 20 19.6119 20 19.75C20 19.8881 19.8881 20 19.75 20H4.25C4.11193 20 4 19.8881 4 19.75Z" fill="black"/>
<path d="M19 8.25C19 8.94035 18.4404 9.5 17.75 9.5C17.0597 9.5 16.5 8.94035 16.5 8.25C16.5 7.55965 17.0597 7 17.75 7C18.4404 7 19 7.55965 19 8.25Z" fill="black"/>
</svg>
