<svg width="24" height="24" viewBox="0 0 24 24" fill="none" xmlns="http://www.w3.org/2000/svg">
<path fill-rule="evenodd" clip-rule="evenodd" d="M7.47791 4.10551L16.4779 4.09814L16.4853 13.0982L7.48531 13.1055L7.47791 4.10551ZM13.982 9.0288C13.9828 10.0954 13.1035 10.9342 11.9835 10.9352C10.8635 10.9361 9.98281 10.0987 9.98196 9.03205C9.98106 7.9654 11.9792 5.60185 11.9792 5.60185C11.9792 5.60185 13.9812 8.0383 13.982 9.0288Z" fill="#0C112F"/>
<path d="M8.49186 13.993C8.21576 13.9933 7.99206 14.2173 7.99231 14.4934C7.99251 14.7696 8.21656 14.9933 8.49271 14.993L10.4927 14.9914C10.7689 14.9912 10.9925 14.7671 10.9923 14.491C10.9921 14.2148 10.768 13.9912 10.4919 13.9914L8.49186 13.993Z" fill="#0C112F"/>
<path d="M12.9923 14.4894C12.9921 14.2133 13.2158 13.9892 13.4919 13.989L15.4919 13.9874C15.768 13.9871 15.9921 14.2108 15.9923 14.4869C15.9925 14.7631 15.7689 14.9871 15.4927 14.9874L13.4927 14.989C13.2166 14.9892 12.9925 14.7655 12.9923 14.4894Z" fill="#0C112F"/>
<path d="M11.991 20.1019C12.5433 20.1014 12.9907 19.6533 12.9902 19.101C12.9898 18.5488 12.5417 18.1014 11.9894 18.1019C11.4371 18.1023 10.9898 18.5504 10.9902 19.1027C10.9907 19.655 11.4388 20.1023 11.991 20.1019Z" fill="#0C112F"/>
<path fill-rule="evenodd" clip-rule="evenodd" d="M6.489 17.6063L8.98895 17.6043L8.99265 22.1042L14.9927 22.0993L14.9889 17.5994L17.489 17.5973C18.3175 17.5966 18.9884 16.9245 18.9877 16.0961L18.9776 3.59606C18.9769 2.76764 18.3047 2.09662 17.4763 2.09729L6.4763 2.1063C5.6479 2.10698 4.97686 2.7791 4.97754 3.60753L4.98778 16.1076C4.98845 16.936 5.6606 17.607 6.489 17.6063ZM17.4771 3.09729L6.47715 3.1063C6.201 3.10653 5.9773 3.33057 5.97755 3.60671L5.9878 16.1067C5.988 16.3829 6.21205 16.6065 6.4882 16.6063L8.9881 16.6043L8.9873 15.6043L14.9873 15.5994L14.9881 16.5994L17.4882 16.5973C17.7643 16.5971 17.988 16.373 17.9877 16.0969L17.9776 3.59688C17.9773 3.32074 17.7533 3.09707 17.4771 3.09729ZM13.9881 16.6002L9.9881 16.6035L9.9918 21.1035L13.9918 21.1001L13.9881 16.6002Z" fill="#0C112F"/>
</svg>
