<svg width="24" height="24" viewBox="0 0 24 24" fill="none" xmlns="http://www.w3.org/2000/svg">
<path fill-rule="evenodd" clip-rule="evenodd" d="M14.5266 3.83961C15.1278 3.59925 15.7717 3.48428 16.4188 3.50173C17.0659 3.51918 17.7026 3.6687 18.2901 3.94112C18.8775 4.21346 19.4032 4.6029 19.8354 5.0856C21.0826 6.47495 21.2838 8.40735 20.6488 10.0409C19.8785 12.0227 18.405 13.8369 16.8547 15.5165C16.3065 16.1106 15.7523 16.6845 15.2109 17.2451C14.1934 18.2987 13.2211 19.3057 12.4178 20.312C12.3294 20.4227 12.1982 20.4907 12.0568 20.4991C11.9154 20.5076 11.777 20.4556 11.6761 20.3561C11.4888 20.1715 11.2947 19.9811 11.0951 19.7853C9.8525 18.5662 8.3979 17.1392 7.06265 15.6219C5.51655 13.8649 4.09485 11.9485 3.3383 10.0444C3.09885 9.4417 2.98434 8.7965 3.00172 8.14805C3.01911 7.4996 3.16802 6.86145 3.43943 6.27255C3.7108 5.68375 4.09894 5.1565 4.58027 4.72292C6.51995 2.97124 9.5084 3.2706 11.303 5.07065L12.0271 5.79695L12.9217 4.89955C13.3793 4.44065 13.9253 4.07997 14.5266 3.83961ZM16.3918 4.50137C15.8809 4.48759 15.3726 4.57835 14.8978 4.76817C14.4229 4.95798 13.9915 5.2429 13.6299 5.6056L12.3812 6.85815C12.2873 6.95225 12.1599 7.0051 12.0271 7.0051C11.8942 7.0051 11.7668 6.95225 11.673 6.85815L10.5948 5.77665C9.1245 4.30192 6.74185 4.11807 5.2503 5.46525L5.24975 5.46575C4.86927 5.8084 4.56229 6.22535 4.34762 6.69115C4.13295 7.1569 4.01512 7.66175 4.00136 8.17485C3.98761 8.6879 4.07822 9.1984 4.26763 9.6751C4.95978 11.4171 6.2898 13.2299 7.81335 14.9612C9.1223 16.4486 10.5479 17.8473 11.7918 19.0678C11.8576 19.1324 11.9228 19.1964 11.9876 19.26C12.7492 18.3549 13.641 17.431 14.5391 16.5004C15.0724 15.9478 15.608 15.3929 16.1199 14.8383C17.6587 13.171 19.0191 11.4733 19.7168 9.6786C20.2348 8.3459 20.0523 6.82415 19.0912 5.7535L19.0907 5.75295C18.749 5.37125 18.3335 5.0635 17.8695 4.84833C17.4055 4.63319 16.9027 4.51515 16.3918 4.50137Z" fill="#0C112F"/>
<path fill-rule="evenodd" clip-rule="evenodd" d="M13.4545 7.26794L9.48435 12.4008C9.35725 12.5651 9.4744 12.8037 9.6821 12.8037H11.9454L11.1818 16.6788L15.1519 11.546C15.279 11.3817 15.1619 11.143 14.9542 11.143H12.6909L13.4545 7.26794Z" fill="#0C112F"/>
</svg>
