<svg width="24" height="24" viewBox="0 0 24 24" fill="none" xmlns="http://www.w3.org/2000/svg">
<path d="M9.5 7.5V9H8V10H9.5V11.5H10.5V10H12V9H10.5V7.5H9.5Z" fill="#0C112F"/>
<path d="M8.5 13C8.22385 13 8 13.2239 8 13.5C8 13.7761 8.22385 14 8.5 14H15.5C15.7761 14 16 13.7761 16 13.5C16 13.2239 15.7761 13 15.5 13H8.5Z" fill="#0C112F"/>
<path d="M8 16C8 15.7239 8.22385 15.5 8.5 15.5H15.5C15.7761 15.5 16 15.7239 16 16C16 16.2761 15.7761 16.5 15.5 16.5H8.5C8.22385 16.5 8 16.2761 8 16Z" fill="#0C112F"/>
<path d="M8.5 18C8.22385 18 8 18.2239 8 18.5C8 18.7761 8.22385 19 8.5 19H15.5C15.7761 19 16 18.7761 16 18.5C16 18.2239 15.7761 18 15.5 18H8.5Z" fill="#0C112F"/>
<path fill-rule="evenodd" clip-rule="evenodd" d="M8.5 3.5C8.5 2.67158 9.17155 2 10 2H14C14.8285 2 15.5 2.67158 15.5 3.5H17.5C18.3285 3.5 19 4.17158 19 5V20.5C19 21.3284 18.3285 22 17.5 22H6.5C5.67155 22 5 21.3284 5 20.5V5C5 4.17158 5.67155 3.5 6.5 3.5H8.5ZM14 6C14.8285 6 15.5 5.32845 15.5 4.5H17.5C17.7761 4.5 18 4.72386 18 5V20.5C18 20.7761 17.7761 21 17.5 21H6.5C6.22385 21 6 20.7761 6 20.5V5C6 4.72386 6.22385 4.5 6.5 4.5H8.5C8.5 5.32845 9.17155 6 10 6H14ZM10 3C9.72385 3 9.5 3.22386 9.5 3.5V4.5C9.5 4.77614 9.72385 5 10 5H14C14.2761 5 14.5 4.77614 14.5 4.5V3.5C14.5 3.22386 14.2761 3 14 3H10Z" fill="#0C112F"/>
</svg>
